<svg id="Layer_1" data-name="Layer 1" xmlns="http://www.w3.org/2000/svg" xmlns:xlink="http://www.w3.org/1999/xlink" viewBox="0 0 48 48"><defs><style>.cls-1{fill:none;}.cls-2{fill:#7b40b5;}.cls-3{clip-path:url(#clip-path);}.cls-4{fill:#fff;}</style><clipPath id="clip-path" transform="translate(-1 -1)"><rect class="cls-1" x="10" y="10" width="30" height="30"/></clipPath></defs><g id="icon"><path id="Path_436-2" data-name="Path 436-2" class="cls-2" d="M25,1A24,24,0,1,1,1,25,24,24,0,0,1,25,1Z" transform="translate(-1 -1)"/><g class="cls-3"><g id="Group_175" data-name="Group 175"><path id="Path_443" data-name="Path 443" class="cls-4" d="M25,10A15,15,0,1,0,40,25h0A15,15,0,0,0,25,10m-8.33,5.19a12.86,12.86,0,0,1,16.62,0L15.19,33.3a12.85,12.85,0,0,1,1.48-18.11h0M33.33,34.81a12.86,12.86,0,0,1-16.62,0L34.81,16.7a12.85,12.85,0,0,1-1.48,18.11h0" transform="translate(-1 -1)"/></g></g></g></svg>