<svg id="Layer_1" data-name="Layer 1" xmlns="http://www.w3.org/2000/svg" xmlns:xlink="http://www.w3.org/1999/xlink" viewBox="0 0 48 48"><defs><style>.cls-1{fill:none;}.cls-2{fill:#ff5622;}.cls-3{clip-path:url(#clip-path);}.cls-4{fill:#fff;}</style><clipPath id="clip-path" transform="translate(-1 -1)"><rect class="cls-1" x="14" y="7.93" width="20.83" height="32.91"/></clipPath></defs><g id="icon"><path id="Path_436-2" data-name="Path 436-2" class="cls-2" d="M25,1A24,24,0,1,1,1,25,24,24,0,0,1,25,1Z" transform="translate(-1 -1)"/><g class="cls-3"><g id="Group_179" data-name="Group 179"><path id="Path_454" data-name="Path 454" class="cls-4" d="M33.38,12.17H29.67v-.74a.88.88,0,0,0-.87-.87h-2v-.22a2.4,2.4,0,0,0-4.8,0v.22H20a.88.88,0,0,0-.86.87v.74h-.89a.49.49,0,0,0-.48.48.48.48,0,0,0,.48.48h.88v.74a.87.87,0,0,0,.87.87H28.8a.87.87,0,0,0,.87-.87v-.74h3.71a.49.49,0,0,1,.49.49V39.39a.49.49,0,0,1-.49.49H15.45a.49.49,0,0,1-.49-.49V13.62a.49.49,0,0,1,.49-.49h.64a.48.48,0,0,0,0-1h-.64A1.45,1.45,0,0,0,14,13.62V39.39a1.45,1.45,0,0,0,1.45,1.45H33.38a1.45,1.45,0,0,0,1.45-1.45V13.62a1.45,1.45,0,0,0-1.45-1.45m-4.67,1.6H20.13V11.53H22.5a.49.49,0,0,0,.48-.48h0v-.71a1.44,1.44,0,0,1,2.87,0v.71a.49.49,0,0,0,.49.48h2.37Z" transform="translate(-1 -1)"/><path id="Path_455" data-name="Path 455" class="cls-4" d="M30.74,20a1.69,1.69,0,0,0-2.39,0L26.89,21.5,25.44,20a1.69,1.69,0,0,0-2.89,1.07,6.24,6.24,0,1,0,2.58,12.22A6.34,6.34,0,0,0,27.89,32a.48.48,0,0,0-.62-.74,5.28,5.28,0,1,1-6.87-8,5.2,5.2,0,0,1,2.35-1.16,1.88,1.88,0,0,0,.29.39L24.5,23.9,23,25.35a1.7,1.7,0,0,0,2.4,2.4l1.45-1.46,1.46,1.46a1.81,1.81,0,0,0,.69.42,5.55,5.55,0,0,1-.5,1.47.48.48,0,1,0,.84.46v0a6.14,6.14,0,0,0,.62-1.9,1.7,1.7,0,0,0,1.17-2.09,1.78,1.78,0,0,0-.43-.74l-1.46-1.46,1.45-1.45a1.68,1.68,0,0,0,0-2.4m-.68,1.72-1.79,1.79a.49.49,0,0,0,0,.69h0L30.06,26a.73.73,0,1,1-1,1l-1.8-1.8a.48.48,0,0,0-.68,0l-1.79,1.8a.74.74,0,0,1-1-1l1.8-1.79a.49.49,0,0,0,0-.69h0l-1.8-1.79a.73.73,0,0,1,1-1l1.8,1.8a.48.48,0,0,0,.68,0l1.8-1.8a.73.73,0,0,1,1,1l0,0Z" transform="translate(-1 -1)"/></g></g></g></svg>