<svg id="Layer_1" data-name="Layer 1" xmlns="http://www.w3.org/2000/svg" xmlns:xlink="http://www.w3.org/1999/xlink" viewBox="0 0 48 48"><defs><style>.cls-1{fill:none;}.cls-2{fill:#4050b5;}.cls-3{clip-path:url(#clip-path);}.cls-4{fill:#fff;}</style><clipPath id="clip-path" transform="translate(-1 -1)"><rect class="cls-1" x="12" y="12.93" width="26" height="26"/></clipPath></defs><g id="icon"><path id="Path_436-2" data-name="Path 436-2" class="cls-2" d="M25,1A24,24,0,1,1,1,25,24,24,0,0,1,25,1Z" transform="translate(-1 -1)"/><g id="Group_174" data-name="Group 174"><g class="cls-3"><g id="Group_173" data-name="Group 173"><path id="Path_437" data-name="Path 437" class="cls-4" d="M27.35,14.73a.69.69,0,0,0-.69.69v3.84a.69.69,0,0,0,.69.69H29.7a.69.69,0,0,0,.69-.69V15.42a.69.69,0,0,0-.69-.69Zm2.28,4.45H27.42V15.5h2.21Z" transform="translate(-1 -1)"/><path id="Path_438" data-name="Path 438" class="cls-4" d="M33.14,38.29H13.87a1.1,1.1,0,0,1-1.1-1.1V25.81a.39.39,0,0,0-.39-.39.38.38,0,0,0-.38.39V37.19a1.86,1.86,0,0,0,1.84,1.86h19.3a.38.38,0,1,0,0-.76h0" transform="translate(-1 -1)"/><path id="Path_439" data-name="Path 439" class="cls-4" d="M37.82,16.93l-3.7-3.7a1,1,0,0,0-.73-.3H13.87A1.87,1.87,0,0,0,12,14.79h0V24a.38.38,0,0,0,.38.39.39.39,0,0,0,.39-.39V14.8a1.1,1.1,0,0,1,1.1-1.1h3.9v7a1.09,1.09,0,0,0,1.09,1.1h12.4a1.09,1.09,0,0,0,1.09-1.1V13.7h1a.24.24,0,0,1,.19.08l3.7,3.69a.27.27,0,0,1,.08.19V37.19a1.12,1.12,0,0,1-1.1,1.1H34.93a.38.38,0,0,0,0,.76h1.33a1.86,1.86,0,0,0,1.86-1.86V17.66a1,1,0,0,0-.3-.73m-6.23,3.72a.33.33,0,0,1-.33.33H18.86a.33.33,0,0,1-.33-.33V13.7H31.59Z" transform="translate(-1 -1)"/><path id="Path_440" data-name="Path 440" class="cls-4" d="M20,31.2h10.2a1.2,1.2,0,0,0,0-2.4H20a1.2,1.2,0,0,0,0,2.4m0-1.63h10.2a.43.43,0,0,1,0,.86H20a.43.43,0,0,1,0-.86h0" transform="translate(-1 -1)"/><path id="Path_441" data-name="Path 441" class="cls-4" d="M20,34.67h10.2a1.2,1.2,0,1,0,0-2.4H20a1.2,1.2,0,1,0,0,2.4M20,33h10.2a.43.43,0,0,1,0,.86H20A.43.43,0,0,1,20,33h0" transform="translate(-1 -1)"/><path id="Path_442" data-name="Path 442" class="cls-4" d="M32.46,24.17H17.66a1.4,1.4,0,0,0-1.4,1.4v9.54a1.41,1.41,0,0,0,1.4,1.41h14.8a1.41,1.41,0,0,0,1.4-1.41V25.57a1.4,1.4,0,0,0-1.4-1.4M17,25.57a.64.64,0,0,1,.63-.64h14.8a.64.64,0,0,1,.64.64V27H17ZM33.1,35.11a.64.64,0,0,1-.64.64H17.66a.63.63,0,0,1-.63-.64V27.72H33.1Z" transform="translate(-1 -1)"/></g></g></g></g></svg>