<svg id="Layer_1" data-name="Layer 1" xmlns="http://www.w3.org/2000/svg" xmlns:xlink="http://www.w3.org/1999/xlink" viewBox="0 0 48 48"><defs><style>.cls-1{fill:none;}.cls-2{fill:#009688;}.cls-3{clip-path:url(#clip-path);}.cls-4{fill:#fff;}</style><clipPath id="clip-path" transform="translate(-1 -1)"><rect class="cls-1" x="10" y="10.35" width="28" height="30.55"/></clipPath></defs><g id="icon"><path id="Path_436-2" data-name="Path 436-2" class="cls-2" d="M25,1A24,24,0,1,1,1,25,24,24,0,0,1,25,1Z" transform="translate(-1 -1)"/><g class="cls-3"><g id="Group_177" data-name="Group 177"><path id="Path_444" data-name="Path 444" class="cls-4" d="M38,12.9a2.55,2.55,0,0,0-2.55-2.55H15.09a2.55,2.55,0,0,0-2.55,2.55V30.72a.51.51,0,0,0,.51.51.52.52,0,0,0,.51-.51V12.9a1.53,1.53,0,0,1,1.53-1.53H35.45A1.52,1.52,0,0,1,37,12.9h0V32.75H33.42a2.55,2.55,0,0,0-2.55,2.55v3.56H21.2a.51.51,0,0,0,0,1H31.38a.48.48,0,0,0,.36-.15l6.11-6.11a.48.48,0,0,0,.15-.36ZM33.42,33.77h2.84l-4.37,4.37V35.3a1.53,1.53,0,0,1,1.53-1.53h0" transform="translate(-1 -1)"/><path id="Path_445" data-name="Path 445" class="cls-4" d="M10,34.79a2,2,0,0,0,.6,1.44l4.07,4.07a2,2,0,0,0,1.44.6h.16a2,2,0,0,0,1.49-.84l9.16-12.73a2,2,0,1,0-3.25-2.44.18.18,0,0,0-.05.07l-.64.89a.51.51,0,1,0,.82.6h0l.65-.89a1,1,0,0,1,1.67,1.17l0,0L16.94,39.46a1.06,1.06,0,0,1-.75.42,1,1,0,0,1-.8-.3l-4.07-4.07a1,1,0,0,1,0-1.44,1,1,0,0,1,1.44,0l2.8,2.8a.5.5,0,0,0,.77-.06l6-8.34a.5.5,0,0,0-.11-.71.51.51,0,0,0-.71.1h0l-5.66,7.86-2.37-2.38a2.08,2.08,0,0,0-2.88,0,2,2,0,0,0-.6,1.44" transform="translate(-1 -1)"/><path id="Path_446" data-name="Path 446" class="cls-4" d="M17.13,13.41h-1a.51.51,0,0,0-.51.51.51.51,0,0,0,.51.51h1a.51.51,0,0,0,0-1h0" transform="translate(-1 -1)"/><path id="Path_447" data-name="Path 447" class="cls-4" d="M34.43,13.41H19.16a.51.51,0,0,0-.51.51.51.51,0,0,0,.51.51H34.43a.51.51,0,0,0,0-1" transform="translate(-1 -1)"/><path id="Path_448" data-name="Path 448" class="cls-4" d="M17.13,16.46h-1a.51.51,0,1,0,0,1h1a.51.51,0,0,0,0-1h0" transform="translate(-1 -1)"/><path id="Path_449" data-name="Path 449" class="cls-4" d="M19.16,17.48H30.87a.51.51,0,0,0,0-1H19.16a.5.5,0,0,0-.5.51.5.5,0,0,0,.5.51" transform="translate(-1 -1)"/><path id="Path_450" data-name="Path 450" class="cls-4" d="M17.13,19.52h-1a.51.51,0,1,0,0,1h1a.51.51,0,1,0,0-1h0" transform="translate(-1 -1)"/><path id="Path_451" data-name="Path 451" class="cls-4" d="M19.16,20.53h8.15a.51.51,0,1,0,0-1H19.16a.51.51,0,1,0,0,1" transform="translate(-1 -1)"/><path id="Path_452" data-name="Path 452" class="cls-4" d="M36,21a.51.51,0,1,0-1,0h0v7.13a.5.5,0,0,0,.5.51.51.51,0,0,0,.51-.51h0Z" transform="translate(-1 -1)"/><path id="Path_453" data-name="Path 453" class="cls-4" d="M35.45,29.7a.5.5,0,0,0-.5.51v1a.5.5,0,0,0,.5.51.51.51,0,0,0,.51-.51h0v-1a.51.51,0,0,0-.51-.51" transform="translate(-1 -1)"/></g></g></g></svg>