<svg xmlns="http://www.w3.org/2000/svg" width="23.143" height="23" viewBox="0 0 23.143 23"><defs><style>.a{fill:#0a68ff;}</style></defs><g transform="translate(1.462 0)"><g transform="translate(0 0)"><path class="a" d="M50.743,4.007,48.561,1.825a1.157,1.157,0,0,0-1.636,0L32.063,16.686s-.005.009-.008.013a.372.372,0,0,0-.066.1.27.27,0,0,0-.012.026s-.005.008-.007.013l-1.636,4.911a.386.386,0,0,0,.486.486L35.73,20.6s.008,0,.013-.007l.026-.012a.372.372,0,0,0,.1-.066s.009,0,.013-.008L50.743,5.644A1.157,1.157,0,0,0,50.743,4.007ZM31.31,21.259l1.2-3.585L34.9,20.065Zm4.3-1.572-2.728-2.728L45.015,4.826l1.091,1.091-7.224,7.224a.386.386,0,1,0,.536.555l.009-.009,7.224-7.224,1.091,1.091ZM50.2,5.1l-1.909,1.91L46.925,5.645,45.56,4.28l1.91-1.909a.386.386,0,0,1,.545,0L50.2,4.553A.386.386,0,0,1,50.2,5.1Z" transform="translate(-30.315 -1.486)"/></g></g><g transform="translate(0 22.229)"><path class="a" d="M22.758,462.513H.386a.386.386,0,1,0,0,.771H22.758a.386.386,0,1,0,0-.771Z" transform="translate(0 -462.513)"/></g><g transform="translate(10.8 19.914)"><path class="a" d="M235.957,414.513H224.386a.386.386,0,1,0,0,.771h11.572a.386.386,0,1,0,0-.771Z" transform="translate(-224 -414.513)"/></g><g transform="translate(12.343 17.214)"><path class="a" d="M266.415,358.513H256.386a.386.386,0,0,0,0,.771h10.029a.386.386,0,0,0,0-.771Z" transform="translate(-256 -358.513)"/></g></svg>