<svg id="Group_284" data-name="Group 284" xmlns="http://www.w3.org/2000/svg" xmlns:xlink="http://www.w3.org/1999/xlink" width="34.865" height="37" viewBox="0 0 34.865 37">
  <defs>
    <clipPath id="clip-path">
      <rect id="Rectangle_193" data-name="Rectangle 193" width="34.865" height="37" fill="#316180"/>
    </clipPath>
  </defs>
  <g id="Group_124" data-name="Group 124" clip-path="url(#clip-path)">
    <path id="Path_294" data-name="Path 294" d="M34.666,10.013,25.24.218A.712.712,0,0,0,24.728,0H10.678A2.854,2.854,0,0,0,7.827,2.85v9.957H2.133A2.135,2.135,0,0,0,0,14.94V25.617A2.135,2.135,0,0,0,2.133,27.75H7.827v6.4A2.852,2.852,0,0,0,10.678,37H32.014a2.851,2.851,0,0,0,2.851-2.844V10.506a.711.711,0,0,0-.2-.493M24.9,1.921l7.738,8.041H24.9ZM2.133,26.327a.711.711,0,0,1-.71-.71V14.94a.711.711,0,0,1,.71-.71H21.347a.711.711,0,0,1,.71.71V25.617a.711.711,0,0,1-.71.71Zm31.309,7.829a1.426,1.426,0,0,1-1.428,1.421H10.678A1.427,1.427,0,0,1,9.25,34.155v-6.4h12.1a2.135,2.135,0,0,0,2.133-2.133V14.94a2.135,2.135,0,0,0-2.133-2.133H9.25V2.85a1.429,1.429,0,0,1,1.428-1.427h12.8v9.25a.712.712,0,0,0,.712.712h9.25Z" fill="#316180"/>
    <path id="Path_295" data-name="Path 295" d="M62.155,241.036a1.6,1.6,0,0,0-.88-.6,7.182,7.182,0,0,0-1.468-.092h-1.98v6.112h1.234v-2.306h.8a7.042,7.042,0,0,0,1.28-.088,1.787,1.787,0,0,0,.64-.29,1.676,1.676,0,0,0,.519-.6,1.994,1.994,0,0,0,.2-.946,1.9,1.9,0,0,0-.354-1.19M61.1,242.718a.81.81,0,0,1-.386.3,3.191,3.191,0,0,1-.976.1h-.675V241.38h.6a5.927,5.927,0,0,1,.888.042.853.853,0,0,1,.5.271.789.789,0,0,1,.2.55.821.821,0,0,1-.14.475" transform="translate(-53.648 -222.977)" fill="#316180"/>
    <path id="Path_296" data-name="Path 296" d="M141.5,242.017a2.67,2.67,0,0,0-.584-.99,2.044,2.044,0,0,0-.921-.563,4.405,4.405,0,0,0-1.163-.117h-2.256v6.112H138.9a3.729,3.729,0,0,0,1.092-.129,2.168,2.168,0,0,0,.867-.488,2.7,2.7,0,0,0,.655-1.08,4.017,4.017,0,0,0,.188-1.3,4.511,4.511,0,0,0-.2-1.445m-1.2,2.51a1.293,1.293,0,0,1-.323.59,1.14,1.14,0,0,1-.5.254,3.361,3.361,0,0,1-.746.058h-.921v-4.048h.554a5.59,5.59,0,0,1,1.013.058,1.175,1.175,0,0,1,.571.288,1.4,1.4,0,0,1,.35.592,3.651,3.651,0,0,1,.125,1.088,3.986,3.986,0,0,1-.125,1.119" transform="translate(-126.707 -222.978)" fill="#316180"/>
    <path id="Path_297" data-name="Path 297" d="M226.267,241.38v-1.034h-4.19v6.112h1.234v-2.6h2.552v-1.034h-2.552V241.38Z" transform="translate(-206.029 -222.977)" fill="#316180"/>
  </g>
</svg>
