<svg id="Layer_1" data-name="Layer 1" xmlns="http://www.w3.org/2000/svg" viewBox="0 0 215.28 55.51"><defs><style>.cls-1{fill:#fff;}</style></defs><g id="Group_3" data-name="Group 3"><path id="Path_1" data-name="Path 1" class="cls-1" d="M36.46,12.12A4.39,4.39,0,0,0,33.79,16v8.63l2.51,3.24H33.8v5.87H31.36V27.89H28.85l2.51-3.24V18l-6.14,2.56a4.36,4.36,0,0,0-2.67,3.9v26.1L28.69,48a4.39,4.39,0,0,0,2.67-3.9V37.77H33.8V54.41l6.13-2.56A4.36,4.36,0,0,0,42.6,48V9.55Z" transform="translate(-4.82 -2.91)"/><g id="Group_1" data-name="Group 1"><path id="Path_2" data-name="Path 2" class="cls-1" d="M71.5,42H69.77a.47.47,0,0,1-.54-.4.33.33,0,0,1,0-.14V17.74a.47.47,0,0,1,.4-.54H71.5a.47.47,0,0,1,.54.4.33.33,0,0,1,0,.14V27.86c0,.23.13.35.39.35H82c.26,0,.39-.12.39-.35V17.74a.47.47,0,0,1,.4-.54h1.87a.47.47,0,0,1,.54.4.33.33,0,0,1,0,.14V41.41a.47.47,0,0,1-.4.54H82.9a.47.47,0,0,1-.54-.4.33.33,0,0,1,0-.14V31c0-.23-.13-.35-.39-.35H72.43c-.26,0-.39.12-.39.35V41.41a.47.47,0,0,1-.4.54Z" transform="translate(-4.82 -2.91)"/><path id="Path_3" data-name="Path 3" class="cls-1" d="M98.18,42h-2a5.24,5.24,0,0,1-5.7-5.7V28A5.66,5.66,0,0,1,92,23.81a5.74,5.74,0,0,1,4.18-1.5h8.35a.47.47,0,0,1,.54.4.33.33,0,0,1,0,.14V41.41a.46.46,0,0,1-.4.53.33.33,0,0,1-.14,0H102.8a.47.47,0,0,1-.54-.4V39.91h-.15Q101.15,42,98.18,42Zm4.08-6V25.13c0-.23-.13-.35-.38-.35H96.49c-2.14,0-3.2,1.12-3.2,3.35v8c0,2.23,1.06,3.35,3.2,3.35h2.19a3.62,3.62,0,0,0,2.66-.93,3.54,3.54,0,0,0,.92-2.62Z" transform="translate(-4.82 -2.91)"/><path id="Path_4" data-name="Path 4" class="cls-1" d="M112.84,42h-1.73a.47.47,0,0,1-.54-.4V15.43a.48.48,0,0,1,.41-.54h1.86a.46.46,0,0,1,.54.4.33.33,0,0,1,0,.14v26a.47.47,0,0,1-.4.54Z" transform="translate(-4.82 -2.91)"/><path id="Path_5" data-name="Path 5" class="cls-1" d="M129.48,42h-5a5,5,0,0,1-3.75-1.42,5.2,5.2,0,0,1-1.41-3.82V22.43a5.18,5.18,0,0,1,1.41-3.81,5,5,0,0,1,3.75-1.42h5a5,5,0,0,1,3.75,1.42,5.18,5.18,0,0,1,1.41,3.81v1.93c0,.23-.1.34-.31.34h-.54c-.21,0-.31-.11-.31-.34V22.47a4.3,4.3,0,0,0-1-3.08,3.84,3.84,0,0,0-3-1.11h-5a3.84,3.84,0,0,0-3,1.11,4.29,4.29,0,0,0-1,3.08V36.68a4.3,4.3,0,0,0,1,3.08,3.84,3.84,0,0,0,3,1.11h5a3.84,3.84,0,0,0,3-1.11,4.3,4.3,0,0,0,1-3.08V34.79c0-.24.1-.35.31-.35h.54c.2,0,.31.12.31.35v1.92a5.16,5.16,0,0,1-1.41,3.81A5,5,0,0,1,129.48,42Z" transform="translate(-4.82 -2.91)"/><path id="Path_6" data-name="Path 6" class="cls-1" d="M147.84,42H145a5,5,0,0,1-3.75-1.42,5.19,5.19,0,0,1-1.4-3.82V27.55a5.17,5.17,0,0,1,1.4-3.81A5,5,0,0,1,145,22.32h7.93c.21,0,.31.11.31.34V41.6c0,.23-.1.35-.31.35h-.54c-.2,0-.31-.12-.31-.35V40h-.15Q150.84,41.95,147.84,42Zm4.24-5.08V23.7c0-.2-.12-.3-.35-.31H145a3.85,3.85,0,0,0-3,1.12,4.39,4.39,0,0,0-1,3.08v9.09a4.39,4.39,0,0,0,1,3.08,3.84,3.84,0,0,0,3,1.11h2.78a4.51,4.51,0,0,0,3.11-1,3.68,3.68,0,0,0,1.2-3Z" transform="translate(-4.82 -2.91)"/><path id="Path_7" data-name="Path 7" class="cls-1" d="M160.24,47.84h-.54c-.21,0-.31-.12-.31-.35V22.66c0-.23.1-.35.31-.35h.54c.2,0,.3.12.3.35v1.65h.16q1.08-2,4.08-2h2.85a5,5,0,0,1,3.75,1.43,5.17,5.17,0,0,1,1.4,3.81v9.16a5.17,5.17,0,0,1-1.4,3.81A5,5,0,0,1,167.63,42h-2.85q-3,0-4.08-2h-.16v7.54C160.54,47.72,160.44,47.84,160.24,47.84Zm4.62-7h2.77a3.85,3.85,0,0,0,3-1.12,4.27,4.27,0,0,0,1-3.08V27.59a4.29,4.29,0,0,0-1-3.08,3.85,3.85,0,0,0-3-1.12h-2.77a4.57,4.57,0,0,0-3.12,1,3.78,3.78,0,0,0-1.2,3v9.47a3.77,3.77,0,0,0,1.2,3,4.57,4.57,0,0,0,3.12,1Z" transform="translate(-4.82 -2.91)"/><path id="Path_8" data-name="Path 8" class="cls-1" d="M178.75,19.12V15.31c0-.23.11-.35.31-.35h.54c.21,0,.31.12.31.35v3.81c0,.23-.1.35-.31.35h-.54C178.85,19.46,178.75,19.35,178.75,19.12Zm0,22.48V22.66c0-.23.11-.34.31-.34h.54c.21,0,.31.11.31.34v19c0,.23-.1.34-.31.34h-.54C178.86,42,178.75,41.83,178.75,41.6Z" transform="translate(-4.82 -2.91)"/><path id="Path_9" data-name="Path 9" class="cls-1" d="M187.22,23.39h-2.54c-.23,0-.34-.1-.34-.31v-.46c0-.2.11-.31.34-.31h2.54c.23,0,.35-.1.35-.3V19c0-.23.1-.35.31-.35h.54c.2,0,.3.12.3.35v3c0,.2.12.31.35.3h5c.23,0,.34.11.34.31v.46c0,.21-.11.31-.34.31h-5c-.23,0-.35.11-.35.31V36.79a3.94,3.94,0,0,0,1.14,3,4.29,4.29,0,0,0,3.1,1.08h1.46c.23,0,.35.1.35.31v.46c0,.21-.12.31-.35.31H193a5.49,5.49,0,0,1-3.89-1.39,4.8,4.8,0,0,1-1.5-3.73V23.7C187.57,23.5,187.45,23.39,187.22,23.39Z" transform="translate(-4.82 -2.91)"/><path id="Path_10" data-name="Path 10" class="cls-1" d="M207.2,42h-2.85a5,5,0,0,1-3.75-1.42,5.19,5.19,0,0,1-1.4-3.82V27.55a5.17,5.17,0,0,1,1.4-3.81,5,5,0,0,1,3.75-1.42h7.94c.2,0,.31.11.31.34V41.6c0,.23-.11.35-.31.35h-.54c-.21,0-.31-.12-.31-.35V40h-.15Q210.21,41.95,207.2,42Zm4.24-5.08V23.7c0-.2-.12-.3-.35-.31h-6.74a3.85,3.85,0,0,0-3,1.12,4.38,4.38,0,0,0-1,3.08v9.09a4.39,4.39,0,0,0,1,3.08,3.84,3.84,0,0,0,3,1.11h2.78a4.51,4.51,0,0,0,3.11-1,3.68,3.68,0,0,0,1.2-3Z" transform="translate(-4.82 -2.91)"/><path id="Path_11" data-name="Path 11" class="cls-1" d="M219.79,42h-.54c-.2,0-.31-.11-.31-.35V15.23c0-.23.11-.34.31-.34h.54c.21,0,.31.11.31.34V41.6C220.1,41.83,220,42,219.79,42Z" transform="translate(-4.82 -2.91)"/></g><g id="Group_2" data-name="Group 2"><path id="Path_12" data-name="Path 12" class="cls-1" d="M32.57,58.42A27.76,27.76,0,1,1,60.33,30.66,27.76,27.76,0,0,1,32.57,58.42Zm0-53.85a26.1,26.1,0,1,0,26.1,26.1h0A26.13,26.13,0,0,0,32.57,4.56Z" transform="translate(-4.82 -2.91)"/></g></g></svg>