<svg xmlns="http://www.w3.org/2000/svg" width="40.257" height="36.52" viewBox="0 0 40.257 36.52">
  <g id="Group_11" data-name="Group 11" transform="translate(0.001 -24)">
    <path id="Path_13" data-name="Path 13" d="M32.51,34.136a12.6,12.6,0,0,0-24.7-.008A8.817,8.817,0,0,0,8.823,51.7h6.3a1.26,1.26,0,1,0,0-2.519h-6.3a6.3,6.3,0,1,1,.074-12.6,1.259,1.259,0,0,0,1.252-1.121,10.076,10.076,0,0,1,20.019,0,1.335,1.335,0,0,0,1.326,1.121,6.3,6.3,0,1,1,0,12.6H25.2a1.26,1.26,0,1,0,0,2.519h6.3A8.817,8.817,0,0,0,32.51,34.136Z" transform="translate(0)" fill="#fff"/>
    <path id="Path_14" data-name="Path 14" d="M183.293,223.65a1.259,1.259,0,1,0,1.812-1.75l-.031-.031-5.342-5.343a1.26,1.26,0,0,0-1.781,0l0,0-5.342,5.343a1.259,1.259,0,0,0,1.75,1.812l.031-.031,3.193-3.194v15.852a1.259,1.259,0,1,0,2.519,0V220.456Z" transform="translate(-158.683 -177.047)" fill="#fff"/>
  </g>
</svg>
