<svg xmlns="http://www.w3.org/2000/svg" width="31.557" height="31.557" viewBox="0 0 31.557 31.557">
  <g id="User_Setting" data-name="User Setting" transform="translate(0 0)">
    <g id="Outline" transform="translate(0 0)">
      <path id="Path_529" data-name="Path 529" d="M11.834,19.886V18.55a6.79,6.79,0,0,0,9.339-3.788A2.258,2.258,0,0,0,23,13.079l.281-1.124a1.681,1.681,0,0,0-1.052-1.99l.139-.678a7.875,7.875,0,0,0,.125-.848v0c.022-.239.034-.479.034-.717a7.628,7.628,0,0,0-.6-2.963A7.745,7.745,0,0,0,14.792,0h0a7.689,7.689,0,0,0-2.917.567.493.493,0,0,0,.372.913,6.759,6.759,0,0,1,9.248,5.429,5.176,5.176,0,0,0-2.183-.986l-.192-.032-1.89,1.26a4.394,4.394,0,0,1-4.873,0l-1.89-1.26-.192.032a5.178,5.178,0,0,0-2.184.986,6.691,6.691,0,0,1,1.289-3.2.493.493,0,0,0-.789-.591v0A7.74,7.74,0,0,0,7.459,5.265a7.621,7.621,0,0,0-.4,2.454q0,.354.033.709a.021.021,0,0,0,0,.005,7.86,7.86,0,0,0,.126.854l.139.678A1.681,1.681,0,0,0,6.3,11.955l.281,1.124a2.258,2.258,0,0,0,1.829,1.683,6.779,6.779,0,0,0,2.435,3.2v1.92a.493.493,0,0,1-.4.485L4.049,21.534A4.928,4.928,0,0,0,0,26.385v4.679a.493.493,0,0,0,.986,0V26.385A3.943,3.943,0,0,1,4.225,22.5l5.7-1.035a4.929,4.929,0,0,0,4.871,4.171.493.493,0,1,0,0-.986,3.945,3.945,0,0,1-3.905-3.388A1.478,1.478,0,0,0,11.834,19.886ZM9.248,14.154l-.107-.346-.365,0A1.272,1.272,0,0,1,7.54,12.84l-.281-1.124a.709.709,0,0,1-.022-.172.7.7,0,0,1,.7-.7h.6L8.181,9.089q-.064-.313-.1-.63a3.307,3.307,0,0,1,2.173-1.522l1.553,1.035a5.38,5.38,0,0,0,5.967,0l1.553-1.035A3.308,3.308,0,0,1,21.5,8.459c-.023.211-.055.422-.1.631l-.36,1.755v0h.6a.7.7,0,0,1,.678.869l-.281,1.124a1.272,1.272,0,0,1-1.237.966h-.361l-.11.348a5.773,5.773,0,0,1-5.543,4.09h0A5.772,5.772,0,0,1,9.248,14.154Z" transform="translate(0 0)" fill="#fff"/>
      <path id="Path_530" data-name="Path 530" d="M64.493,440a.493.493,0,0,0-.493.493v3.452a.493.493,0,1,0,.986,0v-3.452A.493.493,0,0,0,64.493,440Z" transform="translate(-60.055 -412.88)" fill="#fff"/>
      <path id="Path_531" data-name="Path 531" d="M160.559,25.546a.493.493,0,1,0-.39-.19A.493.493,0,0,0,160.559,25.546Z" transform="translate(-150.2 -23.046)" fill="#fff"/>
      <path id="Path_532" data-name="Path 532" d="M288.669,282.517v-2.366l-1.884-.607-.33-.8.9-1.765-1.672-1.672-1.765.9-.8-.33L282.517,274h-2.366l-.607,1.884-.8.33-1.765-.9-1.672,1.672.9,1.765-.33.8-1.884.607v2.366l1.884.607.33.8-.9,1.765,1.672,1.672,1.765-.9.8.33.607,1.884h2.366l.607-1.884.8-.33,1.765.9,1.672-1.672-.9-1.765.33-.8Zm-2.515,2.98-.657.657-1.532-.784-1.64.679-.527,1.634h-.929l-.527-1.634-1.64-.679-1.532.784-.657-.657.784-1.532-.679-1.64-1.634-.527v-.929l1.634-.527.679-1.64-.784-1.532.657-.657,1.532.784,1.639-.679.527-1.634h.929l.527,1.634,1.64.679,1.532-.784.657.657-.784,1.532.679,1.639,1.634.527v.929l-1.634.527-.679,1.64Z" transform="translate(-257.112 -257.112)" fill="#fff"/>
      <path id="Path_533" data-name="Path 533" d="M348.055,346.957a.481.481,0,0,0-.186-.037.493.493,0,0,0-.2.944h0l.015.006a1.972,1.972,0,1,1-2.591,1.138.493.493,0,1,0-.924-.345,2.958,2.958,0,1,0,3.885-1.707Z" transform="translate(-322.78 -325.537)" fill="#fff"/>
      <path id="Path_534" data-name="Path 534" d="M368.387,348.3a.487.487,0,0,0,.2-.041h0a.493.493,0,1,0-.38-.91l-.018.008-.014.006h0a.493.493,0,0,0,.212.939Z" transform="translate(-345.218 -325.899)" fill="#fff"/>
    </g>
  </g>
</svg>
