<?xml version="1.0" encoding="utf-8"?>
<!-- Generator: Adobe Illustrator 25.4.1, SVG Export Plug-In . SVG Version: 6.00 Build 0)  -->
<svg version="1.1" id="Layer_1" xmlns="http://www.w3.org/2000/svg" xmlns:xlink="http://www.w3.org/1999/xlink" x="0px" y="0px"
	 viewBox="0 0 56 56" style="enable-background:new 0 0 56 56;" xml:space="preserve">
<style type="text/css">
	.st0{display:none;}
	.st1{display:inline;}
	.st2{fill:#3F97E3;}
	.st3{display:inline;fill:#3F97E3;}
	.st4{display:inline;fill:none;stroke:#BF900F;stroke-width:2;stroke-linecap:round;stroke-linejoin:round;}
	.st5{display:inline;fill:none;stroke:#BF900F;stroke-width:2;stroke-miterlimit:10;}
	.st6{display:inline;fill:none;stroke:#4BC62E;stroke-width:2;stroke-miterlimit:10;}
	.st7{fill:#5A36CC;}
	.st8{display:inline;fill:#FF5622;}
	.st9{fill:#FF5622;}
</style>
<g id="Group_316" transform="translate(0)" class="st0">
	<g id="Group_298" transform="translate(0 12.224)" class="st1">
		<path id="Path_601" class="st2" d="M11.7,41.8H3V41c0-1.5,1-2.9,2.5-3.4l3.7-1.2c0.8-0.2,1.4-0.9,1.4-1.8l0.2-1.8l-0.2-0.2
			c-1.7-1.4-2.8-4.2-2.8-7.3c0-2.7,2.1-4.8,4.8-4.9c1.3,0,2.6,0.5,3.5,1.4c1,1,1.5,2.3,1.5,3.6c0,3-1.1,5.8-2.8,7.1l-0.2,0.2
			l0.1,1.2c0.3-0.2,0.6-0.5,0.9-0.7l0-0.1c1.8-1.6,2.9-4.5,3-7.7c0-1.6-0.6-3.2-1.8-4.4c-1.1-1.1-2.6-1.7-4.2-1.7
			c-3.2,0.1-5.8,2.7-5.8,5.9c0,3.3,1.1,6.3,3,7.9l-0.1,1.2c0,0.4-0.3,0.8-0.8,0.9l-3.7,1.2C3.3,37.3,2,39,2,41v1.6l0.4,0.2h9.3
			L11.7,41.8z"/>
		<path id="Path_602" class="st2" d="M55,40.2c-0.3-1.7-1.5-3.1-3.1-3.6L48,35.4c-0.4-0.1-0.7-0.5-0.8-1l-0.1-1.3
			c1.8-1.6,3-4.6,3-7.9c0-1.7-0.6-3.3-1.8-4.4c-1.1-1.1-2.7-1.8-4.3-1.7c-3.3,0.1-5.9,2.7-5.9,6c0,3.4,1.2,6.4,3,8.1l0,0.2
			c0.3,0.2,0.6,0.4,0.9,0.6l0.1-1.2l-0.2-0.2c-1.7-1.4-2.9-4.3-2.9-7.5c0-2.7,2.2-4.9,4.9-5c1.3,0,2.6,0.5,3.6,1.5
			c1,1,1.5,2.3,1.5,3.7c0,3.1-1.2,5.9-2.9,7.3l-0.2,0.2l0.2,1.8c0.1,0.8,0.7,1.6,1.5,1.8l3.8,1.2c1.3,0.4,2.2,1.5,2.5,2.8v1.5h-8.7
			v1h9.2l0.1,0l0.4-0.2L55,40.2L55,40.2z"/>
	</g>
	<path id="Path_603" class="st3" d="M42.8,55H14.2l-0.5-0.2l0-3c0.3-2.3,2-4.3,4.2-5l5.3-1.7c0.7-0.2,1.1-0.8,1.2-1.5l0.2-1.8
		c-2.6-2.2-4.2-6.4-4.2-11.1c0-4.4,3.6-8,8-8.1c2.2,0,4.3,0.8,5.8,2.4c1.6,1.6,2.5,3.8,2.4,6c-0.1,4.5-1.7,8.7-4.2,10.8l0.2,1.8
		c0.1,0.7,0.5,1.3,1.2,1.5l5.3,1.7c2.3,0.7,3.9,2.7,4.2,5l0,0.1v2.9L42.8,55z M14.7,54h27.7v-2.2c-0.3-2-1.7-3.6-3.6-4.2L33.5,46
		c-1-0.3-1.8-1.2-1.9-2.3l-0.2-2.4l0.2-0.2c2.4-1.9,4-5.9,4.1-10.2c0-2-0.8-3.9-2.2-5.3c-1.3-1.4-3.2-2.1-5.1-2.1
		c-3.9,0.1-7,3.2-7,7.1c0,4.4,1.6,8.5,4.1,10.5l0.2,0.2l-0.2,2.4c-0.1,1.1-0.9,2-1.9,2.3l-5.3,1.7c-1.9,0.6-3.3,2.2-3.6,4.2L14.7,54
		z"/>
</g>
<g id="Group_317" transform="translate(1 1)" class="st0">
	<path id="Path_613" class="st4" d="M16.4,14.4h-10c-1.8,0-3.3,1.4-3.3,3.2c0,0,0,0.1,0,0.1"/>
	<path id="Path_614" class="st4" d="M44.1,21.1v-6.7h-10"/>
	<path id="Path_615" class="st4" d="M40.8,21.1L25.3,5.5L9.7,21.1"/>
	<path id="Path_616" class="st4" d="M33,21.1l-5.4-5.4c-1.6,1.6-3.1,1.6-4.7,0l-5.4,5.4"/>
	<path id="Path_617" class="st4" d="M49.7,42.2v8.9H6.4c-1.8,0-3.3-1.4-3.3-3.2c0,0,0-0.1,0-0.1v-30c0,1.8,1.4,3.3,3.2,3.3
		c0,0,0.1,0,0.1,0h43.3v7.8"/>
	<path id="Path_618" class="st4" d="M36.4,31.1c-3.1,0-5.6,2.5-5.6,5.6c0,3.1,2.5,5.6,5.6,5.6h12.2c1.8,0,3.3-1.5,3.3-3.3
		c0,0,0,0,0,0V30c0-0.6-0.5-1.1-1.1-1.1h-1.1c-0.1,1.2-1,2.1-2.2,2.2H36.4"/>
	<line id="Line_6" class="st5" x1="35.9" y1="36.4" x2="37.9" y2="36.4"/>
</g>
<g id="Group_318" transform="translate(0 1)" class="st0">
	<path id="Path_619" class="st6" d="M1.1,31.6h3.3c0,0,2.5,3.3,5.5,3.3h4.4"/>
	<path id="Path_620" class="st6" d="M27.6,22.7l-4.4-5.5C21.8,15.6,21,15,18.8,15H1.1"/>
	<path id="Path_621" class="st6" d="M15.5,19.4l8.8,8.8c2,2-3,5.2-6.1,2.8l-2.8-2.8h-3.3c-2.3,0.2-4.2-1.5-4.4-3.8
		c0-0.2,0-0.4,0-0.6"/>
	<path id="Path_622" class="st6" d="M18.8,22.7H53V47H14.4V28.2"/>
	<path id="Path_623" class="st6" d="M18.8,42.6"/>
	<path id="Path_624" class="st6" d="M18.8,33.8v5.5c1.8,0,3.3,1.5,3.3,3.3h23.2c0-1.8,1.5-3.3,3.3-3.3c0,0,0,0,0,0v-8.8
		c-1.8,0-3.3-1.5-3.3-3.3c0,0,0,0,0,0H26.5"/>
	<line id="Line_7" class="st6" x1="23.8" y1="35.2" x2="26.3" y2="35.2"/>
	<line id="Line_8" class="st6" x1="41.8" y1="35.2" x2="44.4" y2="35.2"/>
	<ellipse id="Ellipse_2" class="st6" cx="34.1" cy="34.8" rx="4.3" ry="4.7"/>
</g>
<g class="st0">
	<g id="Group_309" transform="translate(15.887 39.921)" class="st1">
		<g id="Group_308">
			<path id="Path_609" class="st7" d="M2.9,2.7c0-0.1,0-0.1-0.1-0.2c0-0.1-0.1-0.1-0.1-0.2C2.7,2.2,2.6,2.1,2.5,2
				C2.4,2,2.4,1.9,2.3,1.9c-0.1,0-0.1,0-0.2-0.1c-0.1,0-0.3,0-0.4,0c-0.1,0-0.1,0-0.2,0.1C1.4,1.9,1.4,2,1.3,2
				C1.1,2.1,1,2.3,0.9,2.5c0,0.1,0,0.1-0.1,0.2c0,0.1,0,0.3,0,0.4c0,0.1,0,0.1,0.1,0.2C1,3.4,1,3.4,1,3.5c0.1,0.1,0.2,0.2,0.3,0.3
				c0.1,0,0.1,0.1,0.2,0.1c0.1,0,0.1,0,0.2,0.1c0.1,0,0.3,0,0.4,0c0.1,0,0.1,0,0.2-0.1c0.1,0,0.1-0.1,0.2-0.1
				c0.1-0.1,0.2-0.2,0.3-0.3c0-0.1,0.1-0.1,0.1-0.2c0-0.1,0-0.1,0.1-0.2C3,3,3,2.8,2.9,2.7L2.9,2.7z"/>
		</g>
	</g>
	<g id="Group_311" transform="translate(0 32.231)" class="st1">
		<g id="Group_310">
			<path id="Path_610" class="st7" d="M48.7,10.7L48.7,10.7c-1-2.3-3.2-3.1-5.9-2.2l-7.2,2c-0.5-1.4-1.6-2.4-2.9-2.9l0,0l-8-2.7
				c-1.6-2-4.1-3.1-6.6-3c-2.7,0-5.1,1.9-6.5,3.9H1.9c-0.6,0-1,0.5-1,1c0,0,0,0,0,0v13.1c0,0.6,0.5,1,1,1c0,0,0,0,0,0h6.2
				c0.6,0,1-0.5,1-1l0,0V19H12c0.6,0,1-0.5,1-1l0,0v-0.3c1.4,0.1,2.7,0.6,3.8,1.4c2,1.2,4.1,2.2,6.2,3.2l0,0
				c1.1,0.4,2.2,0.6,3.3,0.6c1.2,0,2.4-0.2,3.4-0.7l16-5.7c0,0,0.1,0,0.1,0C47.6,15.7,49.9,13.7,48.7,10.7z M7.1,18.9H2.9v-11H7
				L7.1,18.9z M11,16.9H9.1V7.8H11L11,16.9z M45.2,14.4l-16,5.7l0,0l0,0c-1.6,0.7-3.5,0.7-5.2,0.1c-2.1-0.9-4.1-1.9-6-3.1
				c-1.4-1-3.1-1.6-4.8-1.6V7.2c1-1.6,2.9-3.3,5-3.3c2-0.1,3.9,0.8,5.1,2.4c0.1,0.2,0.3,0.4,0.6,0.4l8.3,2.8c1.2,0.3,2,1.5,1.7,2.8
				c-0.3,1.1-1.4,1.7-2.5,1.4l-9.3-3c-0.5-0.2-1.1,0.1-1.3,0.7c-0.2,0.5,0.1,1.1,0.7,1.3l9.3,3l0,0c1,0.3,2.2,0.2,3.1-0.4
				c1-0.5,1.7-1.4,2-2.5c0-0.1,0-0.2,0.1-0.3l7.8-2.2c1.1-0.4,2.6-0.5,3.3,1C47.5,13.2,45.7,14.2,45.2,14.4z"/>
		</g>
	</g>
	<g id="Group_313" transform="translate(35.284 12.842)" class="st1">
		<g id="Group_312">
			<path id="Path_611" class="st7" d="M2.9,2.7c0-0.1,0-0.1-0.1-0.2C2.8,2.3,2.7,2.1,2.5,2C2.4,2,2.4,1.9,2.3,1.9
				C2.1,1.8,1.9,1.8,1.7,1.9c-0.1,0-0.1,0-0.2,0.1C1.4,1.9,1.4,2,1.3,2C1.2,2.1,1.1,2.2,1,2.3C1,2.4,1,2.4,0.9,2.5
				c0,0.1,0,0.1-0.1,0.2c0,0.1,0,0.3,0,0.4c0,0.1,0,0.1,0.1,0.2C1,3.3,1,3.4,1,3.5c0.1,0.1,0.2,0.2,0.3,0.3c0.1,0,0.1,0.1,0.2,0.1
				c0.1,0,0.1,0,0.2,0.1c0.1,0,0.1,0,0.2,0c0.1,0,0.1,0,0.2,0c0.1,0,0.1,0,0.2-0.1c0.1,0,0.1-0.1,0.2-0.1c0.1-0.1,0.2-0.2,0.3-0.3
				c0-0.1,0.1-0.1,0.1-0.2c0-0.1,0-0.1,0.1-0.2C3,3,3,2.8,2.9,2.7L2.9,2.7z"/>
		</g>
	</g>
	<g id="Group_315" transform="translate(3.088 0)" class="st1">
		<g id="Group_314">
			<path id="Path_612" class="st7" d="M50,5.4h-6.2c-0.6,0-1,0.5-1,1c0,0,0,0,0,0v0.9h-2.9c-0.6,0-1,0.5-1,1c0,0,0,0,0,0v0.3
				c-1.4-0.1-2.7-0.6-3.8-1.4c-2-1.2-4.1-2.2-6.2-3.2l0,0c-2.2-0.9-4.6-0.8-6.8,0.1l-4.2,1.5l-3.5-3.5c-0.4-0.4-1.1-0.4-1.5,0
				c0,0,0,0,0,0L1.2,13.7c-0.4,0.4-0.4,1.1,0,1.5c0,0,0,0,0,0L21,35c0.4,0.4,1,0.4,1.5,0L33,24.4c0.3,0,0.6,0,0.9,0
				c2.7,0,5.1-1.9,6.5-3.9H50c0.6,0,1-0.5,1-1V6.4C51,5.8,50.6,5.4,50,5.4C50,5.4,50,5.4,50,5.4z M13.5,4.4l2.4,2.4
				c-1.5,0.9-3.3,0.9-4.7,0L13.5,4.4z M5.7,16.8l-2.4-2.4l2.4-2.4C6.6,13.6,6.6,15.4,5.7,16.8z M21.7,32.8l-2.4-2.4
				c1.5-0.9,3.3-0.9,4.7,0L21.7,32.8z M25.6,28.9c-2.3-1.7-5.4-1.7-7.7,0L7.3,18.3c1.7-2.3,1.7-5.4,0-7.7l2.4-2.4
				c2.3,1.7,5.4,1.7,7.7,0l2.2,2.2c-1.3,0.2-2.5,1-3.1,2.3c-3.2,0.6-5.3,3.7-4.7,6.9c0.6,3.2,3.7,5.3,6.9,4.7
				c2.3-0.4,4.1-2.1,4.6-4.3l3.5,1.2c-0.4,1.8,0,3.7,1.1,5.3L25.6,28.9z M19.2,18.7L19.2,18.7l2.1,0.7c-0.5,2.1-2.5,3.4-4.6,2.9
				c-2.1-0.5-3.4-2.5-2.9-4.6c0.3-1.2,1.1-2.2,2.3-2.7C16.4,16.7,17.6,18.2,19.2,18.7z M29.4,25c-0.4-0.7-0.6-1.4-0.7-2.2
				c0.6,0.4,1.2,0.7,1.8,1L29.4,25z M38.8,19.1c-1,1.6-2.9,3.3-5,3.3c-0.4,0-0.7,0-1.1-0.1l0,0c-1.5-0.2-2.9-0.9-3.9-2.1
				c0,0-0.1-0.1-0.1-0.2c-0.1-0.2-0.3-0.4-0.6-0.5L20,16.7c-1.2-0.3-2-1.5-1.7-2.8l0,0c0.3-1.1,1.4-1.7,2.5-1.4l9.3,3
				c0.5,0.2,1.1-0.1,1.3-0.7s-0.1-1.1-0.7-1.3l0,0l-7.4-2.3l-0.1-0.1l0,0l-3.8-3.8l3.3-1.2l0,0h0l0,0c1.6-0.7,3.5-0.7,5.2-0.1
				C30,6.9,32,7.9,34,9.1c1.4,1,3.1,1.6,4.8,1.6L38.8,19.1z M42.8,18.5h-1.9V9.4h1.9L42.8,18.5z M49,18.5h-4.1v-11H49V18.5z"/>
		</g>
	</g>
</g>
<g class="st0">
	<path id="Path_698" class="st8" d="M38.8,22.6c-7.5,0-13.5,6.1-13.5,13.5c0,7.5,6.1,13.5,13.5,13.5c7.5,0,13.5-6.1,13.5-13.5
		c0,0,0,0,0,0C52.3,28.7,46.2,22.6,38.8,22.6z M38.8,47.9c-6.5,0-11.7-5.2-11.7-11.7s5.2-11.7,11.7-11.7s11.7,5.2,11.7,11.7
		S45.2,47.9,38.8,47.9L38.8,47.9z"/>
	<path id="Path_699" class="st8" d="M39.7,33.6V29h-1.8v4.7c-0.8,0.3-1.4,0.9-1.6,1.6h-2.9v1.8h2.9c0.5,1.4,2,2.1,3.4,1.6
		c1.4-0.5,2.1-2,1.6-3.4C41,34.5,40.4,33.9,39.7,33.6L39.7,33.6z M38.8,37.1c-0.5,0-0.9-0.4-0.9-0.9c0-0.5,0.4-0.9,0.9-0.9
		c0.5,0,0.9,0.4,0.9,0.9C39.7,36.7,39.2,37.1,38.8,37.1L38.8,37.1z"/>
	<path id="Path_700" class="st8" d="M27.9,35.3h1.8v1.8h-1.8V35.3z"/>
	<path id="Path_701" class="st8" d="M37.8,45.2h1.8V47h-1.8V45.2z"/>
	<path id="Path_702" class="st8" d="M47.8,35.3h1.8v1.8h-1.8V35.3z"/>
	<path id="Path_703" class="st8" d="M37.8,25.3h1.8v1.8h-1.8V25.3z"/>
	<path id="Path_704" class="st8" d="M40.6,53.3H8.1c-1.5,0-2.7-1.2-2.7-2.7l0,0V5.5c0-1.5,1.2-2.7,2.7-2.7h25.2v8.1
		c0,0.5,0.4,0.9,0.9,0.9c0.2,0,0.5-0.1,0.6-0.3l2.1-2.1l2.1,2.1c0.4,0.4,0.9,0.4,1.3,0c0.2-0.2,0.3-0.4,0.3-0.6V2.8
		c1.5,0,2.7,1.2,2.7,2.7c0,0,0,0,0,0v16.2h1.8V5.5C45.1,3,43,1,40.6,1H8.1C5.6,1,3.6,3,3.6,5.5v45.1c0,2.5,2,4.5,4.5,4.5h32.5
		c2.5,0,4.5-2,4.5-4.5h-1.8C43.3,52.1,42.1,53.3,40.6,53.3C40.6,53.3,40.6,53.3,40.6,53.3z M38.8,8.7l-1.2-1.2
		c-0.4-0.3-0.9-0.3-1.3,0l-1.2,1.2V2.8h3.6V8.7z"/>
	<path id="Path_705" class="st8" d="M9,6.4h3.6v1.8H9V6.4z"/>
	<path id="Path_706" class="st8" d="M14.4,6.4h9v1.8h-9V6.4z"/>
	<path id="Path_707" class="st8" d="M9,10h14.4v1.8H9V10z"/>
	<path id="Path_708" class="st8" d="M9,17.2h23.4V19H9V17.2z"/>
	<path id="Path_709" class="st8" d="M34.2,17.2h5.4V19h-5.4V17.2z"/>
	<path id="Path_710" class="st8" d="M9,22.6h18v1.8H9V22.6z"/>
	<path id="Path_711" class="st8" d="M9,28.1h14.4v1.8H9V28.1z"/>
	<path id="Path_712" class="st8" d="M9,33.5h12.6v1.8H9V33.5z"/>
	<path id="Path_713" class="st8" d="M9,42.5h9v1.8H9V42.5z"/>
	<path id="Path_714" class="st8" d="M9,46.1h9v1.8H9V46.1z"/>
</g>
<g>
	<path id="Path_574" class="st9" d="M40.3,28.8c-6.2,0-11.3,5.1-11.3,11.3s5.1,11.3,11.3,11.3c6.2,0,11.3-5.1,11.3-11.3c0,0,0,0,0,0
		C51.6,33.9,46.6,28.8,40.3,28.8z M40.3,49.8c-5.4,0-9.7-4.3-9.7-9.7c0-5.4,4.3-9.7,9.7-9.7c5.4,0,9.7,4.3,9.7,9.7c0,0,0,0,0,0
		C50,45.5,45.7,49.8,40.3,49.8L40.3,49.8z"/>
	<path id="Path_575" class="st9" d="M40.3,33.6c0.4,0,0.8-0.4,0.8-0.8v-0.4c0-0.4-0.3-0.8-0.8-0.8c-0.4,0-0.8,0.3-0.8,0.8
		c0,0,0,0,0,0.1v0.4C39.5,33.3,39.9,33.6,40.3,33.6z"/>
	<path id="Path_576" class="st9" d="M45.2,34.1l-0.3,0.3c-0.3,0.3-0.3,0.8,0,1.1c0.3,0.3,0.8,0.3,1.1,0c0,0,0,0,0,0l0.3-0.3
		c0.3-0.3,0.3-0.8,0-1.1C46,33.9,45.5,33.9,45.2,34.1z"/>
	<path id="Path_577" class="st9" d="M48,39.3h-0.4c-0.4,0-0.8,0.3-0.8,0.8s0.3,0.8,0.8,0.8c0,0,0,0,0.1,0H48c0.4,0,0.8-0.3,0.8-0.8
		S48.5,39.3,48,39.3C48,39.3,48,39.3,48,39.3z"/>
	<path id="Path_578" class="st9" d="M33.1,39.3h-0.4c-0.4,0-0.8,0.3-0.8,0.8c0,0.4,0.3,0.8,0.8,0.8c0,0,0,0,0.1,0h0.4
		c0.4,0,0.8-0.3,0.8-0.8S33.6,39.3,33.1,39.3C33.1,39.3,33.1,39.3,33.1,39.3z"/>
	<path id="Path_579" class="st9" d="M46,44.7c-0.3-0.3-0.8-0.3-1.1,0c-0.3,0.3-0.3,0.8,0,1.1c0,0,0,0,0,0l0.3,0.3
		c0.3,0.3,0.8,0.3,1.1,0c0.3-0.3,0.3-0.8,0-1.1L46,44.7z"/>
	<path id="Path_580" class="st9" d="M40.3,46.6c-0.4,0-0.8,0.4-0.8,0.8v0.4c0,0.4,0.3,0.8,0.8,0.8s0.8-0.3,0.8-0.8c0,0,0,0,0-0.1
		v-0.4C41.1,46.9,40.8,46.6,40.3,46.6z"/>
	<path id="Path_581" class="st9" d="M34.6,44.7L34.4,45c-0.3,0.3-0.3,0.8,0,1.1c0.3,0.3,0.8,0.3,1.1,0c0,0,0,0,0,0l0.3-0.3
		c0.3-0.3,0.3-0.8,0-1.1C35.4,44.4,34.9,44.4,34.6,44.7z"/>
	<path id="Path_582" class="st9" d="M35.5,34.1c-0.3-0.3-0.8-0.3-1.1,0c-0.3,0.3-0.3,0.8,0,1.1l0.3,0.3c0.3,0.3,0.8,0.3,1.1,0
		c0.3-0.3,0.3-0.8,0-1.1L35.5,34.1z"/>
	<path id="Path_583" class="st9" d="M42.5,39.3h-1.4v-3.4c0-0.4-0.3-0.8-0.8-0.8s-0.8,0.3-0.8,0.8c0,0,0,0,0,0.1v4.2
		c0,0.4,0.4,0.8,0.8,0.8h2.2c0.4,0,0.8-0.4,0.8-0.8C43.3,39.7,42.9,39.3,42.5,39.3L42.5,39.3z"/>
	<path id="Path_584" class="st9" d="M52.2,31.1V17.7c0-1.2-1-2.3-2.3-2.3h-2.3v-2.2c0-1.2-1-2.3-2.3-2.3H3.3C2,11,1,12,1,13.3v21.6
		c0,1.2,1,2.3,2.3,2.3h2.3v2.2c0,1.2,1,2.3,2.3,2.3h5.1c0.4,0,0.8-0.4,0.8-0.8c0-0.4-0.3-0.8-0.8-0.8H7.8c-0.4,0-0.7-0.3-0.7-0.7
		v-2.2h18.6c-0.2,0.9-0.3,1.9-0.3,2.9h-9.4c-0.4,0-0.8,0.4-0.8,0.8c0,0.4,0.3,0.8,0.8,0.8h9.5c0.8,8.2,8.1,14.1,16.3,13.3
		c2.6-0.3,5.1-1.2,7.2-2.7c0.3-0.3,0.4-0.8,0.1-1.1c-0.3-0.3-0.7-0.4-1.1-0.2c-6,4.3-14.3,2.9-18.6-3c-4.3-6-2.9-14.3,3-18.6
		s14.3-2.9,18.6,3c3.6,5,3.3,11.9-0.8,16.6c-0.3,0.3-0.3,0.8,0,1.1c0.3,0.3,0.8,0.3,1.1,0c0,0,0,0,0.1-0.1
		C56.2,44.6,56.5,36.7,52.2,31.1L52.2,31.1z M28.3,31.3H14.1c-4,0-7.2-3.3-7.2-7.3c0-3.9,3.2-7.1,7.2-7.2h2.8c0.4,0,0.8-0.4,0.8-0.8
		c0-0.4-0.3-0.8-0.8-0.8h-2.8c-4.9,0-8.8,4-8.8,8.8s4,8.8,8.8,8.8h13.2c-0.5,0.8-0.9,1.7-1.1,2.6H3.3c-0.4,0-0.7-0.3-0.7-0.7V13.3
		c0-0.4,0.3-0.7,0.7-0.7h42.1c0.4,0,0.7,0.3,0.7,0.7v13.1c-0.9-0.4-1.8-0.7-2.8-0.8c0.8-4.8-2.5-9.3-7.3-10.1
		c-0.5-0.1-0.9-0.1-1.4-0.1H20.1c-0.4,0-0.8,0.4-0.8,0.8c0,0.4,0.3,0.8,0.8,0.8h14.5c4,0,7.2,3.2,7.2,7.2c0,0.4,0,0.8-0.1,1.2
		c-0.5,0-0.9-0.1-1.4-0.1C35.6,25.2,31.1,27.5,28.3,31.3L28.3,31.3z M47.6,27.1V17.1h2.3c0.4,0,0.7,0.3,0.7,0.7v11.6
		C49.7,28.5,48.7,27.7,47.6,27.1z"/>
	<path id="Path_586" class="st9" d="M35.7,23.3h-4.6c-0.4,0-0.8,0.4-0.8,0.8c0,0.4,0.3,0.8,0.8,0.8h4.6c0.4,0,0.8-0.4,0.8-0.8
		C36.5,23.7,36.1,23.3,35.7,23.3z"/>
	<path id="Path_587" class="st9" d="M17.5,23.3h-4.6c-0.4,0-0.8,0.3-0.8,0.8c0,0.4,0.3,0.8,0.8,0.8c0,0,0,0,0.1,0h4.6
		c0.4,0,0.8-0.4,0.8-0.8C18.2,23.7,17.9,23.3,17.5,23.3z"/>
	<path id="Path_588" class="st9" d="M26.6,23.3H22c-0.4,0-0.8,0.3-0.8,0.8c0,0.4,0.3,0.8,0.8,0.8c0,0,0,0,0.1,0h4.6
		c0.4,0,0.8-0.4,0.8-0.8C27.3,23.7,27,23.3,26.6,23.3z"/>
</g>
</svg>
