<svg id="Layer_1" data-name="Layer 1" xmlns="http://www.w3.org/2000/svg" viewBox="0 0 48.44 53.82"><defs><style>.cls-1{fill:#ff5622;}</style></defs><path id="Path_698" data-name="Path 698" class="cls-1" d="M39.54,22.71A13.46,13.46,0,1,0,53,36.16h0A13.45,13.45,0,0,0,39.54,22.71Zm0,25.11A11.66,11.66,0,1,1,51.21,36.16,11.66,11.66,0,0,1,39.54,47.82Z" transform="translate(-4.56 -1.18)"/><path id="Path_699" data-name="Path 699" class="cls-1" d="M40.44,33.64V29H38.65v4.65A2.69,2.69,0,0,0,37,35.27H34.16v1.79H37a2.68,2.68,0,1,0,3.42-3.43Zm-.9,3.42a.9.9,0,1,1,.9-.9.89.89,0,0,1-.9.9Z" transform="translate(-4.56 -1.18)"/><path id="Path_700" data-name="Path 700" class="cls-1" d="M28.78,35.27h1.79v1.79H28.78Z" transform="translate(-4.56 -1.18)"/><path id="Path_701" data-name="Path 701" class="cls-1" d="M38.65,45.13h1.79v1.8H38.65Z" transform="translate(-4.56 -1.18)"/><path id="Path_702" data-name="Path 702" class="cls-1" d="M48.51,35.27h1.8v1.79h-1.8Z" transform="translate(-4.56 -1.18)"/><path id="Path_703" data-name="Path 703" class="cls-1" d="M38.65,25.4h1.79v1.79H38.65Z" transform="translate(-4.56 -1.18)"/><path id="Path_704" data-name="Path 704" class="cls-1" d="M41.34,53.21H9.05a2.7,2.7,0,0,1-2.7-2.69h0V5.66A2.7,2.7,0,0,1,9.05,3H34.16V11a.9.9,0,0,0,.9.9.88.88,0,0,0,.63-.26l2.06-2.06,2.06,2.06a.9.9,0,0,0,1.27,0,.94.94,0,0,0,.26-.63V3A2.68,2.68,0,0,1,44,5.66h0V21.81h1.8V5.66a4.49,4.49,0,0,0-4.49-4.48H9.05A4.49,4.49,0,0,0,4.56,5.66V50.52A4.49,4.49,0,0,0,9.05,55H41.34a4.49,4.49,0,0,0,4.48-4.48H44a2.69,2.69,0,0,1-2.69,2.69ZM39.54,8.88,38.38,7.72a.89.89,0,0,0-1.26,0L36,8.88V3h3.58Z" transform="translate(-4.56 -1.18)"/><path id="Path_705" data-name="Path 705" class="cls-1" d="M9.94,6.56h3.59v1.8H9.94Z" transform="translate(-4.56 -1.18)"/><path id="Path_706" data-name="Path 706" class="cls-1" d="M15.32,6.56h9v1.8h-9Z" transform="translate(-4.56 -1.18)"/><path id="Path_707" data-name="Path 707" class="cls-1" d="M9.94,10.15H24.29v1.79H9.94Z" transform="translate(-4.56 -1.18)"/><path id="Path_708" data-name="Path 708" class="cls-1" d="M9.94,17.32H33.27v1.8H9.94Z" transform="translate(-4.56 -1.18)"/><path id="Path_709" data-name="Path 709" class="cls-1" d="M35.06,17.32h5.38v1.8H35.06Z" transform="translate(-4.56 -1.18)"/><path id="Path_710" data-name="Path 710" class="cls-1" d="M9.94,22.71H27.88V24.5H9.94Z" transform="translate(-4.56 -1.18)"/><path id="Path_711" data-name="Path 711" class="cls-1" d="M9.94,28.09H24.29v1.79H9.94Z" transform="translate(-4.56 -1.18)"/><path id="Path_712" data-name="Path 712" class="cls-1" d="M9.94,33.47H22.5v1.8H9.94Z" transform="translate(-4.56 -1.18)"/><path id="Path_713" data-name="Path 713" class="cls-1" d="M9.94,42.44h9v1.8h-9Z" transform="translate(-4.56 -1.18)"/><path id="Path_714" data-name="Path 714" class="cls-1" d="M9.94,46h9v1.79h-9Z" transform="translate(-4.56 -1.18)"/></svg>