<svg id="Layer_1" data-name="Layer 1" xmlns="http://www.w3.org/2000/svg" viewBox="0 0 54.22 43.97"><defs><style>.cls-1{fill:#ff5622;}</style></defs><path id="Path_574" data-name="Path 574" class="cls-1" d="M40.33,28.81a11.31,11.31,0,1,0,11.31,11.3h0A11.32,11.32,0,0,0,40.33,28.81Zm0,21a9.72,9.72,0,1,1,9.72-9.72h0a9.74,9.74,0,0,1-9.72,9.72Z" transform="translate(-1 -11.03)"/><path id="Path_575" data-name="Path 575" class="cls-1" d="M40.33,33.63a.8.8,0,0,0,.8-.8v-.36a.8.8,0,0,0-1.59,0v.41A.8.8,0,0,0,40.33,33.63Z" transform="translate(-1 -11.03)"/><path id="Path_576" data-name="Path 576" class="cls-1" d="M45.18,34.15l-.26.25a.8.8,0,0,0,0,1.13.79.79,0,0,0,1.12,0l0,0,.26-.26a.79.79,0,0,0,0-1.12A.78.78,0,0,0,45.18,34.15Z" transform="translate(-1 -11.03)"/><path id="Path_577" data-name="Path 577" class="cls-1" d="M48,39.32h-.36a.79.79,0,1,0,0,1.58H48A.79.79,0,1,0,48,39.32Z" transform="translate(-1 -11.03)"/><path id="Path_578" data-name="Path 578" class="cls-1" d="M33.06,39.32H32.7a.79.79,0,0,0-.06,1.58h.42a.79.79,0,0,0,.82-.76.79.79,0,0,0-.77-.82Z" transform="translate(-1 -11.03)"/><path id="Path_579" data-name="Path 579" class="cls-1" d="M46,44.69a.79.79,0,0,0-1.12,0,.8.8,0,0,0,0,1.13l0,0,.26.25a.79.79,0,0,0,1.12,0,.8.8,0,0,0,0-1.08Z" transform="translate(-1 -11.03)"/><path id="Path_580" data-name="Path 580" class="cls-1" d="M40.33,46.59a.8.8,0,0,0-.79.8v.36a.8.8,0,1,0,1.59,0v-.41A.8.8,0,0,0,40.33,46.59Z" transform="translate(-1 -11.03)"/><path id="Path_581" data-name="Path 581" class="cls-1" d="M34.63,44.69l-.26.26a.8.8,0,0,0,0,1.13.81.81,0,0,0,1.13,0l0,0,.26-.26a.81.81,0,0,0,0-1.13A.8.8,0,0,0,34.63,44.69Z" transform="translate(-1 -11.03)"/><path id="Path_582" data-name="Path 582" class="cls-1" d="M35.49,34.15a.79.79,0,0,0-1.12,0,.8.8,0,0,0,0,1.1l.26.26a.79.79,0,0,0,1.12,0,.8.8,0,0,0,0-1.1Z" transform="translate(-1 -11.03)"/><path id="Path_583" data-name="Path 583" class="cls-1" d="M42.5,39.32H41.13v-3.4a.79.79,0,0,0-.77-.82.8.8,0,0,0-.82.77v4.24a.8.8,0,0,0,.8.8H42.5a.81.81,0,0,0,.77-.83.8.8,0,0,0-.77-.76Z" transform="translate(-1 -11.03)"/><path id="Path_584" data-name="Path 584" class="cls-1" d="M52.16,31.08V17.73a2.25,2.25,0,0,0-2.25-2.25H47.62v-2.2A2.25,2.25,0,0,0,45.37,11H3.25A2.25,2.25,0,0,0,1,13.28V34.91a2.25,2.25,0,0,0,2.25,2.25H5.54v2.2a2.25,2.25,0,0,0,2.25,2.25h5.1a.8.8,0,0,0,0-1.59H7.79a.67.67,0,0,1-.66-.66v-2.2H25.74A14.45,14.45,0,0,0,25.45,40H16.06a.8.8,0,0,0,0,1.59h9.46A14.89,14.89,0,0,0,49,52.19a.79.79,0,0,0,.14-1.11.8.8,0,0,0-1.07-.18,13.25,13.25,0,1,1,2.23-2A.79.79,0,1,0,51.45,50l.07-.07a14.88,14.88,0,0,0,.64-18.86Zm-23.84.26H14.06a7.25,7.25,0,0,1,0-14.49H16.9a.79.79,0,0,0,0-1.58H14.06a8.83,8.83,0,1,0,0,17.65H27.3a15.13,15.13,0,0,0-1.14,2.65H3.25a.67.67,0,0,1-.66-.66V13.28a.67.67,0,0,1,.66-.66H45.37a.67.67,0,0,1,.66.66V26.36a14.89,14.89,0,0,0-2.76-.84A8.84,8.84,0,0,0,36,15.38a8.53,8.53,0,0,0-1.43-.11H20.08a.79.79,0,0,0,0,1.58H34.55a7.26,7.26,0,0,1,7.25,7.24,8.09,8.09,0,0,1-.1,1.2c-.45,0-.9-.07-1.37-.07a14.9,14.9,0,0,0-12,6.12Zm19.3-4.21V17.07h2.29a.66.66,0,0,1,.66.66V29.32A15.05,15.05,0,0,0,47.62,27.13Z" transform="translate(-1 -11.03)"/><path id="Path_586" data-name="Path 586" class="cls-1" d="M35.73,23.3H31.14a.8.8,0,0,0,0,1.59h4.59a.79.79,0,0,0,.77-.82A.8.8,0,0,0,35.73,23.3Z" transform="translate(-1 -11.03)"/><path id="Path_587" data-name="Path 587" class="cls-1" d="M17.47,23.3H12.89a.79.79,0,0,0-.82.77.79.79,0,0,0,.76.82h4.64a.79.79,0,0,0,.77-.82A.8.8,0,0,0,17.47,23.3Z" transform="translate(-1 -11.03)"/><path id="Path_588" data-name="Path 588" class="cls-1" d="M26.59,23.3H22a.79.79,0,0,0-.82.77.78.78,0,0,0,.76.82h4.64a.79.79,0,0,0,.77-.82A.8.8,0,0,0,26.59,23.3Z" transform="translate(-1 -11.03)"/></svg>