<svg id="Layer_1" data-name="Layer 1" xmlns="http://www.w3.org/2000/svg" viewBox="0 0 50.87 47.53"><defs><style>.cls-1,.cls-2{fill:none;stroke:#bf900f;stroke-width:2px;}.cls-1{stroke-linecap:round;stroke-linejoin:round;}.cls-2{stroke-miterlimit:10;}</style></defs><g id="Group_317" data-name="Group 317"><path id="Path_613" data-name="Path 613" class="cls-1" d="M17.37,15.4h-10A3.27,3.27,0,0,0,4,18.62v.12" transform="translate(-3.04 -5.52)"/><path id="Path_614" data-name="Path 614" class="cls-1" d="M45.13,22.07V15.4h-10" transform="translate(-3.04 -5.52)"/><path id="Path_615" data-name="Path 615" class="cls-1" d="M41.8,22.07,26.25,6.52,10.7,22.07" transform="translate(-3.04 -5.52)"/><path id="Path_616" data-name="Path 616" class="cls-1" d="M34,22.07l-5.41-5.44q-2.36,2.36-4.71,0l-5.43,5.43" transform="translate(-3.04 -5.52)"/><path id="Path_617" data-name="Path 617" class="cls-1" d="M50.68,43.17v8.88H7.37A3.27,3.27,0,0,1,4,48.83V18.74a3.28,3.28,0,0,0,3.22,3.33H50.68v7.77" transform="translate(-3.04 -5.52)"/><path id="Path_618" data-name="Path 618" class="cls-1" d="M37.36,32.06a5.56,5.56,0,1,0,0,11.11H49.57a3.33,3.33,0,0,0,3.33-3.33h0V31a1.11,1.11,0,0,0-1.11-1.11H50.68a2.4,2.4,0,0,1-2.22,2.22H37.36" transform="translate(-3.04 -5.52)"/><line id="Line_6" data-name="Line 6" class="cls-2" x1="33.88" y1="31.93" x2="35.88" y2="31.93"/></g></svg>