<svg id="Layer_1" data-name="Layer 1" xmlns="http://www.w3.org/2000/svg" viewBox="0 0 52.86 34"><defs><style>.cls-1{fill:none;stroke:#4bc62e;stroke-miterlimit:10;stroke-width:2px;}</style></defs><g id="Group_318" data-name="Group 318"><path id="Path_619" data-name="Path 619" class="cls-1" d="M1.14,32.55H4.45S6.94,35.86,10,35.86h4.41" transform="translate(-1.14 -15)"/><path id="Path_620" data-name="Path 620" class="cls-1" d="M27.62,23.73l-4.41-5.52C21.78,16.65,21,16,18.8,16H1.14" transform="translate(-1.14 -15)"/><path id="Path_621" data-name="Path 621" class="cls-1" d="M15.49,20.42l8.82,8.82c2,2-3,5.2-6,2.77l-2.77-2.77H12.18a4.1,4.1,0,0,1-4.42-3.77c0-.22,0-.43,0-.64" transform="translate(-1.14 -15)"/><path id="Path_622" data-name="Path 622" class="cls-1" d="M18.8,23.73H53V48H14.38V29.24" transform="translate(-1.14 -15)"/><path id="Path_623" data-name="Path 623" class="cls-1" d="M18.8,43.59" transform="translate(-1.14 -15)"/><path id="Path_624" data-name="Path 624" class="cls-1" d="M18.8,34.76v5.52a3.31,3.31,0,0,1,3.31,3.31H45.28a3.31,3.31,0,0,1,3.3-3.31h0V31.45a3.31,3.31,0,0,1-3.31-3.31H26.52" transform="translate(-1.14 -15)"/><line id="Line_7" data-name="Line 7" class="cls-1" x1="22.62" y1="21.22" x2="25.21" y2="21.22"/><line id="Line_8" data-name="Line 8" class="cls-1" x1="40.71" y1="21.22" x2="43.29" y2="21.22"/><ellipse id="Ellipse_2" data-name="Ellipse 2" class="cls-1" cx="32.96" cy="20.79" rx="4.31" ry="4.74"/></g></svg>