<svg id="Layer_1" data-name="Layer 1" xmlns="http://www.w3.org/2000/svg" viewBox="0 0 52.99 32.49"><defs><style>.cls-1{fill:#3f97e3;}</style></defs><g id="Group_316" data-name="Group 316"><g id="Group_298" data-name="Group 298"><path id="Path_601" data-name="Path 601" class="cls-1" d="M11.71,54H3v-.82a3.52,3.52,0,0,1,2.46-3.36l3.75-1.18a2.08,2.08,0,0,0,1.44-1.78l.17-1.75L10.59,45c-1.71-1.36-2.81-4.23-2.81-7.31a4.91,4.91,0,0,1,4.81-4.89,4.84,4.84,0,0,1,3.48,1.43,5,5,0,0,1,1.48,3.64c0,3-1.14,5.8-2.81,7.13l-.21.17.11,1.19a8.19,8.19,0,0,1,.93-.65v-.11c1.8-1.58,2.94-4.5,3-7.72a6.05,6.05,0,0,0-1.77-4.35,5.75,5.75,0,0,0-4.2-1.71,5.9,5.9,0,0,0-5.78,5.87c0,3.3,1.14,6.3,3,7.91l-.12,1.23a1.08,1.08,0,0,1-.76.93L5.15,48.89A4.49,4.49,0,0,0,2,53.19v1.6l.43.2h9.28Z" transform="translate(-2 -22.51)"/><path id="Path_602" data-name="Path 602" class="cls-1" d="M55,52.39a4.59,4.59,0,0,0-3.14-3.6L48,47.59a1.12,1.12,0,0,1-.78-1l-.13-1.26c1.84-1.6,3-4.58,3-7.86a6.16,6.16,0,0,0-1.8-4.43,5.86,5.86,0,0,0-4.27-1.74,6,6,0,0,0-5.89,6c0,3.36,1.16,6.41,3,8l0,.17a7.52,7.52,0,0,1,.93.62l.12-1.22-.21-.16c-1.74-1.39-2.87-4.32-2.87-7.46a5,5,0,0,1,4.91-5,4.9,4.9,0,0,1,3.56,1.46,5.15,5.15,0,0,1,1.51,3.71c0,3.07-1.16,5.93-2.87,7.29l-.21.16.18,1.79a2.08,2.08,0,0,0,1.46,1.8l3.81,1.21A3.57,3.57,0,0,1,54,52.52V54H45.29v1h9.29l.41-.2v-2.4Z" transform="translate(-2 -22.51)"/></g><path id="Path_603" data-name="Path 603" class="cls-1" d="M42.76,55H14.16l-.48-.23v-3a6.22,6.22,0,0,1,4.25-5l5.29-1.68a1.74,1.74,0,0,0,1.22-1.49l.18-1.84c-2.61-2.23-4.23-6.45-4.23-11.1a8.13,8.13,0,0,1,8-8.1,7.89,7.89,0,0,1,5.78,2.36,8.37,8.37,0,0,1,2.45,6c-.06,4.54-1.67,8.66-4.22,10.84l.18,1.84a1.73,1.73,0,0,0,1.21,1.49l5.29,1.67a6.23,6.23,0,0,1,4.25,5v3ZM14.67,54H42.33V51.84a5.2,5.2,0,0,0-3.56-4.17L33.47,46a2.7,2.7,0,0,1-1.89-2.33l-.24-2.37.21-.17c2.41-1.92,4-5.94,4.06-10.25a7.37,7.37,0,0,0-2.15-5.29,7,7,0,0,0-5.07-2.07,7.14,7.14,0,0,0-7,7.11c0,4.42,1.6,8.54,4.06,10.5l.21.17-.23,2.37A2.73,2.73,0,0,1,23.52,46l-5.29,1.67a5.2,5.2,0,0,0-3.56,4.17Z" transform="translate(-2 -22.51)"/></g></svg>