<?xml version="1.0" encoding="utf-8"?>
<!-- Generator: Adobe Illustrator 25.4.1, SVG Export Plug-In . SVG Version: 6.00 Build 0)  -->
<svg version="1.1" id="Layer_1" xmlns="http://www.w3.org/2000/svg" xmlns:xlink="http://www.w3.org/1999/xlink" x="0px" y="0px"
	 viewBox="0 0 56 56" style="enable-background:new 0 0 56 56;" xml:space="preserve">
<style type="text/css">
	.st0{display:none;}
	.st1{display:inline;}
	.st2{fill:#3F97E3;}
	.st3{display:inline;fill:#3F97E3;}
	.st4{display:inline;fill:none;stroke:#BF900F;stroke-width:2;stroke-linecap:round;stroke-linejoin:round;}
	.st5{display:inline;fill:none;stroke:#BF900F;stroke-width:2;stroke-miterlimit:10;}
	.st6{display:inline;fill:none;stroke:#4BC62E;stroke-width:2;stroke-miterlimit:10;}
	.st7{fill:#5A36CC;}
</style>
<g id="Group_316" transform="translate(0)" class="st0">
	<g id="Group_298" transform="translate(0 12.224)" class="st1">
		<path id="Path_601" class="st2" d="M11.7,41.8H3V41c0-1.5,1-2.9,2.5-3.4l3.7-1.2c0.8-0.2,1.4-0.9,1.4-1.8l0.2-1.8l-0.2-0.2
			c-1.7-1.4-2.8-4.2-2.8-7.3c0-2.7,2.1-4.8,4.8-4.9c1.3,0,2.6,0.5,3.5,1.4c1,1,1.5,2.3,1.5,3.6c0,3-1.1,5.8-2.8,7.1l-0.2,0.2
			l0.1,1.2c0.3-0.2,0.6-0.5,0.9-0.7l0-0.1c1.8-1.6,2.9-4.5,3-7.7c0-1.6-0.6-3.2-1.8-4.4c-1.1-1.1-2.6-1.7-4.2-1.7
			c-3.2,0.1-5.8,2.7-5.8,5.9c0,3.3,1.1,6.3,3,7.9l-0.1,1.2c0,0.4-0.3,0.8-0.8,0.9l-3.7,1.2C3.3,37.3,2,39,2,41v1.6l0.4,0.2h9.3
			L11.7,41.8z"/>
		<path id="Path_602" class="st2" d="M55,40.2c-0.3-1.7-1.5-3.1-3.1-3.6L48,35.4c-0.4-0.1-0.7-0.5-0.8-1l-0.1-1.3
			c1.8-1.6,3-4.6,3-7.9c0-1.7-0.6-3.3-1.8-4.4c-1.1-1.1-2.7-1.8-4.3-1.7c-3.3,0.1-5.9,2.7-5.9,6c0,3.4,1.2,6.4,3,8.1l0,0.2
			c0.3,0.2,0.6,0.4,0.9,0.6l0.1-1.2l-0.2-0.2c-1.7-1.4-2.9-4.3-2.9-7.5c0-2.7,2.2-4.9,4.9-5c1.3,0,2.6,0.5,3.6,1.5
			c1,1,1.5,2.3,1.5,3.7c0,3.1-1.2,5.9-2.9,7.3l-0.2,0.2l0.2,1.8c0.1,0.8,0.7,1.6,1.5,1.8l3.8,1.2c1.3,0.4,2.2,1.5,2.5,2.8v1.5h-8.7
			v1h9.2l0.1,0l0.4-0.2L55,40.2L55,40.2z"/>
	</g>
	<path id="Path_603" class="st3" d="M42.8,55H14.2l-0.5-0.2l0-3c0.3-2.3,2-4.3,4.2-5l5.3-1.7c0.7-0.2,1.1-0.8,1.2-1.5l0.2-1.8
		c-2.6-2.2-4.2-6.4-4.2-11.1c0-4.4,3.6-8,8-8.1c2.2,0,4.3,0.8,5.8,2.4c1.6,1.6,2.5,3.8,2.4,6c-0.1,4.5-1.7,8.7-4.2,10.8l0.2,1.8
		c0.1,0.7,0.5,1.3,1.2,1.5l5.3,1.7c2.3,0.7,3.9,2.7,4.2,5l0,0.1v2.9L42.8,55z M14.7,54h27.7v-2.2c-0.3-2-1.7-3.6-3.6-4.2L33.5,46
		c-1-0.3-1.8-1.2-1.9-2.3l-0.2-2.4l0.2-0.2c2.4-1.9,4-5.9,4.1-10.2c0-2-0.8-3.9-2.2-5.3c-1.3-1.4-3.2-2.1-5.1-2.1
		c-3.9,0.1-7,3.2-7,7.1c0,4.4,1.6,8.5,4.1,10.5l0.2,0.2l-0.2,2.4c-0.1,1.1-0.9,2-1.9,2.3l-5.3,1.7c-1.9,0.6-3.3,2.2-3.6,4.2L14.7,54
		z"/>
</g>
<g id="Group_317" transform="translate(1 1)" class="st0">
	<path id="Path_613" class="st4" d="M16.4,14.4h-10c-1.8,0-3.3,1.4-3.3,3.2c0,0,0,0.1,0,0.1"/>
	<path id="Path_614" class="st4" d="M44.1,21.1v-6.7h-10"/>
	<path id="Path_615" class="st4" d="M40.8,21.1L25.3,5.5L9.7,21.1"/>
	<path id="Path_616" class="st4" d="M33,21.1l-5.4-5.4c-1.6,1.6-3.1,1.6-4.7,0l-5.4,5.4"/>
	<path id="Path_617" class="st4" d="M49.7,42.2v8.9H6.4c-1.8,0-3.3-1.4-3.3-3.2c0,0,0-0.1,0-0.1v-30c0,1.8,1.4,3.3,3.2,3.3
		c0,0,0.1,0,0.1,0h43.3v7.8"/>
	<path id="Path_618" class="st4" d="M36.4,31.1c-3.1,0-5.6,2.5-5.6,5.6c0,3.1,2.5,5.6,5.6,5.6h12.2c1.8,0,3.3-1.5,3.3-3.3
		c0,0,0,0,0,0V30c0-0.6-0.5-1.1-1.1-1.1h-1.1c-0.1,1.2-1,2.1-2.2,2.2H36.4"/>
	<line id="Line_6" class="st5" x1="35.9" y1="36.4" x2="37.9" y2="36.4"/>
</g>
<g id="Group_318" transform="translate(0 1)" class="st0">
	<path id="Path_619" class="st6" d="M1.1,31.6h3.3c0,0,2.5,3.3,5.5,3.3h4.4"/>
	<path id="Path_620" class="st6" d="M27.6,22.7l-4.4-5.5C21.8,15.6,21,15,18.8,15H1.1"/>
	<path id="Path_621" class="st6" d="M15.5,19.4l8.8,8.8c2,2-3,5.2-6.1,2.8l-2.8-2.8h-3.3c-2.3,0.2-4.2-1.5-4.4-3.8
		c0-0.2,0-0.4,0-0.6"/>
	<path id="Path_622" class="st6" d="M18.8,22.7H53V47H14.4V28.2"/>
	<path id="Path_623" class="st6" d="M18.8,42.6"/>
	<path id="Path_624" class="st6" d="M18.8,33.8v5.5c1.8,0,3.3,1.5,3.3,3.3h23.2c0-1.8,1.5-3.3,3.3-3.3c0,0,0,0,0,0v-8.8
		c-1.8,0-3.3-1.5-3.3-3.3c0,0,0,0,0,0H26.5"/>
	<line id="Line_7" class="st6" x1="23.8" y1="35.2" x2="26.3" y2="35.2"/>
	<line id="Line_8" class="st6" x1="41.8" y1="35.2" x2="44.4" y2="35.2"/>
	<ellipse id="Ellipse_2" class="st6" cx="34.1" cy="34.8" rx="4.3" ry="4.7"/>
</g>
<g>
	<g id="Group_309" transform="translate(15.887 39.921)">
		<g id="Group_308">
			<path id="Path_609" class="st7" d="M2.9,2.7c0-0.1,0-0.1-0.1-0.2c0-0.1-0.1-0.1-0.1-0.2C2.7,2.2,2.6,2.1,2.5,2
				C2.4,2,2.4,1.9,2.3,1.9c-0.1,0-0.1,0-0.2-0.1c-0.1,0-0.3,0-0.4,0c-0.1,0-0.1,0-0.2,0.1C1.4,1.9,1.4,2,1.3,2
				C1.1,2.1,1,2.3,0.9,2.5c0,0.1,0,0.1-0.1,0.2c0,0.1,0,0.3,0,0.4c0,0.1,0,0.1,0.1,0.2C1,3.4,1,3.4,1,3.5c0.1,0.1,0.2,0.2,0.3,0.3
				c0.1,0,0.1,0.1,0.2,0.1c0.1,0,0.1,0,0.2,0.1c0.1,0,0.3,0,0.4,0c0.1,0,0.1,0,0.2-0.1c0.1,0,0.1-0.1,0.2-0.1
				c0.1-0.1,0.2-0.2,0.3-0.3c0-0.1,0.1-0.1,0.1-0.2c0-0.1,0-0.1,0.1-0.2C3,3,3,2.8,2.9,2.7L2.9,2.7z"/>
		</g>
	</g>
	<g id="Group_311" transform="translate(0 32.231)">
		<g id="Group_310">
			<path id="Path_610" class="st7" d="M48.7,10.7L48.7,10.7c-1-2.3-3.2-3.1-5.9-2.2l-7.2,2c-0.5-1.4-1.6-2.4-2.9-2.9l0,0l-8-2.7
				c-1.6-2-4.1-3.1-6.6-3c-2.7,0-5.1,1.9-6.5,3.9H1.9c-0.6,0-1,0.5-1,1c0,0,0,0,0,0v13.1c0,0.6,0.5,1,1,1c0,0,0,0,0,0h6.2
				c0.6,0,1-0.5,1-1l0,0V19H12c0.6,0,1-0.5,1-1l0,0v-0.3c1.4,0.1,2.7,0.6,3.8,1.4c2,1.2,4.1,2.2,6.2,3.2l0,0
				c1.1,0.4,2.2,0.6,3.3,0.6c1.2,0,2.4-0.2,3.4-0.7l16-5.7c0,0,0.1,0,0.1,0C47.6,15.7,49.9,13.7,48.7,10.7z M7.1,18.9H2.9v-11H7
				L7.1,18.9z M11,16.9H9.1V7.8H11L11,16.9z M45.2,14.4l-16,5.7l0,0l0,0c-1.6,0.7-3.5,0.7-5.2,0.1c-2.1-0.9-4.1-1.9-6-3.1
				c-1.4-1-3.1-1.6-4.8-1.6V7.2c1-1.6,2.9-3.3,5-3.3c2-0.1,3.9,0.8,5.1,2.4c0.1,0.2,0.3,0.4,0.6,0.4l8.3,2.8c1.2,0.3,2,1.5,1.7,2.8
				c-0.3,1.1-1.4,1.7-2.5,1.4l-9.3-3c-0.5-0.2-1.1,0.1-1.3,0.7c-0.2,0.5,0.1,1.1,0.7,1.3l9.3,3l0,0c1,0.3,2.2,0.2,3.1-0.4
				c1-0.5,1.7-1.4,2-2.5c0-0.1,0-0.2,0.1-0.3l7.8-2.2c1.1-0.4,2.6-0.5,3.3,1C47.5,13.2,45.7,14.2,45.2,14.4z"/>
		</g>
	</g>
	<g id="Group_313" transform="translate(35.284 12.842)">
		<g id="Group_312">
			<path id="Path_611" class="st7" d="M2.9,2.7c0-0.1,0-0.1-0.1-0.2C2.8,2.3,2.7,2.1,2.5,2C2.4,2,2.4,1.9,2.3,1.9
				C2.1,1.8,1.9,1.8,1.7,1.9c-0.1,0-0.1,0-0.2,0.1C1.4,1.9,1.4,2,1.3,2C1.2,2.1,1.1,2.2,1,2.3C1,2.4,1,2.4,0.9,2.5
				c0,0.1,0,0.1-0.1,0.2c0,0.1,0,0.3,0,0.4c0,0.1,0,0.1,0.1,0.2C1,3.3,1,3.4,1,3.5c0.1,0.1,0.2,0.2,0.3,0.3c0.1,0,0.1,0.1,0.2,0.1
				c0.1,0,0.1,0,0.2,0.1c0.1,0,0.1,0,0.2,0c0.1,0,0.1,0,0.2,0c0.1,0,0.1,0,0.2-0.1c0.1,0,0.1-0.1,0.2-0.1c0.1-0.1,0.2-0.2,0.3-0.3
				c0-0.1,0.1-0.1,0.1-0.2c0-0.1,0-0.1,0.1-0.2C3,3,3,2.8,2.9,2.7L2.9,2.7z"/>
		</g>
	</g>
	<g id="Group_315" transform="translate(3.088 0)">
		<g id="Group_314">
			<path id="Path_612" class="st7" d="M50,5.4h-6.2c-0.6,0-1,0.5-1,1c0,0,0,0,0,0v0.9h-2.9c-0.6,0-1,0.5-1,1c0,0,0,0,0,0v0.3
				c-1.4-0.1-2.7-0.6-3.8-1.4c-2-1.2-4.1-2.2-6.2-3.2l0,0c-2.2-0.9-4.6-0.8-6.8,0.1l-4.2,1.5l-3.5-3.5c-0.4-0.4-1.1-0.4-1.5,0
				c0,0,0,0,0,0L1.2,13.7c-0.4,0.4-0.4,1.1,0,1.5c0,0,0,0,0,0L21,35c0.4,0.4,1,0.4,1.5,0L33,24.4c0.3,0,0.6,0,0.9,0
				c2.7,0,5.1-1.9,6.5-3.9H50c0.6,0,1-0.5,1-1V6.4C51,5.8,50.6,5.4,50,5.4C50,5.4,50,5.4,50,5.4z M13.5,4.4l2.4,2.4
				c-1.5,0.9-3.3,0.9-4.7,0L13.5,4.4z M5.7,16.8l-2.4-2.4l2.4-2.4C6.6,13.6,6.6,15.4,5.7,16.8z M21.7,32.8l-2.4-2.4
				c1.5-0.9,3.3-0.9,4.7,0L21.7,32.8z M25.6,28.9c-2.3-1.7-5.4-1.7-7.7,0L7.3,18.3c1.7-2.3,1.7-5.4,0-7.7l2.4-2.4
				c2.3,1.7,5.4,1.7,7.7,0l2.2,2.2c-1.3,0.2-2.5,1-3.1,2.3c-3.2,0.6-5.3,3.7-4.7,6.9c0.6,3.2,3.7,5.3,6.9,4.7
				c2.3-0.4,4.1-2.1,4.6-4.3l3.5,1.2c-0.4,1.8,0,3.7,1.1,5.3L25.6,28.9z M19.2,18.7L19.2,18.7l2.1,0.7c-0.5,2.1-2.5,3.4-4.6,2.9
				c-2.1-0.5-3.4-2.5-2.9-4.6c0.3-1.2,1.1-2.2,2.3-2.7C16.4,16.7,17.6,18.2,19.2,18.7z M29.4,25c-0.4-0.7-0.6-1.4-0.7-2.2
				c0.6,0.4,1.2,0.7,1.8,1L29.4,25z M38.8,19.1c-1,1.6-2.9,3.3-5,3.3c-0.4,0-0.7,0-1.1-0.1l0,0c-1.5-0.2-2.9-0.9-3.9-2.1
				c0,0-0.1-0.1-0.1-0.2c-0.1-0.2-0.3-0.4-0.6-0.5L20,16.7c-1.2-0.3-2-1.5-1.7-2.8l0,0c0.3-1.1,1.4-1.7,2.5-1.4l9.3,3
				c0.5,0.2,1.1-0.1,1.3-0.7s-0.1-1.1-0.7-1.3l0,0l-7.4-2.3l-0.1-0.1l0,0l-3.8-3.8l3.3-1.2l0,0h0l0,0c1.6-0.7,3.5-0.7,5.2-0.1
				C30,6.9,32,7.9,34,9.1c1.4,1,3.1,1.6,4.8,1.6L38.8,19.1z M42.8,18.5h-1.9V9.4h1.9L42.8,18.5z M49,18.5h-4.1v-11H49V18.5z"/>
		</g>
	</g>
</g>
</svg>
