<svg id="Layer_1" data-name="Layer 1" xmlns="http://www.w3.org/2000/svg" viewBox="0 0 43.02 47.98"><defs><style>.cls-1{fill:none;stroke:#4050b5;stroke-linecap:round;stroke-linejoin:round;stroke-width:1.98px;}</style></defs><g id="Group_286" data-name="Group 286"><path id="Path_566" data-name="Path 566" class="cls-1" d="M30.51,9.59a8.06,8.06,0,0,1,.08,1.2,8.77,8.77,0,1,1-2.83-6.47" transform="translate(-4.01 -1.01)"/><path id="Path_567" data-name="Path 567" class="cls-1" d="M17.7,10.15l4.21,4.21,7.67-7.68" transform="translate(-4.01 -1.01)"/><line id="Line_25" data-name="Line 25" class="cls-1" x1="7" y1="30.58" x2="24.58" y2="30.58"/><line id="Line_26" data-name="Line 26" class="cls-1" x1="7" y1="34.26" x2="20.96" y2="34.26"/><line id="Line_27" data-name="Line 27" class="cls-1" x1="7" y1="37.95" x2="12.17" y2="37.95"/><path id="Path_568" data-name="Path 568" class="cls-1" d="M31.08,42.63,45.54,28.17a1.06,1.06,0,0,0,0-1.48l-3.46-3.46a1,1,0,0,0-1.48,0L26.21,37.62a5.86,5.86,0,0,0-1.67,3.48l-.4,3.68,3.63-.51A5.77,5.77,0,0,0,31.08,42.63Z" transform="translate(-4.01 -1.01)"/><line id="Line_28" data-name="Line 28" class="cls-1" x1="22.32" y1="36.49" x2="27.27" y2="41.43"/><path id="Path_569" data-name="Path 569" class="cls-1" d="M38.79,25l5.72,5.72a1.27,1.27,0,0,1,0,1.8l-5.1,5.1" transform="translate(-4.01 -1.01)"/><path id="Path_570" data-name="Path 570" class="cls-1" d="M43,24l1.21-1.2a.5.5,0,0,1,.72,0h0l1,1a.51.51,0,0,1,0,.72h0l-1.21,1.21" transform="translate(-4.01 -1.01)"/><line id="Line_29" data-name="Line 29" class="cls-1" x1="7" y1="23.21" x2="28.2" y2="23.21"/><line id="Line_30" data-name="Line 30" class="cls-1" x1="7" y1="26.9" x2="28.2" y2="26.9"/><path id="Path_571" data-name="Path 571" class="cls-1" d="M32.36,6.65h3a3.23,3.23,0,0,1,3.23,3.24V21.08" transform="translate(-4.01 -1.01)"/><path id="Path_572" data-name="Path 572" class="cls-1" d="M38.61,40.38v4.38A3.23,3.23,0,0,1,35.38,48H8.24A3.24,3.24,0,0,1,5,44.76V9.89A3.24,3.24,0,0,1,8.24,6.65H11" transform="translate(-4.01 -1.01)"/><path id="Path_573" data-name="Path 573" class="cls-1" d="M12.27,44.63c2.07-1.54,2.59.53,4.14,0s2.06-3.14,3.1-1.08a1.87,1.87,0,0,0,2.4,1.15l.18-.07" transform="translate(-4.01 -1.01)"/></g></svg>