<svg id="Layer_1" data-name="Layer 1" xmlns="http://www.w3.org/2000/svg" viewBox="0 0 47.96 47.55"><defs><style>.cls-1{fill:#4bc62e;}</style></defs><path id="Path_598" data-name="Path 598" class="cls-1" d="M39.41,5v.51L27.2,1.68a5.17,5.17,0,0,0-4.33.57L17.82,5.46A5.19,5.19,0,0,0,15.49,9H4.24a.8.8,0,0,0-.8.8V27.41a.8.8,0,0,0,.8.8H37.81a.8.8,0,0,0,.8-.8V18.87l.32-.26h.48v1.6a.8.8,0,0,0,.8.81H49V19.41H41V5.82h8V4.22H40.21a.8.8,0,0,0-.8.8ZM26.81,22.61a4.24,4.24,0,0,0,.94-.11,7.21,7.21,0,0,0-1.89,4.11h-4v-16h.61a2.6,2.6,0,0,1,1.83,4.43l-.41.41a4.19,4.19,0,0,0,3,7.15Zm5.4-2.35a6.74,6.74,0,0,0-1.72.41L32.21,19Zm0,1.61v4.74H27.48a5.59,5.59,0,0,1,4.73-4.74Zm-12,4.74H17v-16h3.19Zm-4.79,0h-4A7.2,7.2,0,0,0,5,20.26V17a7.21,7.21,0,0,0,6.35-6.35h4Zm-5.66-16A5.6,5.6,0,0,1,5,15.36V10.62ZM5,21.87a5.61,5.61,0,0,1,4.74,4.74H5Zm32,4.74h-3.2V19.69a5.3,5.3,0,0,0,3.2,0ZM38.61,17a.79.79,0,0,0-.56.23,3.74,3.74,0,0,1-5.27,0,.8.8,0,0,0-1.13,0l-3,3A2.59,2.59,0,0,1,25,16.59h0l.41-.41h0a4.2,4.2,0,0,0-3-7.16H17.11a3.54,3.54,0,0,1,1.57-2.21l5.05-3.22a3.58,3.58,0,0,1,3-.39l12.69,4V17Z" transform="translate(-1.04 -1.44)"/><path id="Path_599" data-name="Path 599" class="cls-1" d="M5.83,48.19v-.8H8.24a.8.8,0,0,0,.8-.8v-.85l.07.06A17.13,17.13,0,0,0,31.17,44l6-6a3.63,3.63,0,0,0-4.62-5.55,3.06,3.06,0,0,0-4.05-1.49,3,3,0,0,0-1,.8,3.11,3.11,0,0,0-4.28,1.07,3.17,3.17,0,0,0-.35.85L22,37H17.36l-.57-.56A6.43,6.43,0,0,0,9,35.4v-.79a.8.8,0,0,0-.8-.81H5.83A.8.8,0,0,0,5,33H1v1.61h3.2V47.39H1V49H5a.8.8,0,0,0,.8-.8Zm23.61-15.9a1.44,1.44,0,0,1,1.76,1.05,1.54,1.54,0,0,1,0,.3l-5.58,5.58a2.84,2.84,0,0,0-.4-.82L28.54,33A1.41,1.41,0,0,1,29.44,32.29ZM24.39,34a1.52,1.52,0,0,1,1.84-1.1l.11,0a1.23,1.23,0,0,1,.26.12L24,37.33a3.38,3.38,0,0,0-.44-.18ZM12.23,36.14a4.84,4.84,0,0,1,3.43,1.42l.8.8a.8.8,0,0,0,.57.24h5.59a1.6,1.6,0,1,1,.18,3.2H15.43v1.6h7.19a3.22,3.22,0,0,0,2.82-1.69L33.18,34A2,2,0,0,1,36,36.84l-6,6A15.52,15.52,0,0,1,10,44.5l-1-.72V37.35A4.83,4.83,0,0,1,12.23,36.14Zm-4.8-.74V45.79H5.83V35.4Z" transform="translate(-1.04 -1.44)"/></svg>