<svg id="Layer_1" data-name="Layer 1" xmlns="http://www.w3.org/2000/svg" viewBox="0 0 47.4 47"><defs><style>.cls-1{fill:#4bc62e;}</style></defs><path id="Path_598" data-name="Path 598" class="cls-1" d="M39.25,4.54v.51L27.19,1.24a5.09,5.09,0,0,0-4.28.56L17.92,5A5.1,5.1,0,0,0,15.61,8.5H4.49a.79.79,0,0,0-.79.79V26.67a.79.79,0,0,0,.79.79H37.67a.79.79,0,0,0,.79-.79V18.23l.32-.25h.47v1.58a.8.8,0,0,0,.79.79h8.69V18.77h-7.9V5.33h7.9V3.75H40a.8.8,0,0,0-.79.79ZM26.8,21.93a4.24,4.24,0,0,0,.94-.11,7.07,7.07,0,0,0-1.87,4.06h-4V10.07h.6a2.57,2.57,0,0,1,1.81,4.38l-.41.41a4.15,4.15,0,0,0,2.93,7.07Zm5.34-2.33a7,7,0,0,0-1.7.41l1.7-1.71Zm0,1.59v4.69H27.46a5.55,5.55,0,0,1,4.68-4.69ZM20.29,25.88H17.13V10.07h3.16Zm-4.74,0h-4A7.13,7.13,0,0,0,5.28,19.6V16.35a7.12,7.12,0,0,0,6.28-6.28h4ZM10,10.07a5.54,5.54,0,0,1-4.68,4.69V10.07ZM5.28,21.19A5.56,5.56,0,0,1,10,25.88H5.28Zm31.61,4.69H33.72V19a5.32,5.32,0,0,0,3.16,0Zm1.58-9.48a.79.79,0,0,0-.56.23,3.69,3.69,0,0,1-5.2,0,.79.79,0,0,0-1.12,0l-3,3A2.56,2.56,0,1,1,25,16h0l.41-.4h0a4.15,4.15,0,0,0-2.93-7.08H17.22a3.51,3.51,0,0,1,1.54-2.18l5-3.18a3.53,3.53,0,0,1,2.95-.39l12.54,4v9.69Z" transform="translate(-1.33 -1)"/><path id="Path_599" data-name="Path 599" class="cls-1" d="M6.07,47.21v-.79H8.44a.8.8,0,0,0,.8-.79v-.84l.07.05A16.92,16.92,0,0,0,31.11,43l5.94-5.94a3.58,3.58,0,0,0-4.56-5.49,3,3,0,0,0-4-1.47,3.06,3.06,0,0,0-1,.79A3.07,3.07,0,0,0,23.23,32a2.82,2.82,0,0,0-.35.84l-.83,3.32H17.46l-.56-.56a6.39,6.39,0,0,0-7.67-1v-.78A.79.79,0,0,0,8.44,33H6.07a.79.79,0,0,0-.79-.79H1.33v1.58H4.49V46.42H1.33V48h4a.79.79,0,0,0,.79-.79ZM29.4,31.49a1.43,1.43,0,0,1,1.74,1.05.92.92,0,0,1,0,.29l-5.51,5.51a3.36,3.36,0,0,0-.39-.81l3.23-5.39A1.43,1.43,0,0,1,29.4,31.49Zm-5,1.72a1.49,1.49,0,0,1,1.82-1.09.45.45,0,0,1,.11,0l.26.11-2.53,4.22a3.38,3.38,0,0,0-.44-.18Zm-12,2.09a4.74,4.74,0,0,1,3.39,1.41l.79.79a.83.83,0,0,0,.56.23h5.53a1.58,1.58,0,0,1,.18,3.16H15.55v1.58h7.11a3.16,3.16,0,0,0,2.79-1.67l7.65-7.65A2,2,0,0,1,35.93,36L30,41.93a15.35,15.35,0,0,1-19.77,1.63l-1-.71V36.49A4.77,4.77,0,0,1,12.39,35.3Zm-4.74-.73V44.84H6.07V34.57Z" transform="translate(-1.33 -1)"/></svg>