<svg id="Layer_1" data-name="Layer 1" xmlns="http://www.w3.org/2000/svg" viewBox="0 0 48 32.8"><defs><style>.cls-1{fill:#18a1a7;}</style></defs><g id="Group_321" data-name="Group 321"><path id="Path_620" data-name="Path 620" class="cls-1" d="M46.76,22.59h-.71V18.25A4.55,4.55,0,0,0,41.5,13.7H8.35a4.55,4.55,0,0,0-4.57,4.55V30.6A9.27,9.27,0,0,0,16.25,44.31H41.5a4.55,4.55,0,0,0,4.55-4.55V35.41h.71A2.24,2.24,0,0,0,49,33.17V24.84A2.26,2.26,0,0,0,46.76,22.59ZM10.32,44.24a7.06,7.06,0,1,1,7.06-7.06h0a7.07,7.07,0,0,1-7.06,7.06Zm33.51-4.48a2.33,2.33,0,0,1-2.33,2.33H18.19A9.27,9.27,0,0,0,6,29V18.25a2.34,2.34,0,0,1,2.34-2.33H41.5a2.33,2.33,0,0,1,2.33,2.33v4.34H32.21A2.24,2.24,0,0,0,30,24.84v8.33a2.24,2.24,0,0,0,2.24,2.24H43.83Zm3-6.59a0,0,0,0,1,0,0h0l-14.57,0,0-8.35,14.57,0Z" transform="translate(-1 -13.7)"/><path id="Path_621" data-name="Path 621" class="cls-1" d="M36.66,32.07A3.07,3.07,0,1,0,33.59,29,3.06,3.06,0,0,0,36.66,32.07Zm0-3.91a.85.85,0,1,1-.85.84.85.85,0,0,1,.85-.84Z" transform="translate(-1 -13.7)"/><path id="Path_622" data-name="Path 622" class="cls-1" d="M13,36.06H11.44V33a1.13,1.13,0,0,0-1-1.21,1.12,1.12,0,0,0-1.21,1v4.34a1.12,1.12,0,0,0,1.12,1.11H13a1.11,1.11,0,1,0,.19-2.22H13Z" transform="translate(-1 -13.7)"/></g></svg>