<svg id="Layer_1" data-name="Layer 1" xmlns="http://www.w3.org/2000/svg" viewBox="0 0 48 38.92"><defs><style>.cls-1{fill:#ff5622;}</style></defs><path id="Path_574" data-name="Path 574" class="cls-1" d="M35.82,24.28a10,10,0,1,0,10,10A10,10,0,0,0,35.82,24.28Zm0,18.61a8.6,8.6,0,1,1,8.6-8.6h0a8.6,8.6,0,0,1-8.6,8.6Z" transform="translate(-1 -8.54)"/><path id="Path_575" data-name="Path 575" class="cls-1" d="M35.82,28.55a.7.7,0,0,0,.71-.7v-.33a.71.71,0,0,0-1.41-.1v.43A.7.7,0,0,0,35.82,28.55Z" transform="translate(-1 -8.54)"/><path id="Path_576" data-name="Path 576" class="cls-1" d="M40.11,29l-.23.23a.7.7,0,0,0,.08,1,.69.69,0,0,0,.91,0L41.1,30a.7.7,0,0,0-1-1Z" transform="translate(-1 -8.54)"/><path id="Path_577" data-name="Path 577" class="cls-1" d="M42.59,33.59h-.33a.7.7,0,0,0-.1,1.4h.43a.7.7,0,0,0,.1-1.4A.17.17,0,0,0,42.59,33.59Z" transform="translate(-1 -8.54)"/><path id="Path_578" data-name="Path 578" class="cls-1" d="M29.38,33.59h-.32a.7.7,0,0,0,0,1.4h.32a.7.7,0,0,0,0-1.4Z" transform="translate(-1 -8.54)"/><path id="Path_579" data-name="Path 579" class="cls-1" d="M40.87,38.35a.7.7,0,0,0-1.07.91l.08.08.23.23a.71.71,0,0,0,1-1Z" transform="translate(-1 -8.54)"/><path id="Path_580" data-name="Path 580" class="cls-1" d="M35.82,40a.7.7,0,0,0-.7.7v.32a.71.71,0,0,0,.65.76.7.7,0,0,0,.75-.65.21.21,0,0,0,0-.11v-.32A.7.7,0,0,0,35.82,40Z" transform="translate(-1 -8.54)"/><path id="Path_581" data-name="Path 581" class="cls-1" d="M30.77,38.35l-.23.22a.71.71,0,0,0,.92,1.08l.08-.08.22-.23a.7.7,0,0,0-1-1Z" transform="translate(-1 -8.54)"/><path id="Path_582" data-name="Path 582" class="cls-1" d="M31.54,29a.71.71,0,1,0-1.07.92l.07.07.23.23a.7.7,0,0,0,1,.08.71.71,0,0,0,.08-1l-.08-.07Z" transform="translate(-1 -8.54)"/><path id="Path_583" data-name="Path 583" class="cls-1" d="M37.74,33.59H36.53v-3a.71.71,0,0,0-.76-.65.7.7,0,0,0-.65.65v3.71a.7.7,0,0,0,.7.7h1.92a.7.7,0,1,0,.11-1.4Z" transform="translate(-1 -8.54)"/><path id="Path_584" data-name="Path 584" class="cls-1" d="M46.29,26.3V14.48a2,2,0,0,0-2-2h-2V10.54a2,2,0,0,0-2-2H3a2,2,0,0,0-2,2V29.68a2,2,0,0,0,2,2H5v1.94a2,2,0,0,0,2,2h4.51a.71.71,0,0,0,.65-.76.7.7,0,0,0-.65-.65H7a.58.58,0,0,1-.58-.59V31.68H22.9a14.28,14.28,0,0,0-.26,2.53h-8.3a.71.71,0,0,0,0,1.41h8.37A13.17,13.17,0,0,0,43.52,45a.7.7,0,0,0,.09-1,.71.71,0,0,0-.91-.15,11.74,11.74,0,1,1,2-1.78.71.71,0,0,0,0,1,.72.72,0,0,0,1,0l.07-.08a13.15,13.15,0,0,0,.57-16.69Zm-21.11.22H12.57a6.41,6.41,0,0,1,0-12.82h2.51a.71.71,0,0,0,.65-.76.72.72,0,0,0-.65-.65H12.57a7.82,7.82,0,0,0,0,15.64H24.28a13.12,13.12,0,0,0-1,2.34H3a.58.58,0,0,1-.58-.59V10.54A.58.58,0,0,1,3,10H40.28a.6.6,0,0,1,.59.59V22.11a13.84,13.84,0,0,0-2.45-.74,7.82,7.82,0,0,0-6.46-9,7.64,7.64,0,0,0-1.26-.1H17.89a.7.7,0,0,0,0,1.4H30.7a6.42,6.42,0,0,1,6.42,6.41A6.23,6.23,0,0,1,37,21.17a12.1,12.1,0,0,0-1.21-.06,13.16,13.16,0,0,0-10.64,5.41ZM42.27,22.8V13.89h2a.58.58,0,0,1,.58.59V24.73A12.69,12.69,0,0,0,42.27,22.8Z" transform="translate(-1 -8.54)"/><path id="Path_586" data-name="Path 586" class="cls-1" d="M31.75,19.41H27.69a.7.7,0,0,0-.65.75.69.69,0,0,0,.65.65h4.06a.69.69,0,0,0,.65-.75A.7.7,0,0,0,31.75,19.41Z" transform="translate(-1 -8.54)"/><path id="Path_587" data-name="Path 587" class="cls-1" d="M15.58,19.41H11.52a.7.7,0,0,0-.75.65.69.69,0,0,0,.65.75.17.17,0,0,0,.1,0h4.06a.7.7,0,0,0,0-1.4Z" transform="translate(-1 -8.54)"/><path id="Path_588" data-name="Path 588" class="cls-1" d="M23.66,19.41H19.6a.71.71,0,0,0-.76.65.69.69,0,0,0,.65.75.21.21,0,0,0,.11,0h4.06a.69.69,0,0,0,.65-.75A.7.7,0,0,0,23.66,19.41Z" transform="translate(-1 -8.54)"/></svg>