<svg id="Layer_1" data-name="Layer 1" xmlns="http://www.w3.org/2000/svg" viewBox="0 0 46 46"><defs><style>.cls-1{fill:#c9be35;}</style></defs><g id="Group_318" data-name="Group 318"><path id="Path_607" data-name="Path 607" class="cls-1" d="M39.7,36.15l-2-1.17a3.83,3.83,0,0,0-2-.55H32.84a7.12,7.12,0,0,0-1.78.23L22.2,37A3.09,3.09,0,0,0,20.12,39l-7.79-4.21a3,3,0,0,0-2.08-.34,2.64,2.64,0,0,0-.78.25A3.07,3.07,0,0,0,8.15,35.9a3.11,3.11,0,0,0-.4,1.52,3,3,0,0,0,1.52,2.65l14,8.35a3.82,3.82,0,0,0,2,.58H36a3.8,3.8,0,0,0,1.41-.27l2.25-.89V49h7.66V33.66H39.7ZM36.88,47.3a2.17,2.17,0,0,1-.84.16H25.24A2.28,2.28,0,0,1,24,47.11L10,38.75a1.53,1.53,0,0,1-.76-1.33,1.52,1.52,0,0,1,.86-1.37,1.63,1.63,0,0,1,.39-.13,1.36,1.36,0,0,1,.29,0,1.53,1.53,0,0,1,.75.2L20,40.66s0,.09,0,.14a3.09,3.09,0,0,0,3,2.27,7.56,7.56,0,0,0,1.26-.23l8-2.13-.4-1.48L23.9,41.35c-.35.08-.8.17-.9.18a1.53,1.53,0,0,1-1.48-1.13,1.35,1.35,0,0,1,0-.28,2,2,0,0,1,0-.25,1.53,1.53,0,0,1,1.12-1.35l8.85-2.37A5.47,5.47,0,0,1,32.84,36h2.94a2.35,2.35,0,0,1,1.18.32l2.74,1.64v8.26Zm4.35-12.1h4.6V47.46h-4.6Z" transform="translate(-1.37 -3)"/><path id="Path_608" data-name="Path 608" class="cls-1" d="M33,9.13,28.88,5A6.83,6.83,0,0,0,24,3H14.36a4,4,0,0,0-1.72.4l-1.72.86a2.12,2.12,0,0,1-1.11.24L9,4.48V3H1.37V19.87H9v-2.3h1.31l.46.3a8.51,8.51,0,0,0,4.37,1.41v9.78h32.2V9.13ZM7.5,18.33H2.9V4.53H7.5Zm4.15-1.73L10.8,16H9V6l.73,0a3.83,3.83,0,0,0,1.85-.41l1.72-.86a2.43,2.43,0,0,1,1-.24H24A5.39,5.39,0,0,1,27.79,6.1l3,3H24.49L22.63,7.28,21.55,8.36,27,13.77A1.54,1.54,0,1,1,24.85,16L24.79,16l-4.52-4.52-.53.46a4.07,4.07,0,0,1-5.17.07l-.45-.36-1,1.19.45.37a5.57,5.57,0,0,0,1.56.88v3.7a6.9,6.9,0,0,1-3.52-1.14Zm10.9-.72L23.71,17a3.1,3.1,0,0,0,4.34,0,3.84,3.84,0,1,0,.43-.56,3,3,0,0,0,.25-2.75H39a4.61,4.61,0,0,0,3.77,3.77v3.19A4.61,4.61,0,0,0,39,24.46H23.54a4.61,4.61,0,0,0-3.77-3.77V17.5a4.6,4.6,0,0,0,2.79-1.62ZM29,19.1a2.3,2.3,0,1,1,2.3,2.3A2.3,2.3,0,0,1,29,19.1Zm16.87,8.43H16.7V14.36a5.59,5.59,0,0,0,3.45-.88l1.31,1.31A3.06,3.06,0,0,1,19,16h-.77v6.13H19a3.07,3.07,0,0,1,3.06,3.07V26H40.47v-.77a3.07,3.07,0,0,1,3.06-3.07h.77V16h-.77A3.06,3.06,0,0,1,40.47,13V12.2H27.56L26,10.66h19.8Z" transform="translate(-1.37 -3)"/></g></svg>