<svg id="Layer_1" data-name="Layer 1" xmlns="http://www.w3.org/2000/svg" viewBox="0 0 46.56 48"><defs><style>.cls-1{fill:none;stroke:#4050b5;stroke-linecap:round;stroke-linejoin:round;stroke-width:2px;}</style></defs><g id="Group_291" data-name="Group 291"><g id="Group_290" data-name="Group 290"><g id="Group_288" data-name="Group 288"><path id="Path_589" data-name="Path 589" class="cls-1" d="M6.84,33.29c.58,0,1.24-.14,1.46-.52a45.66,45.66,0,0,1,3.16-4.3,7.88,7.88,0,0,0,2-4.55,2,2,0,0,1,1.2-1.69,1.51,1.51,0,0,1,1.78.47c1.45,1.58.6,4.12.3,5s-.91,2.23-.91,2.23h6.66a2.39,2.39,0,0,1,2.39,2.38h0v.58c0,1.15-.94,1.35-2.1,1.35h0" transform="translate(-1 -1)"/><path id="Path_590" data-name="Path 590" class="cls-1" d="M22,38h.89a1.63,1.63,0,0,0,1.72-1.55v-.94a1.24,1.24,0,0,0-1.24-1.24h-.06" transform="translate(-1 -1)"/><path id="Path_591" data-name="Path 591" class="cls-1" d="M21.22,41.44H22a1.72,1.72,0,0,0,1.72-1.72h0v-.07c0-.69-.55-1.68-1.24-1.68h0" transform="translate(-1 -1)"/><path id="Path_592" data-name="Path 592" class="cls-1" d="M7,43.32s1.83.75,3.64,1.27c1.47.42,7.15.32,10.19,0a2,2,0,0,0,1.78-2v-.2a1,1,0,0,0-1-1h0" transform="translate(-1 -1)"/><path id="Path_593" data-name="Path 593" class="cls-1" d="M5.79,32.12H2.91a.86.86,0,0,0-.91.8V44.07a.85.85,0,0,0,.91.8H5.79a.86.86,0,0,0,.92-.8V32.92A.87.87,0,0,0,5.79,32.12Z" transform="translate(-1 -1)"/></g><path id="Path_594" data-name="Path 594" class="cls-1" d="M17,48H43.74a2.82,2.82,0,0,0,2.82-2.82V8.65L39.91,2H17A2.82,2.82,0,0,0,14.2,4.82V18.48" transform="translate(-1 -1)"/><path id="Path_595" data-name="Path 595" class="cls-1" d="M46.15,8.7H39.62v-3" transform="translate(-1 -1)"/><g id="Group_289" data-name="Group 289"><line id="Line_31" data-name="Line 31" class="cls-1" x1="39.02" y1="13.1" x2="38.09" y2="13.1"/><line id="Line_32" data-name="Line 32" class="cls-1" x1="34.78" y1="13.1" x2="19.69" y2="13.1"/><line id="Line_33" data-name="Line 33" class="cls-1" x1="39.05" y1="18.5" x2="38.11" y2="18.5"/><line id="Line_34" data-name="Line 34" class="cls-1" x1="34.81" y1="18.5" x2="19.71" y2="18.5"/><line id="Line_35" data-name="Line 35" class="cls-1" x1="39.05" y1="23.9" x2="38.11" y2="23.9"/><line id="Line_36" data-name="Line 36" class="cls-1" x1="34.81" y1="23.9" x2="19.71" y2="23.9"/></g><path id="Path_596" data-name="Path 596" class="cls-1" d="M41.86,36.2a6.63,6.63,0,1,1-7.65-5.43,6.92,6.92,0,0,1,1.11-.09,6.51,6.51,0,0,1,3.38.92" transform="translate(-1 -1)"/><path id="Path_597" data-name="Path 597" class="cls-1" d="M31.82,37l2.72,2.71,8.35-8.35" transform="translate(-1 -1)"/></g></g></svg>