<?xml version="1.0" encoding="utf-8"?>
<!-- Generator: Adobe Illustrator 25.0.1, SVG Export Plug-In . SVG Version: 6.00 Build 0)  -->
<svg version="1.1" id="Layer_1" xmlns="http://www.w3.org/2000/svg" xmlns:xlink="http://www.w3.org/1999/xlink" x="0px" y="0px"
	 viewBox="0 0 200 200" style="enable-background:new 0 0 200 200;" xml:space="preserve">
<style type="text/css">
	.st0{display:none;}
	.st1{display:inline;fill:#83908E;}
	.st2{fill:#83908E;}
</style>
<g class="st0">
	<path id="Path_459" class="st1" d="M181.8,80.7L181.8,80.7L181.8,80.7L181.8,80.7L181.8,80.7l-26.5-24.7V44.4
		c0-1.5-1.2-2.6-2.6-2.7s-2.6,1.2-2.7,2.6c0,0,0,0,0,0V107l-43.8,40.9c-3.5,3.2-8.9,3.2-12.3,0L50,107V29.8c0-1.8,1.4-3.2,3.2-3.2
		h93.6c1.8,0,3.2,1.4,3.2,3.2v4c0,1.5,1.2,2.6,2.6,2.7c1.5,0,2.6-1.2,2.7-2.6c0,0,0,0,0,0v-4c0-4.7-3.8-8.5-8.5-8.5h-28.6l-8.4-7.8
		c-5.5-5.1-14-5.1-19.6,0l-8.4,7.8H53.2c-4.7,0-8.5,3.8-8.5,8.5v26.1L18.2,80.6l0,0l0,0h0l0,0c-1.7,1.6-2.7,3.9-2.7,6.2V176
		c0,7.9,6.4,14.3,14.3,14.3h12.2c1.5,0,2.6-1.2,2.7-2.6c0-1.5-1.2-2.6-2.6-2.7c0,0,0,0,0,0H29.8c-5,0-9-4.1-9-9V86.9l69.4,64.8
		c5.5,5.1,14.1,5.1,19.6,0l69.4-64.8V176c0,5-4.1,9-9,9H52.7c-1.5,0-2.6,1.2-2.7,2.6c0,1.5,1.2,2.6,2.6,2.7c0,0,0,0,0,0h117.5
		c7.9,0,14.3-6.4,14.3-14.3V86.9C184.5,84.5,183.5,82.3,181.8,80.7z M93.8,17.4c3.5-3.2,8.9-3.2,12.3,0l4.2,4H89.6L93.8,17.4z
		 M44.7,102L23.9,82.6l20.8-19.4L44.7,102L44.7,102z M155.3,63.2l20.8,19.4L155.3,102V63.2z"/>
	<path id="Path_460" class="st1" d="M164.3,178.6c4.7,0.1,8.6-3.7,8.6-8.4c0.1-4.7-3.7-8.6-8.4-8.6c-0.1,0-0.2,0-0.3,0h-23.4
		c-4.7,0.1-8.4,3.9-8.4,8.6c0.1,4.6,3.8,8.3,8.4,8.4H164.3z M137.7,170.2c0-1.8,1.4-3.2,3.2-3.2h23.4c1.8,0,3.2,1.5,3.1,3.3
		c0,1.7-1.4,3.1-3.1,3.1h-23.4C139.2,173.3,137.7,171.9,137.7,170.2L137.7,170.2z"/>
	<path id="Path_461" class="st1" d="M100,90.6c-4.7,0-8.5,3.8-8.5,8.5s3.8,8.5,8.5,8.5c4.7,0,8.5-3.8,8.5-8.5c0,0,0,0,0,0
		C108.5,94.4,104.7,90.6,100,90.6z M100,102.3c-1.8,0-3.2-1.4-3.2-3.2c0-1.8,1.4-3.2,3.2-3.2c1.8,0,3.2,1.4,3.2,3.2l0,0
		C103.2,100.9,101.8,102.3,100,102.3z"/>
	<path id="Path_462" class="st1" d="M108.5,70.7C118.6,66,123,54,118.3,43.9c-4.7-10.1-16.7-14.5-26.8-9.8
		c-7.1,3.3-11.7,10.5-11.7,18.3c-0.1,4.7,3.7,8.6,8.3,8.6c4.7,0.1,8.6-3.7,8.6-8.3c0-0.1,0-0.2,0-0.3c0-0.9,0.4-1.7,1-2.3
		c0.7-0.6,1.5-0.9,2.4-0.9c1.6,0.1,2.8,1.4,2.9,2.9c0.1,1.4-0.7,2.7-2,3.2c-5.9,2.4-9.7,8.2-9.7,14.6v5.9c-0.1,4.7,3.7,8.6,8.3,8.6
		c4.7,0.1,8.6-3.7,8.6-8.3c0-0.1,0-0.2,0-0.3L108.5,70.7L108.5,70.7z M105.6,66.1c-1.5,0.6-2.5,2.1-2.5,3.8v5.9
		c0,1.8-1.3,3.2-3.1,3.3c-1.8,0-3.2-1.3-3.3-3.1c0-0.1,0-0.1,0-0.2v-5.9c0-4.2,2.5-8.1,6.4-9.7c3.4-1.4,5.5-4.8,5.2-8.5
		c-0.4-4.2-3.7-7.5-7.9-7.9c-0.2,0-0.4,0-0.6,0c-4.7,0-8.5,3.8-8.5,8.5c0,0,0,0,0,0c0,1.8-1.5,3.2-3.3,3.1c-1.7,0-3.1-1.4-3.1-3.1
		c0-8.2,6.7-14.9,14.9-14.9c8.2,0,14.9,6.7,14.9,14.9C114.9,58.4,111.2,63.8,105.6,66.1L105.6,66.1z"/>
</g>
<g>
	<path id="Path_459_1_" class="st2" d="M181.4,80.8L181.4,80.8L181.4,80.8L181.4,80.8L181.4,80.8l-26.5-24.7V44.5
		c0-1.5-1.2-2.6-2.6-2.7s-2.6,1.2-2.7,2.6c0,0,0,0,0,0v62.6L105.8,148c-3.5,3.2-8.9,3.2-12.3,0l-43.8-40.9V30c0-1.8,1.4-3.2,3.2-3.2
		h93.6c1.8,0,3.2,1.4,3.2,3.2v4c0,1.5,1.2,2.6,2.6,2.7c1.5,0,2.6-1.2,2.7-2.6c0,0,0,0,0,0v-4c0-4.7-3.8-8.5-8.5-8.5h-28.6l-8.4-7.8
		c-5.5-5.1-14-5.1-19.6,0l-8.4,7.8H52.9c-4.7,0-8.5,3.8-8.5,8.5v26.1L17.9,80.8l0,0l0,0h0l0,0c-1.7,1.6-2.7,3.9-2.7,6.2v89.1
		c0,7.9,6.4,14.3,14.3,14.3h12.2c1.5,0,2.6-1.2,2.7-2.6c0-1.5-1.2-2.6-2.6-2.7c0,0,0,0,0,0H29.5c-5,0-9-4.1-9-9V87.1l69.4,64.8
		c5.5,5.1,14.1,5.1,19.6,0l69.4-64.8v89.1c0,5-4.1,9-9,9H52.3c-1.5,0-2.6,1.2-2.7,2.6c0,1.5,1.2,2.6,2.6,2.7c0,0,0,0,0,0h117.5
		c7.9,0,14.3-6.4,14.3-14.3V87.1C184.1,84.7,183.1,82.5,181.4,80.8z M93.5,17.5c3.5-3.2,8.9-3.2,12.3,0l4.2,4H89.2L93.5,17.5z
		 M44.4,102.2L23.6,82.8l20.8-19.4L44.4,102.2L44.4,102.2z M154.9,63.3l20.8,19.4l-20.8,19.4V63.3z"/>
	<path id="Path_460_1_" class="st2" d="M164,178.8c4.7,0.1,8.6-3.7,8.6-8.4c0.1-4.7-3.7-8.6-8.4-8.6c-0.1,0-0.2,0-0.3,0h-23.4
		c-4.7,0.1-8.4,3.9-8.4,8.6c0.1,4.6,3.8,8.3,8.4,8.4H164z M137.4,170.3c0-1.8,1.4-3.2,3.2-3.2h23.4c1.8,0,3.2,1.5,3.1,3.3
		c0,1.7-1.4,3.1-3.1,3.1h-23.4C138.8,173.5,137.4,172.1,137.4,170.3L137.4,170.3z"/>
	<path id="Path_461_1_" class="st2" d="M99.6,90.8c-4.7,0-8.5,3.8-8.5,8.5c0,4.7,3.8,8.5,8.5,8.5c4.7,0,8.5-3.8,8.5-8.5c0,0,0,0,0,0
		C108.1,94.6,104.3,90.8,99.6,90.8z M99.6,102.5c-1.8,0-3.2-1.4-3.2-3.2c0-1.8,1.4-3.2,3.2-3.2c1.8,0,3.2,1.4,3.2,3.2l0,0
		C102.8,101.1,101.4,102.5,99.6,102.5z"/>
	<path id="Path_462_1_" class="st2" d="M108.1,70.8c10.1-4.7,14.5-16.7,9.8-26.8c-4.7-10.1-16.7-14.5-26.8-9.8
		C84,37.5,79.5,44.7,79.5,52.5c-0.1,4.7,3.7,8.6,8.3,8.6c4.7,0.1,8.6-3.7,8.6-8.3c0-0.1,0-0.2,0-0.3c0-0.9,0.4-1.7,1-2.3
		c0.7-0.6,1.5-0.9,2.4-0.9c1.6,0.1,2.8,1.4,2.9,2.9c0.1,1.4-0.7,2.7-2,3.2c-5.9,2.4-9.7,8.2-9.7,14.6v5.9c-0.1,4.7,3.7,8.6,8.3,8.6
		c4.7,0.1,8.6-3.7,8.6-8.3c0-0.1,0-0.2,0-0.3L108.1,70.8L108.1,70.8z M105.3,66.3c-1.5,0.6-2.5,2.1-2.5,3.8v5.9
		c0,1.8-1.3,3.2-3.1,3.3c-1.8,0-3.2-1.3-3.3-3.1c0-0.1,0-0.1,0-0.2v-5.9c0-4.2,2.5-8.1,6.4-9.7c3.4-1.4,5.5-4.8,5.2-8.5
		c-0.4-4.2-3.7-7.5-7.9-7.9c-0.2,0-0.4,0-0.6,0c-4.7,0-8.5,3.8-8.5,8.5c0,0,0,0,0,0c0,1.8-1.5,3.2-3.3,3.1c-1.7,0-3.1-1.4-3.1-3.1
		c0-8.2,6.7-14.9,14.9-14.9c8.2,0,14.9,6.7,14.9,14.9C114.5,58.6,110.9,64,105.3,66.3L105.3,66.3z"/>
</g>
</svg>
