<?xml version="1.0" encoding="utf-8"?>
<!-- Generator: Adobe Illustrator 25.0.1, SVG Export Plug-In . SVG Version: 6.00 Build 0)  -->
<svg version="1.1" id="Layer_1" xmlns="http://www.w3.org/2000/svg" xmlns:xlink="http://www.w3.org/1999/xlink" x="0px" y="0px"
	 viewBox="0 0 200 200" style="enable-background:new 0 0 200 200;" xml:space="preserve">
<style type="text/css">
	.st0{display:none;}
	.st1{display:inline;}
	.st2{fill:#3FC6F3;}
	.st3{fill:#83908E;}
</style>
<g id="Group_219" transform="translate(-50.303)" class="st0">
	<g id="Group_218" transform="translate(50.303)" class="st1">
		<g id="Group_217" transform="translate(0)">
			<path id="Path_495" class="st2" d="M-140.2-292.2h-14.3v-23c0-3.2-2.6-5.7-5.7-5.7h-31.5c-3.2,0-5.7,2.6-5.8,5.7v69.2
				c0,3.2,2.6,5.7,5.7,5.7h31.5c3.2,0,5.7-2.6,5.7-5.7v-17.3h14.3c2.5,0,4.5-2,4.5-4.5v-20C-135.7-290.2-137.7-292.2-140.2-292.2z
				 M-154.5-289.1h14.3c0,0,0.1,0,0.1,0l0,0c0,0,0.1,0,0.1,0l0.1,0c0,0,0.1,0,0.1,0l0,0c0,0,0.1,0,0.1,0l0,0c0,0,0.1,0,0.1,0.1l0,0
				c0,0,0.1,0,0.1,0.1l0,0c0,0,0,0,0.1,0.1l0,0c0,0,0,0,0.1,0.1l0,0l-15.3,8.8l-0.2,0.1l-2.6,1.5c-0.6,0.3-1.3,0.3-1.9,0l-2.6-1.5
				l-7.4-4.2v-5.2H-154.5z M-164.9-277.8l-4.2,2.4v-4.9L-164.9-277.8z M-194.3-315.3c0-1.4,1.2-2.6,2.6-2.6h31.5
				c1.4,0,2.6,1.2,2.6,2.6v4.8h-36.7V-315.3z M-157.6-246.1c0,1.4-1.2,2.6-2.6,2.6h-31.5c-1.4,0-2.6-1.2-2.6-2.6v-4.8h36.7
				L-157.6-246.1z M-157.6-254h-36.7v-53.3h36.7v15.1h-11.5v-2.7c0-0.9-0.7-1.6-1.6-1.5c-0.8,0-1.5,0.7-1.5,1.5v34.4
				c0,0.9,0.7,1.6,1.5,1.6s1.6-0.7,1.6-1.5c0,0,0-0.1,0-0.1v-2.8h11.5V-254z M-139.1-267C-139.2-267-139.2-266.9-139.1-267l-0.1,0.1
				c0,0,0,0-0.1,0.1l0,0c0,0-0.1,0.1-0.1,0.1l0,0c0,0-0.1,0.1-0.1,0.1l0,0c0,0-0.1,0-0.1,0l0,0c0,0-0.1,0-0.1,0l-0.1,0
				c0,0-0.1,0-0.1,0l0,0c0,0-0.1,0-0.1,0h-28.9v-5.2l7.4-4.2l1,0.6c0.8,0.4,1.6,0.7,2.5,0.7c0.2,0,0.4,0,0.6,0
				c0.7-0.1,1.3-0.3,1.9-0.6l1-0.6l0.2,0.1L-139.1-267L-139.1-267z M-138.9-270.5l-12.6-7.3l12.6-7.3L-138.9-270.5z"/>
			<path id="Path_496" class="st2" d="M-169.2-315.7h-13.6c-0.9,0-1.6,0.7-1.5,1.6c0,0.8,0.7,1.5,1.5,1.5h13.6
				c0.9,0,1.6-0.7,1.5-1.6C-167.7-315-168.4-315.7-169.2-315.7z"/>
			<path id="Path_497" class="st2" d="M-177.9-245.6h3.9c0.9,0,1.6-0.7,1.6-1.5s-0.7-1.6-1.5-1.6c0,0-0.1,0-0.1,0h-3.9
				c-0.9,0-1.6,0.7-1.6,1.5S-178.9-245.6-177.9-245.6C-178-245.6-178-245.6-177.9-245.6z"/>
			<path id="Path_498" class="st2" d="M-134.3-298.4h-16.3c-0.9,0-1.6,0.7-1.5,1.6c0,0.8,0.7,1.5,1.5,1.5h16.3
				c0.9,0,1.6-0.7,1.5-1.6C-132.7-297.7-133.4-298.3-134.3-298.4z"/>
			<path id="Path_499" class="st2" d="M-143.7-260.5h-3.5c-0.9,0-1.6,0.7-1.6,1.5s0.7,1.6,1.5,1.6c0,0,0.1,0,0.1,0h3.5
				c0.9,0,1.6-0.7,1.5-1.6C-142.1-259.8-142.8-260.5-143.7-260.5z"/>
			<path id="Path_500" class="st2" d="M-171.6-299.9c0.1,0.1,0.2,0.1,0.3,0.1c0.1,0,0.2,0.1,0.3,0.1c0.2,0,0.4,0,0.6,0
				c0.1,0,0.2-0.1,0.3-0.1c0.1,0,0.2-0.1,0.3-0.1c0.2-0.1,0.3-0.3,0.4-0.4c0.1-0.1,0.1-0.2,0.1-0.3c0-0.1,0.1-0.2,0.1-0.3
				c0-0.1,0-0.2,0-0.3c0-0.1,0-0.2,0-0.3c0-0.1,0-0.2-0.1-0.3c0-0.1-0.1-0.2-0.1-0.3c-0.1-0.1-0.1-0.2-0.2-0.2
				c-0.1-0.1-0.2-0.1-0.2-0.2c-0.1-0.1-0.2-0.1-0.3-0.1c-0.1,0-0.2-0.1-0.3-0.1c-0.2,0-0.4,0-0.6,0c-0.1,0-0.2,0.1-0.3,0.1
				c-0.1,0-0.2,0.1-0.3,0.1c-0.1,0.1-0.2,0.1-0.2,0.2c-0.1,0.1-0.1,0.2-0.2,0.2c-0.1,0.1-0.1,0.2-0.1,0.3c0,0.1-0.1,0.2-0.1,0.3
				c-0.1,0.5,0.1,1.1,0.4,1.4C-171.7-300-171.7-299.9-171.6-299.9z"/>
		</g>
	</g>
</g>
<g id="Group_219_1_" transform="translate(-50.303)" class="st0">
	<g id="Group_218_1_" transform="translate(50.303)" class="st1">
		<g id="Group_217_1_" transform="translate(0)">
			<path id="Path_495_1_" class="st2" d="M154.4,74.7h-31.2V24.5c0-6.9-5.6-12.5-12.5-12.5H41.9c-6.9,0-12.5,5.6-12.5,12.5v150.9
				c0,6.9,5.6,12.5,12.5,12.5h68.8c6.9,0,12.5-5.6,12.5-12.5v-37.6h31.2c5.4,0,9.7-4.4,9.7-9.7V84.5
				C164.1,79.1,159.7,74.8,154.4,74.7z M123.2,81.6h31.2c0.1,0,0.2,0,0.3,0l0.1,0c0.1,0,0.1,0,0.2,0l0.1,0c0.1,0,0.1,0,0.2,0.1
				l0.1,0c0.1,0,0.1,0.1,0.2,0.1l0.1,0c0.1,0,0.2,0.1,0.3,0.2l0,0c0.1,0.1,0.1,0.1,0.2,0.2l0.1,0.1c0.1,0,0.1,0.1,0.1,0.1l0.1,0.1
				c0,0,0.1,0.1,0.1,0.2l0,0.1l-33.5,19.3l-0.4,0.2l-5.7,3.3c-1.3,0.7-2.8,0.7-4.1,0l-5.7-3.3l-16.1-9.3V81.6H123.2z M100.4,106.3
				l-9.2,5.3V101L100.4,106.3z M36.2,24.5c0-3.1,2.5-5.7,5.7-5.7h68.8c3.1,0,5.7,2.5,5.7,5.7V35H36.2V24.5z M116.3,175.5
				c0,3.1-2.5,5.7-5.7,5.7H41.9c-3.1,0-5.7-2.5-5.7-5.7V165h80.1L116.3,175.5z M116.3,158.1H36.2V41.9h80.1v32.9H91.3v-5.8
				c0-1.9-1.6-3.4-3.5-3.4c-1.8,0-3.3,1.5-3.4,3.4v75c0,1.9,1.5,3.5,3.4,3.5c1.9,0,3.5-1.5,3.5-3.4c0-0.1,0-0.1,0-0.2v-6.1h25.1
				V158.1z M156.6,129.8c0,0.1-0.1,0.1-0.1,0.2l-0.1,0.1c0,0.1-0.1,0.1-0.1,0.1l-0.1,0.1c-0.1,0.1-0.1,0.1-0.2,0.2l0,0
				c-0.1,0.1-0.2,0.1-0.3,0.2l-0.1,0c-0.1,0-0.1,0.1-0.2,0.1l-0.1,0c-0.1,0-0.1,0-0.2,0.1l-0.1,0c-0.1,0-0.1,0-0.2,0l-0.1,0
				c-0.1,0-0.2,0-0.3,0H91.2v-11.4l16.1-9.3l2.3,1.3c1.7,1,3.6,1.5,5.5,1.5c0.4,0,0.8,0,1.3-0.1c1.5-0.2,2.9-0.6,4.2-1.4l2.3-1.3
				l0.4,0.2L156.6,129.8L156.6,129.8z M157.2,122.2l-27.5-15.9l27.5-15.9L157.2,122.2z"/>
			<path id="Path_496_1_" class="st2" d="M91.1,23.5H61.5c-1.9,0-3.4,1.6-3.4,3.5c0,1.8,1.5,3.3,3.4,3.4h29.6c1.9,0,3.4-1.6,3.4-3.5
				C94.4,25,92.9,23.5,91.1,23.5z"/>
			<path id="Path_497_1_" class="st2" d="M72,176.5h8.6c1.9,0,3.5-1.5,3.5-3.4c0-1.9-1.5-3.5-3.4-3.5c-0.1,0-0.1,0-0.2,0H72
				c-1.9,0-3.5,1.5-3.5,3.4c0,1.9,1.5,3.5,3.4,3.5C71.9,176.5,71.9,176.5,72,176.5z"/>
			<path id="Path_498_1_" class="st2" d="M167.3,61.4h-35.7c-1.9,0-3.4,1.6-3.4,3.5c0,1.8,1.5,3.3,3.4,3.4h35.7
				c1.9,0,3.4-1.6,3.4-3.5C170.6,62.9,169.1,61.4,167.3,61.4z"/>
			<path id="Path_499_1_" class="st2" d="M146.8,144h-7.6c-1.9,0-3.5,1.5-3.5,3.4c0,1.9,1.5,3.5,3.4,3.5c0.1,0,0.1,0,0.2,0h7.6
				c1.9,0,3.4-1.6,3.4-3.5C150.1,145.5,148.6,144,146.8,144z"/>
			<path id="Path_500_1_" class="st2" d="M85.9,58.1c0.2,0.1,0.4,0.2,0.6,0.3c0.2,0.1,0.4,0.2,0.6,0.2c0.4,0.1,0.9,0.1,1.3,0
				c0.2,0,0.4-0.1,0.6-0.2c0.2-0.1,0.4-0.2,0.6-0.3c0.4-0.2,0.7-0.6,0.9-0.9c0.1-0.2,0.2-0.4,0.3-0.6c0.1-0.2,0.2-0.4,0.2-0.6
				c0-0.2,0.1-0.4,0.1-0.7c0-0.2,0-0.5-0.1-0.7c0-0.2-0.1-0.4-0.2-0.6c-0.1-0.2-0.2-0.4-0.3-0.6c-0.1-0.2-0.3-0.4-0.4-0.5
				c-0.2-0.2-0.3-0.3-0.5-0.4c-0.2-0.1-0.4-0.2-0.6-0.3c-0.2-0.1-0.4-0.2-0.6-0.2c-0.4-0.1-0.9-0.1-1.3,0c-0.2,0-0.4,0.1-0.6,0.2
				c-0.2,0.1-0.4,0.2-0.6,0.3c-0.2,0.1-0.4,0.3-0.5,0.4c-0.2,0.2-0.3,0.3-0.4,0.5c-0.1,0.2-0.2,0.4-0.3,0.6
				c-0.1,0.2-0.2,0.4-0.2,0.6c-0.2,1.1,0.1,2.3,0.9,3.1C85.5,57.8,85.7,57.9,85.9,58.1z"/>
		</g>
	</g>
</g>
<g>
	<path id="Path_464_1_" class="st3" d="M44.4,94.8v50.1c0,1.4,1.1,2.5,2.5,2.5s2.5-1.1,2.5-2.5l0,0V94.8c0-1.4-1.1-2.5-2.5-2.5
		C45.5,92.3,44.4,93.4,44.4,94.8L44.4,94.8z"/>
	<path id="Path_465_1_" class="st3" d="M152.4,129c-1.4,0-2.5,1.1-2.5,2.5v34.9c0,7-5.7,12.7-12.7,12.7H62c-7,0-12.7-5.7-12.7-12.7
		v-9.9c0-1.4-1.1-2.5-2.5-2.5s-2.5,1.1-2.5,2.5v9.8c0,9.7,7.9,17.6,17.6,17.6h75.2c9.7,0,17.6-7.9,17.6-17.6v-34.9
		C154.8,130.1,153.7,129,152.4,129L152.4,129z"/>
	<path id="Path_466_1_" class="st3" d="M46.9,42.4c1.4,0,2.5-1.1,2.5-2.5l0,0v-7.2c0-7,5.7-12.7,12.7-12.7h75.2
		c7,0,12.7,5.7,12.7,12.7v34.5c0,1.4,1.1,2.5,2.5,2.5s2.5-1.1,2.5-2.5V32.7c0-9.7-7.9-17.6-17.6-17.6H62c-9.7,0-17.6,7.9-17.6,17.6
		v7.2C44.4,41.2,45.5,42.4,46.9,42.4L46.9,42.4L46.9,42.4z"/>
	<path id="Path_467_1_" class="st3" d="M142.5,71.3c1.4,0,2.5-1.1,2.5-2.5V32.3c0-4.3-3.5-7.8-7.8-7.8h-7.8c-1.1,0-2,0.7-2.4,1.7
		l-1.9,6c-0.5,1.5-1.9,2.5-3.4,2.5h-44c-1.6,0-2.9-1-3.4-2.5l-1.9-6c-0.3-1-1.3-1.7-2.4-1.7h-7.8c-4.3,0-7.8,3.5-7.8,7.8v7.6
		c0,1.4,1.1,2.5,2.5,2.5s2.5-1.1,2.5-2.5v-7.6c0-1.6,1.3-2.9,2.9-2.9h6l1.4,4.3c1.1,3.5,4.4,5.9,8.1,5.9h43.8c3.7,0,7-2.4,8.1-5.9
		l1.4-4.3h6c1.6,0,2.9,1.3,2.9,2.9v36.5C140,70.2,141.1,71.3,142.5,71.3L142.5,71.3z"/>
	<path id="Path_468_1_" class="st3" d="M56.8,92.3c-1.4,0-2.5,1.1-2.5,2.5v71.9c0,4.3,3.5,7.8,7.8,7.8h75c4.3,0,7.8-3.5,7.8-7.8
		v-16.8c0-1.4-1.1-2.5-2.5-2.5s-2.5,1.1-2.5,2.5v16.8c0,1.6-1.3,2.9-2.9,2.9H62c-1.6,0-2.9-1.3-2.9-2.9V94.8
		C59.2,93.5,58.1,92.3,56.8,92.3L56.8,92.3z"/>
	<path id="Path_469_1_" class="st3" d="M113,29.9c1.4,0,2.5-1.1,2.5-2.5s-1.1-2.5-2.5-2.5H86.2c-1.4,0-2.5,1.1-2.5,2.5
		s1.1,2.5,2.5,2.5l0,0H113z"/>
	<path id="Path_470_1_" class="st3" d="M113,158.1H86.2c-1.4,0-2.5,1.1-2.5,2.5s1.1,2.5,2.5,2.5l0,0H113c1.4,0,2.5-1.1,2.5-2.5
		C115.5,159.2,114.4,158.1,113,158.1L113,158.1z"/>
	<path id="Path_471_1_" class="st3" d="M71.8,79.8V54.9c0-4.2-3.4-7.6-7.6-7.6H39.4c-1.4,0-2.5,1.1-2.5,2.5s1.1,2.5,2.5,2.5l0,0
		h24.8c1.4,0,2.6,1.2,2.6,2.6v24.9c0,1.4-1.2,2.6-2.6,2.6H31.4c-0.5,0-1.1,0.2-1.5,0.5l-9.7,7.4V54.9c0-1.4,1.2-2.6,2.6-2.6h5.4
		c1.4,0,2.5-1.1,2.5-2.5s-1.1-2.5-2.5-2.5l0,0h-5.4c-4.2,0-7.6,3.4-7.6,7.6v40.4c0,1.4,1.1,2.5,2.5,2.5c0.5,0,1.1-0.2,1.5-0.5
		l13.1-9.9h32.1C68.5,87.4,71.8,84,71.8,79.8z"/>
	<path id="Path_472_1_" class="st3" d="M59.2,61.5c0-1.4-1.1-2.5-2.5-2.5H30.3c-1.4,0-2.5,1.1-2.5,2.5s1.1,2.5,2.5,2.5h26.4
		C58.1,64,59.2,62.9,59.2,61.5L59.2,61.5z"/>
	<path id="Path_473_1_" class="st3" d="M30.3,70.3c-1.4,0-2.5,1.1-2.5,2.5s1.1,2.5,2.5,2.5h23.1c1.4,0,2.5-1.1,2.5-2.5
		s-1.1-2.5-2.5-2.5l0,0H30.3z"/>
	<path id="Path_474_1_" class="st3" d="M162.7,87.3c3.2-3.1,3.2-8.3,0.1-11.5c-3.1-3.2-8.3-3.2-11.5-0.1l-0.1,0.1l-2.4,2.4
		c-9.5-4.6-20.9-2.7-28.4,4.8l-11.9,11.9l-11.2,3.8c-3.2,1.1-4.9,4.5-3.8,7.7c0.3,0.9,0.8,1.7,1.5,2.4l9.4,9.4
		c-3.5,5.4-1.9,12.6,3.5,16c3.8,2.4,8.7,2.4,12.5,0l9.4,9.4c1.1,1.1,2.7,1.8,4.3,1.8c0.5,0,0.9-0.1,1.4-0.2c2.1-0.5,3.7-2,4.4-4l0,0
		l3.8-11.2l11.9-11.9c7.5-7.5,9.4-18.9,4.8-28.4L162.7,87.3z M154.7,79.3c1.3-1.2,3.3-1.2,4.5,0.1c1.2,1.2,1.2,3.2,0,4.4l-1.6,1.6
		c-1.3-1.7-2.8-3.2-4.5-4.5L154.7,79.3z M114.1,131c-3.7,0-6.6-3-6.6-6.6c0-0.9,0.2-1.8,0.5-2.6l8.7,8.7
		C115.9,130.9,115,131,114.1,131z M152,114.6l-10.6,10.6l-13.8-13.9c-1-1-2.5-1-3.5,0s-1,2.5,0,3.5l0,0l14.5,14.5l-3.5,10.3
		c-0.2,0.6-0.9,0.9-1.5,0.7c-0.2-0.1-0.3-0.2-0.4-0.3l-34.7-34.7c-0.5-0.5-0.5-1.2,0-1.6c0.1-0.1,0.3-0.2,0.5-0.3l10.3-3.5l6.8,6.8
		c1,1,2.5,1,3.5,0s1-2.5,0-3.5l-6.1-6.1l10.4-10.6c6.3-6.3,16.2-7.6,23.9-3.2c0.1,0,0.1,0.1,0.2,0.1c2.9,1.7,5.2,4.1,6.9,6.9
		c0,0.1,0.1,0.1,0.1,0.2C159.6,98.4,158.3,108.2,152,114.6L152,114.6z"/>
	<path id="Path_475_1_" class="st3" d="M118.5,65.4c-4.1,0-7.4,3.3-7.4,7.4c0,1.4,1.1,2.5,2.5,2.5s2.5-1.1,2.5-2.5l0,0
		c0-1.4,1.1-2.5,2.5-2.5s2.5-1.1,2.5-2.5C121,66.6,119.8,65.4,118.5,65.4L118.5,65.4z"/>
	<path id="Path_476_1_" class="st3" d="M118.5,55c-9.9,0-17.8,8-17.8,17.8c0,1.4,1.1,2.5,2.5,2.5s2.5-1.1,2.5-2.5l0,0
		c0-7.1,5.8-12.9,12.9-12.9c1.4,0,2.5-1.1,2.5-2.5C121,56.1,119.9,55,118.5,55L118.5,55z"/>
	<path id="Path_477_1_" class="st3" d="M163.7,125.6c0,1.4,1.1,2.5,2.5,2.5c4.1,0,7.4-3.3,7.4-7.4c0-1.4-1.1-2.5-2.5-2.5
		s-2.5,1.1-2.5,2.5s-1.1,2.5-2.5,2.5C164.8,123.1,163.7,124.2,163.7,125.6L163.7,125.6z"/>
	<path id="Path_478_1_" class="st3" d="M181.6,118.1c-1.4,0-2.5,1.1-2.5,2.5c0,7.1-5.8,12.9-12.9,12.9c-1.4,0-2.5,1.1-2.5,2.5
		s1.1,2.5,2.5,2.5l0,0c9.9,0,17.8-8,17.8-17.8C184,119.2,182.9,118.1,181.6,118.1z"/>
	<path id="Path_479_1_" class="st3" d="M71.5,136.9h10.6c1.4,0,2.5-1.1,2.5-2.5s-1.1-2.5-2.5-2.5H71.5c-1.4,0-2.5,1.1-2.5,2.5
		C69.1,135.8,70.2,136.9,71.5,136.9z"/>
	<path id="Path_480_1_" class="st3" d="M88.7,143.5H71.5c-1.4,0-2.5,1.1-2.5,2.5s1.1,2.5,2.5,2.5l0,0h17.2c1.4,0,2.5-1.1,2.5-2.5
		S90.1,143.5,88.7,143.5L88.7,143.5z"/>
</g>
</svg>
