<?xml version="1.0" encoding="utf-8"?>
<!-- Generator: Adobe Illustrator 25.0.1, SVG Export Plug-In . SVG Version: 6.00 Build 0)  -->
<svg version="1.1" id="Layer_1" xmlns="http://www.w3.org/2000/svg" xmlns:xlink="http://www.w3.org/1999/xlink" x="0px" y="0px"
	 viewBox="0 0 200 200" style="enable-background:new 0 0 200 200;" xml:space="preserve">
<style type="text/css">
	.st0{display:none;}
	.st1{display:inline;}
	.st2{fill:#3FC6F3;}
	.st3{fill:#83908E;}
</style>
<g id="Group_219" transform="translate(-50.303)" class="st0">
	<g id="Group_218" transform="translate(50.303)" class="st1">
		<g id="Group_217" transform="translate(0)">
			<path id="Path_495" class="st2" d="M-140.2-292.2h-14.3v-23c0-3.2-2.6-5.7-5.7-5.7h-31.5c-3.2,0-5.7,2.6-5.8,5.7v69.2
				c0,3.2,2.6,5.7,5.7,5.7h31.5c3.2,0,5.7-2.6,5.7-5.7v-17.3h14.3c2.5,0,4.5-2,4.5-4.5v-20C-135.7-290.2-137.7-292.2-140.2-292.2z
				 M-154.5-289.1h14.3c0,0,0.1,0,0.1,0l0,0c0,0,0.1,0,0.1,0l0.1,0c0,0,0.1,0,0.1,0l0,0c0,0,0.1,0,0.1,0l0,0c0,0,0.1,0,0.1,0.1l0,0
				c0,0,0.1,0,0.1,0.1l0,0c0,0,0,0,0.1,0.1l0,0c0,0,0,0,0.1,0.1l0,0l-15.3,8.8l-0.2,0.1l-2.6,1.5c-0.6,0.3-1.3,0.3-1.9,0l-2.6-1.5
				l-7.4-4.2v-5.2H-154.5z M-164.9-277.8l-4.2,2.4v-4.9L-164.9-277.8z M-194.3-315.3c0-1.4,1.2-2.6,2.6-2.6h31.5
				c1.4,0,2.6,1.2,2.6,2.6v4.8h-36.7V-315.3z M-157.6-246.1c0,1.4-1.2,2.6-2.6,2.6h-31.5c-1.4,0-2.6-1.2-2.6-2.6v-4.8h36.7
				L-157.6-246.1z M-157.6-254h-36.7v-53.3h36.7v15.1h-11.5v-2.7c0-0.9-0.7-1.6-1.6-1.5c-0.8,0-1.5,0.7-1.5,1.5v34.4
				c0,0.9,0.7,1.6,1.5,1.6s1.6-0.7,1.6-1.5c0,0,0-0.1,0-0.1v-2.8h11.5V-254z M-139.1-267C-139.2-267-139.2-266.9-139.1-267l-0.1,0.1
				c0,0,0,0-0.1,0.1l0,0c0,0-0.1,0.1-0.1,0.1l0,0c0,0-0.1,0.1-0.1,0.1l0,0c0,0-0.1,0-0.1,0l0,0c0,0-0.1,0-0.1,0l-0.1,0
				c0,0-0.1,0-0.1,0l0,0c0,0-0.1,0-0.1,0h-28.9v-5.2l7.4-4.2l1,0.6c0.8,0.4,1.6,0.7,2.5,0.7c0.2,0,0.4,0,0.6,0
				c0.7-0.1,1.3-0.3,1.9-0.6l1-0.6l0.2,0.1L-139.1-267L-139.1-267z M-138.9-270.5l-12.6-7.3l12.6-7.3L-138.9-270.5z"/>
			<path id="Path_496" class="st2" d="M-169.2-315.7h-13.6c-0.9,0-1.6,0.7-1.5,1.6c0,0.8,0.7,1.5,1.5,1.5h13.6
				c0.9,0,1.6-0.7,1.5-1.6C-167.7-315-168.4-315.7-169.2-315.7z"/>
			<path id="Path_497" class="st2" d="M-177.9-245.6h3.9c0.9,0,1.6-0.7,1.6-1.5s-0.7-1.6-1.5-1.6c0,0-0.1,0-0.1,0h-3.9
				c-0.9,0-1.6,0.7-1.6,1.5S-178.9-245.6-177.9-245.6C-178-245.6-178-245.6-177.9-245.6z"/>
			<path id="Path_498" class="st2" d="M-134.3-298.4h-16.3c-0.9,0-1.6,0.7-1.5,1.6c0,0.8,0.7,1.5,1.5,1.5h16.3
				c0.9,0,1.6-0.7,1.5-1.6C-132.7-297.7-133.4-298.3-134.3-298.4z"/>
			<path id="Path_499" class="st2" d="M-143.7-260.5h-3.5c-0.9,0-1.6,0.7-1.6,1.5s0.7,1.6,1.5,1.6c0,0,0.1,0,0.1,0h3.5
				c0.9,0,1.6-0.7,1.5-1.6C-142.1-259.8-142.8-260.5-143.7-260.5z"/>
			<path id="Path_500" class="st2" d="M-171.6-299.9c0.1,0.1,0.2,0.1,0.3,0.1c0.1,0,0.2,0.1,0.3,0.1c0.2,0,0.4,0,0.6,0
				c0.1,0,0.2-0.1,0.3-0.1c0.1,0,0.2-0.1,0.3-0.1c0.2-0.1,0.3-0.3,0.4-0.4c0.1-0.1,0.1-0.2,0.1-0.3c0-0.1,0.1-0.2,0.1-0.3
				c0-0.1,0-0.2,0-0.3c0-0.1,0-0.2,0-0.3c0-0.1,0-0.2-0.1-0.3c0-0.1-0.1-0.2-0.1-0.3c-0.1-0.1-0.1-0.2-0.2-0.2
				c-0.1-0.1-0.2-0.1-0.2-0.2c-0.1-0.1-0.2-0.1-0.3-0.1c-0.1,0-0.2-0.1-0.3-0.1c-0.2,0-0.4,0-0.6,0c-0.1,0-0.2,0.1-0.3,0.1
				c-0.1,0-0.2,0.1-0.3,0.1c-0.1,0.1-0.2,0.1-0.2,0.2c-0.1,0.1-0.1,0.2-0.2,0.2c-0.1,0.1-0.1,0.2-0.1,0.3c0,0.1-0.1,0.2-0.1,0.3
				c-0.1,0.5,0.1,1.1,0.4,1.4C-171.7-300-171.7-299.9-171.6-299.9z"/>
		</g>
	</g>
</g>
<g id="Group_219_1_" transform="translate(-50.303)" class="st0">
	<g id="Group_218_1_" transform="translate(50.303)" class="st1">
		<g id="Group_217_1_" transform="translate(0)">
			<path id="Path_495_1_" class="st2" d="M154.4,74.7h-31.2V24.5c0-6.9-5.6-12.5-12.5-12.5H41.9c-6.9,0-12.5,5.6-12.5,12.5v150.9
				c0,6.9,5.6,12.5,12.5,12.5h68.8c6.9,0,12.5-5.6,12.5-12.5v-37.6h31.2c5.4,0,9.7-4.4,9.7-9.7V84.5
				C164.1,79.1,159.7,74.8,154.4,74.7z M123.2,81.6h31.2c0.1,0,0.2,0,0.3,0l0.1,0c0.1,0,0.1,0,0.2,0l0.1,0c0.1,0,0.1,0,0.2,0.1
				l0.1,0c0.1,0,0.1,0.1,0.2,0.1l0.1,0c0.1,0,0.2,0.1,0.3,0.2l0,0c0.1,0.1,0.1,0.1,0.2,0.2l0.1,0.1c0.1,0,0.1,0.1,0.1,0.1l0.1,0.1
				c0,0,0.1,0.1,0.1,0.2l0,0.1l-33.5,19.3l-0.4,0.2l-5.7,3.3c-1.3,0.7-2.8,0.7-4.1,0l-5.7-3.3l-16.1-9.3V81.6H123.2z M100.4,106.3
				l-9.2,5.3V101L100.4,106.3z M36.2,24.5c0-3.1,2.5-5.7,5.7-5.7h68.8c3.1,0,5.7,2.5,5.7,5.7V35H36.2V24.5z M116.3,175.5
				c0,3.1-2.5,5.7-5.7,5.7H41.9c-3.1,0-5.7-2.5-5.7-5.7V165h80.1L116.3,175.5z M116.3,158.1H36.2V41.9h80.1v32.9H91.3v-5.8
				c0-1.9-1.6-3.4-3.5-3.4c-1.8,0-3.3,1.5-3.4,3.4v75c0,1.9,1.5,3.5,3.4,3.5c1.9,0,3.5-1.5,3.5-3.4c0-0.1,0-0.1,0-0.2v-6.1h25.1
				V158.1z M156.6,129.8c0,0.1-0.1,0.1-0.1,0.2l-0.1,0.1c0,0.1-0.1,0.1-0.1,0.1l-0.1,0.1c-0.1,0.1-0.1,0.1-0.2,0.2l0,0
				c-0.1,0.1-0.2,0.1-0.3,0.2l-0.1,0c-0.1,0-0.1,0.1-0.2,0.1l-0.1,0c-0.1,0-0.1,0-0.2,0.1l-0.1,0c-0.1,0-0.1,0-0.2,0l-0.1,0
				c-0.1,0-0.2,0-0.3,0H91.2v-11.4l16.1-9.3l2.3,1.3c1.7,1,3.6,1.5,5.5,1.5c0.4,0,0.8,0,1.3-0.1c1.5-0.2,2.9-0.6,4.2-1.4l2.3-1.3
				l0.4,0.2L156.6,129.8L156.6,129.8z M157.2,122.2l-27.5-15.9l27.5-15.9L157.2,122.2z"/>
			<path id="Path_496_1_" class="st2" d="M91.1,23.5H61.5c-1.9,0-3.4,1.6-3.4,3.5c0,1.8,1.5,3.3,3.4,3.4h29.6c1.9,0,3.4-1.6,3.4-3.5
				C94.4,25,92.9,23.5,91.1,23.5z"/>
			<path id="Path_497_1_" class="st2" d="M72,176.5h8.6c1.9,0,3.5-1.5,3.5-3.4c0-1.9-1.5-3.5-3.4-3.5c-0.1,0-0.1,0-0.2,0H72
				c-1.9,0-3.5,1.5-3.5,3.4c0,1.9,1.5,3.5,3.4,3.5C71.9,176.5,71.9,176.5,72,176.5z"/>
			<path id="Path_498_1_" class="st2" d="M167.3,61.4h-35.7c-1.9,0-3.4,1.6-3.4,3.5c0,1.8,1.5,3.3,3.4,3.4h35.7
				c1.9,0,3.4-1.6,3.4-3.5C170.6,62.9,169.1,61.4,167.3,61.4z"/>
			<path id="Path_499_1_" class="st2" d="M146.8,144h-7.6c-1.9,0-3.5,1.5-3.5,3.4c0,1.9,1.5,3.5,3.4,3.5c0.1,0,0.1,0,0.2,0h7.6
				c1.9,0,3.4-1.6,3.4-3.5C150.1,145.5,148.6,144,146.8,144z"/>
			<path id="Path_500_1_" class="st2" d="M85.9,58.1c0.2,0.1,0.4,0.2,0.6,0.3c0.2,0.1,0.4,0.2,0.6,0.2c0.4,0.1,0.9,0.1,1.3,0
				c0.2,0,0.4-0.1,0.6-0.2c0.2-0.1,0.4-0.2,0.6-0.3c0.4-0.2,0.7-0.6,0.9-0.9c0.1-0.2,0.2-0.4,0.3-0.6c0.1-0.2,0.2-0.4,0.2-0.6
				c0-0.2,0.1-0.4,0.1-0.7c0-0.2,0-0.5-0.1-0.7c0-0.2-0.1-0.4-0.2-0.6c-0.1-0.2-0.2-0.4-0.3-0.6c-0.1-0.2-0.3-0.4-0.4-0.5
				c-0.2-0.2-0.3-0.3-0.5-0.4c-0.2-0.1-0.4-0.2-0.6-0.3c-0.2-0.1-0.4-0.2-0.6-0.2c-0.4-0.1-0.9-0.1-1.3,0c-0.2,0-0.4,0.1-0.6,0.2
				c-0.2,0.1-0.4,0.2-0.6,0.3c-0.2,0.1-0.4,0.3-0.5,0.4c-0.2,0.2-0.3,0.3-0.4,0.5c-0.1,0.2-0.2,0.4-0.3,0.6
				c-0.1,0.2-0.2,0.4-0.2,0.6c-0.2,1.1,0.1,2.3,0.9,3.1C85.5,57.8,85.7,57.9,85.9,58.1z"/>
		</g>
	</g>
</g>
<g id="Group_219_2_" transform="translate(-50.303)">
	<g id="Group_218_2_" transform="translate(50.303)">
		<g id="Group_217_2_" transform="translate(0)">
			<path id="Path_495_2_" class="st3" d="M154.4,74.7h-31.2V24.5c0-6.9-5.6-12.5-12.5-12.5H41.9c-6.9,0-12.5,5.6-12.5,12.5v150.9
				c0,6.9,5.6,12.5,12.5,12.5h68.8c6.9,0,12.5-5.6,12.5-12.5v-37.6h31.2c5.4,0,9.7-4.4,9.7-9.7V84.5
				C164.1,79.1,159.7,74.8,154.4,74.7z M123.2,81.6h31.2c0.1,0,0.2,0,0.3,0l0.1,0c0.1,0,0.1,0,0.2,0l0.1,0c0.1,0,0.1,0,0.2,0.1
				l0.1,0c0.1,0,0.1,0.1,0.2,0.1l0.1,0c0.1,0,0.2,0.1,0.3,0.2l0,0c0.1,0.1,0.1,0.1,0.2,0.2l0.1,0.1c0.1,0,0.1,0.1,0.1,0.1l0.1,0.1
				c0,0,0.1,0.1,0.1,0.2l0,0.1l-33.5,19.3l-0.4,0.2l-5.7,3.3c-1.3,0.7-2.8,0.7-4.1,0l-5.7-3.3l-16.1-9.3V81.6H123.2z M100.4,106.3
				l-9.2,5.3V101L100.4,106.3z M36.2,24.5c0-3.1,2.5-5.7,5.7-5.7h68.8c3.1,0,5.7,2.5,5.7,5.7V35H36.2V24.5z M116.3,175.5
				c0,3.1-2.5,5.7-5.7,5.7H41.9c-3.1,0-5.7-2.5-5.7-5.7V165h80.1L116.3,175.5z M116.3,158.1H36.2V41.9h80.1v32.9H91.3v-5.8
				c0-1.9-1.6-3.4-3.5-3.4c-1.8,0-3.3,1.5-3.4,3.4v75c0,1.9,1.5,3.5,3.4,3.5c1.9,0,3.5-1.5,3.5-3.4c0-0.1,0-0.1,0-0.2v-6.1h25.1
				V158.1z M156.6,129.8c0,0.1-0.1,0.1-0.1,0.2l-0.1,0.1c0,0.1-0.1,0.1-0.1,0.1l-0.1,0.1c-0.1,0.1-0.1,0.1-0.2,0.2l0,0
				c-0.1,0.1-0.2,0.1-0.3,0.2l-0.1,0c-0.1,0-0.1,0.1-0.2,0.1l-0.1,0c-0.1,0-0.1,0-0.2,0.1l-0.1,0c-0.1,0-0.1,0-0.2,0l-0.1,0
				c-0.1,0-0.2,0-0.3,0H91.2v-11.4l16.1-9.3l2.3,1.3c1.7,1,3.6,1.5,5.5,1.5c0.4,0,0.8,0,1.3-0.1c1.5-0.2,2.9-0.6,4.2-1.4l2.3-1.3
				l0.4,0.2L156.6,129.8L156.6,129.8z M157.2,122.2l-27.5-15.9l27.5-15.9L157.2,122.2z"/>
			<path id="Path_496_2_" class="st3" d="M91.1,23.5H61.5c-1.9,0-3.4,1.6-3.4,3.5c0,1.8,1.5,3.3,3.4,3.4h29.6c1.9,0,3.4-1.6,3.4-3.5
				C94.4,25,92.9,23.5,91.1,23.5z"/>
			<path id="Path_497_2_" class="st3" d="M72,176.5h8.6c1.9,0,3.5-1.5,3.5-3.4c0-1.9-1.5-3.5-3.4-3.5c-0.1,0-0.1,0-0.2,0H72
				c-1.9,0-3.5,1.5-3.5,3.4c0,1.9,1.5,3.5,3.4,3.5C71.9,176.5,71.9,176.5,72,176.5z"/>
			<path id="Path_498_2_" class="st3" d="M167.3,61.4h-35.7c-1.9,0-3.4,1.6-3.4,3.5c0,1.8,1.5,3.3,3.4,3.4h35.7
				c1.9,0,3.4-1.6,3.4-3.5C170.6,62.9,169.1,61.4,167.3,61.4z"/>
			<path id="Path_499_2_" class="st3" d="M146.8,144h-7.6c-1.9,0-3.5,1.5-3.5,3.4c0,1.9,1.5,3.5,3.4,3.5c0.1,0,0.1,0,0.2,0h7.6
				c1.9,0,3.4-1.6,3.4-3.5C150.1,145.5,148.6,144,146.8,144z"/>
			<path id="Path_500_2_" class="st3" d="M85.9,58.1c0.2,0.1,0.4,0.2,0.6,0.3c0.2,0.1,0.4,0.2,0.6,0.2c0.4,0.1,0.9,0.1,1.3,0
				c0.2,0,0.4-0.1,0.6-0.2c0.2-0.1,0.4-0.2,0.6-0.3c0.4-0.2,0.7-0.6,0.9-0.9c0.1-0.2,0.2-0.4,0.3-0.6c0.1-0.2,0.2-0.4,0.2-0.6
				c0-0.2,0.1-0.4,0.1-0.7c0-0.2,0-0.5-0.1-0.7c0-0.2-0.1-0.4-0.2-0.6c-0.1-0.2-0.2-0.4-0.3-0.6c-0.1-0.2-0.3-0.4-0.4-0.5
				c-0.2-0.2-0.3-0.3-0.5-0.4c-0.2-0.1-0.4-0.2-0.6-0.3c-0.2-0.1-0.4-0.2-0.6-0.2c-0.4-0.1-0.9-0.1-1.3,0c-0.2,0-0.4,0.1-0.6,0.2
				c-0.2,0.1-0.4,0.2-0.6,0.3c-0.2,0.1-0.4,0.3-0.5,0.4c-0.2,0.2-0.3,0.3-0.4,0.5c-0.1,0.2-0.2,0.4-0.3,0.6
				c-0.1,0.2-0.2,0.4-0.2,0.6c-0.2,1.1,0.1,2.3,0.9,3.1C85.5,57.8,85.7,57.9,85.9,58.1z"/>
		</g>
	</g>
</g>
</svg>
