<svg xmlns="http://www.w3.org/2000/svg" width="32.042" height="32.042" viewBox="0 0 32.042 32.042"><defs><style>.a{fill:#fff;}</style></defs><g transform="translate(-8 -8)"><path class="a" d="M98.874,11.618v1.034H95.441L89.9,8.117A.516.516,0,0,0,89.571,8h-15.5a2.067,2.067,0,0,0,0,4.134h.052A2.588,2.588,0,0,0,76.651,14.2h2.584v3.618a2.071,2.071,0,0,0,.737,1.573,5.681,5.681,0,1,0,8.3.495H98.874V20.92h1.034v-9.3Zm-19.336,1.55H76.651A1.548,1.548,0,0,1,75.2,12.134h5.376Zm-.3,10.336a4.656,4.656,0,0,1,4.134-4.621V19.96a2.063,2.063,0,0,0,.517,4.061,1.034,1.034,0,1,1-1.034,1.034H81.819a2.065,2.065,0,0,0,1.55,1.994v1.076A4.656,4.656,0,0,1,79.235,23.5Zm5.171-5.658c-.171-.016-.344-.026-.519-.026s-.348.011-.519.026c0-.009,0-.018,0-.026V14.905l2.309-2.771h2.128l1.248,1.248v2.37H86.47A2.069,2.069,0,0,0,84.4,17.819c0,.009,0,.018,0,.026Zm0,10.279V27.048a2.063,2.063,0,0,0-.517-4.061,1.034,1.034,0,1,1,1.034-1.034h1.034A2.065,2.065,0,0,0,84.4,19.96V18.883a4.649,4.649,0,0,1,0,9.241Zm2.742-9.272a5.662,5.662,0,0,0-1.683-.807,1.033,1.033,0,0,1,1.008-1.26h3.1a.517.517,0,0,0,.517-.517v-3.1a.515.515,0,0,0-.151-.365l-1.55-1.55a.515.515,0,0,0-.365-.151H85.437a.518.518,0,0,0-.4.186l-2.584,3.1a.518.518,0,0,0-.12.331v3.1a1.044,1.044,0,0,1-.027.227,5.652,5.652,0,0,0-1.484.675,1.029,1.029,0,0,1-.557-.9V13.9l1.916-1.916a.517.517,0,0,0-.365-.882H74.067a1.034,1.034,0,0,1,0-2.067h15.32l5.542,4.534a.516.516,0,0,0,.327.117h3.618v5.168Z" transform="translate(-59.866)"/><path class="a" d="M34.357,317.168H22.417a1.541,1.541,0,0,0-.319-.626l-2.852-3.327a.516.516,0,0,0-.392-.181H13.168v-.517a.517.517,0,0,0-.517-.517H8.517a.517.517,0,0,0-.517.517v10.336a.517.517,0,0,0,.517.517h4.134a.517.517,0,0,0,.517-.517v-.517h3.461l2.971,1.98a.519.519,0,0,0,.287.087.533.533,0,0,0,.111-.012l16.538-3.618a.517.517,0,0,0,.406-.5v-.517A2.587,2.587,0,0,0,34.357,317.168Zm-22.222,5.168h-3.1v-9.3h3.1Zm23.773-2.483L19.99,323.334l-2.918-1.946a.524.524,0,0,0-.287-.086H13.168v-7.235h5.447l2.7,3.147a.517.517,0,0,1,.125.336v.651a.517.517,0,0,1-.517.517h-.605a.514.514,0,0,1-.366-.151l-2.281-2.281-.731.731,2.281,2.281a1.539,1.539,0,0,0,1.1.454h.605a1.552,1.552,0,0,0,1.55-1.55H34.357a1.552,1.552,0,0,1,1.55,1.55Z" transform="translate(0 -284.362)"/><path class="a" d="M388.815,306.094a2.766,2.766,0,0,1-1.741-1.741.517.517,0,0,0-.98,0,2.766,2.766,0,0,1-1.741,1.741.516.516,0,0,0,0,.98,2.767,2.767,0,0,1,1.741,1.741.517.517,0,0,0,.98,0,2.767,2.767,0,0,1,1.741-1.741.516.516,0,0,0,0-.98Zm-2.231,1.422a3.841,3.841,0,0,0-.932-.932,3.831,3.831,0,0,0,.932-.932,3.84,3.84,0,0,0,.932.932A3.841,3.841,0,0,0,386.584,307.516Z" transform="translate(-351.71 -276.878)"/><path class="a" d="M48.353,131.074a2.766,2.766,0,0,1,1.741,1.741.517.517,0,0,0,.98,0,2.766,2.766,0,0,1,1.741-1.741.516.516,0,0,0,0-.98,2.766,2.766,0,0,1-1.741-1.741.517.517,0,0,0-.98,0,2.766,2.766,0,0,1-1.741,1.741.516.516,0,0,0,0,.98Zm2.231-1.422a3.84,3.84,0,0,0,.932.932,3.831,3.831,0,0,0-.932.932,3.84,3.84,0,0,0-.932-.932A3.84,3.84,0,0,0,50.584,129.652Z" transform="translate(-37.416 -112.248)"/></g></svg>