<svg xmlns="http://www.w3.org/2000/svg" width="30.12" height="23.778" viewBox="0 0 30.12 23.778"><defs><style>.a{fill:none;}.b{fill:#295b84;}.c{fill:#fff;}</style></defs><g transform="translate(-1325.979 -1727.313)"><path class="a" d="M2929.635,3410.113v0Z" transform="translate(-1586.468 -1664.051)"/><path class="b" d="M1442.829,1823.488a1.16,1.16,0,0,0-1.158-1.159h-19.519a1.16,1.16,0,0,0-1.158,1.159v1.834h21.835Z" transform="translate(-94.05 -94.051)"/><path class="c" d="M3391.639,3122.519a1.271,1.271,0,1,0,1.745.429A1.272,1.272,0,0,0,3391.639,3122.519Z" transform="translate(-2042.801 -1379.298)"/><path class="a" d="M1449.463,2443.771a1.743,1.743,0,0,0,.337-.606,1.669,1.669,0,0,0-.147-1.344l-.531-.928a2.357,2.357,0,0,0-.994-.659,3.154,3.154,0,0,1-1.257-.957,2.427,2.427,0,0,0-.9-.807l-.877-.247-.192-.054-.087-.022-.052-.011a.526.526,0,0,1-.228.026l-.015,0a.521.521,0,0,1-.2-.064.471.471,0,0,1-.246-.409v-1.558h-23.078v8.255a1.192,1.192,0,0,0,1.224,1.158h14.48a.485.485,0,0,1,.495.483h0v0h0a1.657,1.657,0,0,0,.066.48,1.71,1.71,0,0,0,.16.377l.531.928a1.859,1.859,0,0,0,1.195.875,1.984,1.984,0,0,0,.634.042,1.693,1.693,0,0,0,.215.654,1.836,1.836,0,0,0,1.109.852l1.069.3.087.022.071.017h.013a1.969,1.969,0,0,0,.849-.028,1.9,1.9,0,0,0,.833-.455,1.821,1.821,0,0,0,.126-.133,1.9,1.9,0,0,0,.726.342,1.971,1.971,0,0,0,.934-.011,1.921,1.921,0,0,0,.4-.151l.981-.5a1.862,1.862,0,0,0,.433-.305,1.77,1.77,0,0,0,.282-.344,1.71,1.71,0,0,0,.185-.4,1.67,1.67,0,0,0,.069-.682,2.041,2.041,0,0,0,.29-.051,1.9,1.9,0,0,0,.833-.455,1.758,1.758,0,0,0,.469-.746l.318-1.012A1.712,1.712,0,0,0,1449.463,2443.771Zm-21.5-1.253a.7.7,0,0,1-.715.677h-3.018a.7.7,0,0,1-.715-.677v-1.852a.7.7,0,0,1,.715-.676h3.018a.7.7,0,0,1,.715.676Zm21.139,2.883-.318,1.011a.859.859,0,0,1-.435.507.938.938,0,0,1-.428.1.96.96,0,0,1-.258-.036l-.452-.127-.013,0a.037.037,0,0,0-.03.013,4.322,4.322,0,0,1-.337.391.036.036,0,0,0,0,.042l.225.393a.807.807,0,0,1,.071.649.86.86,0,0,1-.435.507l-.981.5a.941.941,0,0,1-.879-.011.879.879,0,0,1-.322-.3l-.022-.036-.224-.393v0a.045.045,0,0,0-.016-.015.038.038,0,0,0-.018,0h0a4.744,4.744,0,0,1-.53.052.039.039,0,0,0-.034.028l-.135.428a.9.9,0,0,1-.865.61.945.945,0,0,1-.257-.036l-1.069-.3a.916.916,0,0,1-.192-.078.938.938,0,0,1-.123-.08.861.861,0,0,1-.2-.218.815.815,0,0,1-.092-.685l.135-.427a.039.039,0,0,0,0-.032.037.037,0,0,0-.008-.009,4.486,4.486,0,0,1-.414-.318l-.005,0a.039.039,0,0,0-.018,0,.046.046,0,0,0-.021.005l-.416.212a.94.94,0,0,1-.878-.01.9.9,0,0,1-.121-.079.866.866,0,0,1-.2-.219l-.022-.036-.531-.928a.808.808,0,0,1-.071-.649.86.86,0,0,1,.435-.507l.416-.213a.036.036,0,0,0,.022-.037,4.083,4.083,0,0,1-.056-.5.026.026,0,0,0,0-.014.04.04,0,0,0-.015-.014l-.01,0-.452-.127a.946.946,0,0,1-.192-.078.883.883,0,0,1-.323-.3.815.815,0,0,1-.092-.685l.318-1.011a.86.86,0,0,1,.435-.507.938.938,0,0,1,.428-.1.952.952,0,0,1,.258.036l.452.127.013,0a.038.038,0,0,0,.03-.013,4.372,4.372,0,0,1,.337-.391.036.036,0,0,0,0-.042l-.225-.393a.831.831,0,0,1,.364-1.156l.981-.5a.939.939,0,0,1,.878.011.877.877,0,0,1,.322.3l.022.036.225.393v0a.045.045,0,0,0,.016.015.039.039,0,0,0,.018,0h0a4.689,4.689,0,0,1,.53-.052.039.039,0,0,0,.034-.028l.135-.428a.859.859,0,0,1,.435-.507.936.936,0,0,1,.428-.1.956.956,0,0,1,.259.036l1.069.3a.923.923,0,0,1,.192.078.883.883,0,0,1,.323.3.815.815,0,0,1,.092.685l-.135.428a.039.039,0,0,0,0,.032.03.03,0,0,0,.008.009,4.461,4.461,0,0,1,.413.319l.005,0a.039.039,0,0,0,.018,0,.046.046,0,0,0,.021,0l.415-.213a.941.941,0,0,1,.878.011.877.877,0,0,1,.322.3h0l.022.036.531.928a.807.807,0,0,1,.071.649.858.858,0,0,1-.435.507l-.415.213a.037.037,0,0,0-.022.037,4.062,4.062,0,0,1,.055.5.028.028,0,0,0,0,.014.04.04,0,0,0,.015.013l.01,0,.452.127a.962.962,0,0,1,.192.078.885.885,0,0,1,.323.3A.815.815,0,0,1,1449.1,2445.4Z" transform="translate(-94.05 -699.518)"/><path class="a" d="M3081.665,2809.26h0l-.428-.127a.908.908,0,0,1-.187-.08.888.888,0,0,1-.315-.307.873.873,0,0,1-.125-.412,3.516,3.516,0,0,0-.042-.4.876.876,0,0,1,.45-.912l.393-.213a.012.012,0,0,0,.006-.008.012.012,0,0,0,0-.01l-.5-.929,0,0-.007,0-.006,0-.393.213a.885.885,0,0,1-.855-.01.85.85,0,0,1-.155-.113,3.544,3.544,0,0,0-.314-.256.856.856,0,0,1-.236-.256.882.882,0,0,1-.09-.707l.127-.428a.015.015,0,0,0,0-.011l0,0h0l-1.011-.3h0l-.006,0a.012.012,0,0,0-.006.007l-.127.428a.877.877,0,0,1-.8.627,3.411,3.411,0,0,0-.4.042.874.874,0,0,1-.576-.1.89.89,0,0,1-.316-.309l-.021-.037-.212-.393h0a.006.006,0,0,0,0,0l-.007,0-.006,0-.928.5a.012.012,0,0,0-.006.008.012.012,0,0,0,0,.01l.213.393a.877.877,0,0,1-.123,1.01,3.467,3.467,0,0,0-.256.314.879.879,0,0,1-.962.326l-.428-.127h-.01a.012.012,0,0,0-.006.008l-.3,1.011a.013.013,0,0,0,0,.011.01.01,0,0,0,0,0h0l.428.127a.873.873,0,0,1,.627.8,3.407,3.407,0,0,0,.042.4.877.877,0,0,1-.45.913l-.393.213a.013.013,0,0,0-.005.017l.5.93,0,0,.007,0,.006,0,.393-.213a.872.872,0,0,1,.972.09c.013.01.026.021.038.033a3.472,3.472,0,0,0,.314.255.865.865,0,0,1,.236.256.882.882,0,0,1,.09.707l-.127.428a.012.012,0,0,0,0,.01l0,0h0l1.011.3h0l.006,0a.01.01,0,0,0,.006-.007l.127-.428a.878.878,0,0,1,.8-.627,3.462,3.462,0,0,0,.4-.042.841.841,0,0,1,.14-.011.875.875,0,0,1,.436.116.886.886,0,0,1,.316.308l.021.037.213.394s0,0,0,0l.007,0,.006,0,.928-.5a.011.011,0,0,0,.006-.008.01.01,0,0,0,0-.01l-.212-.393a.877.877,0,0,1,.123-1.01,3.433,3.433,0,0,0,.256-.314.875.875,0,0,1,.711-.363.887.887,0,0,1,.252.036l.428.127h0l.006,0a.012.012,0,0,0,.006-.008l.3-1.011a.011.011,0,0,0,0-.01Zm-2.468-.276a2.091,2.091,0,1,1-.241-1.583A2.078,2.078,0,0,1,3079.2,2808.983Z" transform="translate(-1727.368 -1063.631)"/><path class="c" d="M3000.219,2726.634a.859.859,0,0,0-.182-.078l-.428-.127-.009,0a.039.039,0,0,1-.015-.013.033.033,0,0,1,0-.014,4.306,4.306,0,0,0-.052-.5.037.037,0,0,1,.021-.037l.393-.212a.853.853,0,0,0,.345-1.156l-.5-.928-.021-.036h0a.851.851,0,0,0-1.136-.308l-.393.212a.044.044,0,0,1-.021,0,.035.035,0,0,1-.017,0l-.005,0a4.257,4.257,0,0,0-.391-.318.025.025,0,0,1-.008-.009.04.04,0,0,1,0-.032l.127-.428a.85.85,0,0,0-.393-.983.87.87,0,0,0-.181-.078l-1.011-.3a.859.859,0,0,0-.245-.036.855.855,0,0,0-.816.61l-.127.427a.038.038,0,0,1-.032.028,4.316,4.316,0,0,0-.5.052h0a.033.033,0,0,1-.016,0,.042.042,0,0,1-.015-.015v0l-.213-.393-.021-.036a.852.852,0,0,0-1.136-.309l-.928.5a.854.854,0,0,0-.344,1.156l.213.393a.037.037,0,0,1,0,.042,4.294,4.294,0,0,0-.318.391.035.035,0,0,1-.028.013l-.012,0-.428-.127a.865.865,0,0,0-.244-.036.857.857,0,0,0-.817.61l-.3,1.011a.851.851,0,0,0,.574,1.061l.428.127.009,0a.04.04,0,0,1,.014.014.03.03,0,0,1,0,.014,4.305,4.305,0,0,0,.052.5.037.037,0,0,1-.021.037l-.393.213a.853.853,0,0,0-.344,1.156l.5.928.02.036a.855.855,0,0,0,.19.219.876.876,0,0,0,.115.079.85.85,0,0,0,.831.011l.393-.213a.043.043,0,0,1,.02-.005.033.033,0,0,1,.017,0l.005,0a4.185,4.185,0,0,0,.391.318.028.028,0,0,1,.008.009.039.039,0,0,1,0,.032l-.127.428a.853.853,0,0,0,.392.983.871.871,0,0,0,.182.078l1.011.3a.853.853,0,0,0,1.061-.574l.127-.428a.037.037,0,0,1,.032-.028,4.306,4.306,0,0,0,.5-.053h0a.035.035,0,0,1,.017,0,.04.04,0,0,1,.015.014v0l.213.393.021.036a.851.851,0,0,0,1.136.309l.928-.5a.854.854,0,0,0,.344-1.156l-.213-.393a.038.038,0,0,1,0-.042,4.256,4.256,0,0,0,.319-.391.035.035,0,0,1,.028-.013l.012,0,.427.127a.853.853,0,0,0,1.061-.574l.3-1.011a.851.851,0,0,0-.393-.983Zm-.413.744-.3,1.011a.011.011,0,0,1-.006.008l-.006,0h0l-.428-.127a.879.879,0,0,0-.963.326,3.464,3.464,0,0,1-.256.314.877.877,0,0,0-.123,1.01l.213.393a.012.012,0,0,1,0,.01.011.011,0,0,1-.006.008l-.928.5h-.006l-.007,0s0,0,0,0l-.213-.394-.021-.037a.888.888,0,0,0-.316-.309.872.872,0,0,0-.575-.1,3.457,3.457,0,0,1-.4.042.877.877,0,0,0-.8.627l-.127.428a.012.012,0,0,1-.006.008l-.006,0h0l-1.011-.3h0l0,0a.015.015,0,0,1,0-.011l.127-.428a.882.882,0,0,0-.09-.707.866.866,0,0,0-.236-.256,3.467,3.467,0,0,1-.314-.256l-.037-.033a.889.889,0,0,0-.117-.08.883.883,0,0,0-.855-.01l-.393.213-.006,0-.007,0,0,0-.5-.929a.013.013,0,0,1,.005-.018l.393-.213a.877.877,0,0,0,.45-.912,3.425,3.425,0,0,1-.042-.4.873.873,0,0,0-.44-.719.888.888,0,0,0-.187-.08l-.428-.127h0l0,0a.013.013,0,0,1,0-.01l.3-1.012a.013.013,0,0,1,.006-.008h.01l.428.127a.877.877,0,0,0,.962-.326,3.454,3.454,0,0,1,.256-.314.876.876,0,0,0,.122-1.01l-.212-.393a.011.011,0,0,1,0-.01.01.01,0,0,1,.006-.008l.928-.5.006,0,.007,0a.01.01,0,0,1,0,0h0l.212.393.021.037a.877.877,0,0,0,.751.425.841.841,0,0,0,.14-.011,3.369,3.369,0,0,1,.4-.042.878.878,0,0,0,.8-.628l.128-.427a.011.011,0,0,1,.006-.008h.01l1.011.3h0l0,0a.014.014,0,0,1,0,.01l-.127.428a.881.881,0,0,0,.09.707.869.869,0,0,0,.236.256,3.5,3.5,0,0,1,.314.255.88.88,0,0,0,1.01.122l.393-.212.006,0,.007,0,0,0,.5.929a.012.012,0,0,1,0,.01.013.013,0,0,1-.006.008l-.393.212a.877.877,0,0,0-.45.913,3.411,3.411,0,0,1,.042.4.88.88,0,0,0,.627.8l.428.127h0l0,0A.012.012,0,0,1,2999.807,2727.378Z" transform="translate(-1645.505 -981.735)"/><g transform="translate(1347.706 1742.263)"><path class="b" d="M3312.707,3041.485a2.092,2.092,0,1,0,1.29.948A2.078,2.078,0,0,0,3312.707,3041.485Zm.158,3.118a1.27,1.27,0,1,1,.429-1.745A1.271,1.271,0,0,1,3312.865,3044.6Z" transform="translate(-3310.115 -3041.424)"/></g><path class="c" d="M1347.622,1727.313H1328.1a2.126,2.126,0,0,0-2.123,2.124v13.332a2.123,2.123,0,0,0,2.123,2.123h13.7a.471.471,0,0,0,.468-.473v-.008h0v0h0a.471.471,0,0,0-.468-.483h-13.7a1.158,1.158,0,0,1-1.158-1.158v-8.255h21.836v1.558a.476.476,0,0,0,.422.472l.014,0a.476.476,0,0,0,.529-.473v-6.637A2.126,2.126,0,0,0,1347.622,1727.313Zm-20.677,3.958v-1.834a1.16,1.16,0,0,1,1.158-1.159h19.519a1.16,1.16,0,0,1,1.158,1.159v1.834Z" transform="translate(0 0)"/><path class="c" d="M1.6,0h1a1.6,1.6,0,0,1,1.6,1.6v0a1.6,1.6,0,0,1-1.6,1.6h-1A1.6,1.6,0,0,1,0,1.6v0A1.6,1.6,0,0,1,1.6,0Z" transform="translate(1329.329 1739.63)"/></g></svg>