<svg xmlns="http://www.w3.org/2000/svg" width="32.638" height="32.091" viewBox="0 0 32.638 32.091"><defs><style>.a{fill:#fff;}</style></defs><g transform="translate(0 -4.064)"><g transform="translate(7.907 23.956)"><path class="a" d="M141.849,300.064H139.7a.537.537,0,0,0-.538.538h-5.376a.535.535,0,0,0-.38.158l-3.028,3.028-10.662-1.854a1.757,1.757,0,0,0-1.187,3.249l11.728,6.841a1.754,1.754,0,0,0,1.671.054l5.748-2.874h1.486a.537.537,0,0,0,.538.538h2.15a.537.537,0,0,0,.538-.538v-8.6A.537.537,0,0,0,141.849,300.064Zm-2.688,8.064h-1.613a.539.539,0,0,0-.24.056l-5.862,2.931a.68.68,0,0,1-.648-.021l-11.728-6.841a.682.682,0,0,1,.46-1.261l9.916,1.725-.435.435a2.058,2.058,0,1,0,2.911,2.91l2.781-2.78-.76-.76-2.781,2.781a.983.983,0,0,1-1.678-.7.977.977,0,0,1,.288-.7l4.236-4.235h5.154Zm2.15.538h-1.075v-7.527h1.075Z" transform="translate(-117.656 -300.064)"/></g><g transform="translate(15.971 12.128)"><path class="a" d="M240.882,124.064a3.226,3.226,0,1,0,3.226,3.226A3.229,3.229,0,0,0,240.882,124.064Zm0,5.376a2.151,2.151,0,1,1,2.151-2.151A2.153,2.153,0,0,1,240.882,129.44Z" transform="translate(-237.656 -124.064)"/></g><g transform="translate(0 4.064)"><g transform="translate(0 0)"><path class="a" d="M29.412,4.064H8.982a.537.537,0,0,0-.538.538V8.9h-4.3a.535.535,0,0,0-.38.158L0,12.824l.76.76L4.366,9.978H8.445V13.2H5.756v1.075h6.989a1.075,1.075,0,0,1,0,2.151H8.982a.531.531,0,0,0-.207.042.538.538,0,0,0-.174.116L6.989,18.2l.76.76.7-.7v3H.38v1.075H29.412a.537.537,0,0,0,.538-.538V4.6A.537.537,0,0,0,29.412,4.064ZM9.52,9.44h1.545A2.159,2.159,0,0,1,9.52,10.985Zm0,11.828V19.723a2.159,2.159,0,0,1,1.545,1.545Zm19.355,0H27.33a2.159,2.159,0,0,1,1.545-1.545Zm0-2.64a3.23,3.23,0,0,0-2.64,2.64H12.16a3.23,3.23,0,0,0-2.64-2.64V17.5h3.226a2.151,2.151,0,0,0,0-4.3H9.52V12.08a3.23,3.23,0,0,0,2.64-2.64H26.235a3.23,3.23,0,0,0,2.64,2.64Zm0-7.643A2.159,2.159,0,0,1,27.33,9.44h1.545Zm0-2.62H9.52V7.29H28.874Zm0-2.151H9.52V5.139H28.874Z" transform="translate(0 -4.064)"/></g></g></g></svg>