<svg xmlns="http://www.w3.org/2000/svg" width="29.04" height="22.914" viewBox="0 0 29.04 22.914"><defs><style>.a{fill:#fff;}</style></defs><g transform="translate(0 -54)"><g transform="translate(0 54)"><path class="a" d="M216.567,438a.567.567,0,1,0,.4.166A.572.572,0,0,0,216.567,438Z" transform="translate(-203.749 -416.22)"/><path class="a" d="M29.04,59.119a5.119,5.119,0,1,0-10.238,0c0,.11,0,.218.011.326H1.563A1.565,1.565,0,0,0,0,61.008V75.351a1.565,1.565,0,0,0,1.563,1.563h8.7a.567.567,0,0,0,0-1.134H1.937L8.712,69l3.683,3.683a.567.567,0,0,0,.8,0L16.9,68.982l6.8,6.8h-8.33a.567.567,0,0,0,0,1.134h8.7a1.565,1.565,0,0,0,1.563-1.563V63.942a5.128,5.128,0,0,0,3.4-4.823ZM1.134,74.978V61.426L7.91,68.2ZM12.8,71.484l-10.9-10.9H19.015A5.138,5.138,0,0,0,20.976,63.3ZM24.5,74.978l-6.8-6.8,4.31-4.31a5.092,5.092,0,0,0,1.906.368A5.153,5.153,0,0,0,24.5,64.2ZM23.921,63.1a3.984,3.984,0,1,1,3.984-3.984A3.989,3.989,0,0,1,23.921,63.1Z" transform="translate(0 -54)"/><path class="a" d="M399.414,102.25h-.776a.567.567,0,0,0,0,1.134h.209v3.063a.567.567,0,1,0,1.134,0v-3.63A.567.567,0,0,0,399.414,102.25Z" transform="translate(-375.493 -99.513)"/></g></g></svg>