<svg xmlns="http://www.w3.org/2000/svg" width="32.042" height="32.037" viewBox="0 0 32.042 32.037"><defs><style>.a{fill:#fff;}</style></defs><g transform="translate(-8 -8.072)"><path class="a" d="M37.458,56.028v-3.1A3.622,3.622,0,0,0,33.84,49.31h-3.1V46.177a2.523,2.523,0,0,0-1.251-2.184,2.582,2.582,0,0,0-2.567-.055l-.833.415V42.668a2.63,2.63,0,0,0-1.543-2.432,2.509,2.509,0,0,0-2.717.41L11.94,49.31h-.322A3.622,3.622,0,0,0,8,52.927V66.364a3.622,3.622,0,0,0,3.618,3.618H33.84a3.622,3.622,0,0,0,3.618-3.618v-3.1a2.587,2.587,0,0,0,2.584-2.584V58.612A2.587,2.587,0,0,0,37.458,56.028ZM27.4,44.854a1.564,1.564,0,0,1,1.561.028,1.5,1.5,0,0,1,.745,1.3V49.31H18.463Zm-4.89-3.431a1.467,1.467,0,0,1,1.609-.245,1.608,1.608,0,0,1,.936,1.49v2.2L16.147,49.31H13.509ZM36.424,66.364a2.587,2.587,0,0,1-2.584,2.584H11.618a2.587,2.587,0,0,1-2.584-2.584V52.927a2.587,2.587,0,0,1,2.584-2.584H33.84a2.587,2.587,0,0,1,2.584,2.584v3.1H31.256c-2.584,0-2.584,2.723-2.584,3.618s0,3.618,2.584,3.618h5.168Zm2.584-5.685a1.552,1.552,0,0,1-1.55,1.55h-6.2c-.931,0-1.55-.44-1.55-2.584s.62-2.584,1.55-2.584h6.2a1.552,1.552,0,0,1,1.55,1.55Z" transform="translate(0 -29.873)"/><path class="a" d="M362.067,312a2.067,2.067,0,1,0,2.067,2.067A2.069,2.069,0,0,0,362.067,312Zm0,3.1a1.034,1.034,0,1,1,1.034-1.034A1.035,1.035,0,0,1,362.067,315.1Z" transform="translate(-329.261 -284.294)"/><path class="a" d="M384.571,16.216l-.323.194a.517.517,0,0,0-.044.857l2.067,1.55a.517.517,0,0,0,.6.017l.091-.06a7.259,7.259,0,0,0,3.222-5.538h.68a.881.881,0,0,0,.654-1.47l-2.36-3.174a1.276,1.276,0,0,0-1.033-.519h0a1.275,1.275,0,0,0-1.033.52l-2.345,3.158a.89.89,0,0,0,.661,1.485h.717A3.218,3.218,0,0,1,384.571,16.216Zm2.527-3.5a.505.505,0,0,0-.037-.169l-.01-.024h0a.515.515,0,0,0-.233-.26c-.1-.055,0,0,0,0a.529.529,0,0,0-.09-.038.629.629,0,0,0-.165-.024H385.7l2.223-2.994a.248.248,0,0,1,.2-.1.251.251,0,0,1,.2.1l2.226,2.994h-.87a.517.517,0,0,0-.517.517,6.231,6.231,0,0,1-2.571,5.049l-1.171-.879a4.252,4.252,0,0,0,1.674-4.172Z" transform="translate(-351.708)"/></g></svg>