<svg xmlns="http://www.w3.org/2000/svg" width="31.094" height="21.359" viewBox="0 0 31.094 21.359"><defs><style>.a{fill:#fff;}</style></defs><g transform="translate(-157.816 -232.202)"><g transform="translate(157.816 240.451)"><g transform="translate(0 0)"><g transform="translate(5.245 1.011)"><path class="a" d="M249.824,387.046a.486.486,0,0,1-.047-.969l5.746-.569a1.032,1.032,0,0,0,.866-1.168,1.122,1.122,0,0,0-.372-.74.942.942,0,0,0-.707-.235l-3.165.314a7.133,7.133,0,0,1-4.081-.819,6.186,6.186,0,0,0-3.529-.71l-1.814.18a.486.486,0,1,1-.1-.967l1.814-.18a7.153,7.153,0,0,1,4.081.819,6.175,6.175,0,0,0,3.529.71l3.165-.314a1.877,1.877,0,0,1,1.443.471,2.09,2.09,0,0,1,.7,1.375,2,2,0,0,1-1.737,2.23l-5.746.569Z" transform="translate(-242.187 -381.148)"/></g><g transform="translate(6.153 1.496)"><path class="a" d="M265.085,400.346a6.96,6.96,0,0,1-2.879-.624l-1.04-.472a6,6,0,0,0-3.067-.514l-.77.076a.486.486,0,1,1-.1-.967l.77-.076a6.962,6.962,0,0,1,3.565.6l1.041.472a5.966,5.966,0,0,0,4.849.049l11.851-6.106a1.391,1.391,0,0,0,.765-.822,1.584,1.584,0,0,0-.079-1.248,1.318,1.318,0,0,0-1.739-.65l-7.905,3.246a.486.486,0,1,1-.369-.9l7.878-3.233a2.275,2.275,0,0,1,3,1.1,2.558,2.558,0,0,1,.127,2.017,2.331,2.331,0,0,1-1.263,1.371l-11.851,6.106A6.962,6.962,0,0,1,265.085,400.346Z" transform="translate(-256.794 -388.958)"/></g><path class="a" d="M159.817,378a.486.486,0,0,1-.047-.969l3.325-.33a.964.964,0,0,0,.862-1.052l-.884-8.918a.964.964,0,0,0-1.052-.863l-3.678.306a.486.486,0,0,1-.081-.968l3.67-.305a1.93,1.93,0,0,1,2.108,1.734l.884,8.918a1.936,1.936,0,0,1-1.733,2.115l-3.325.33Z" transform="translate(-157.817 -364.892)"/></g><g transform="translate(2.66 8.46)"><path class="a" d="M201.114,502a.518.518,0,1,1,.518-.518A.542.542,0,0,1,201.114,502Z" transform="translate(-200.596 -500.964)"/></g></g><g transform="translate(178.161 236.852)"><path class="a" d="M494.468,311.339H486.4a1.34,1.34,0,0,1-1.34-1.338v-1.672a1.34,1.34,0,0,1,1.34-1.337h8.066a1.345,1.345,0,0,1,1.343,1.343V310A1.339,1.339,0,0,1,494.468,311.339Zm-8.071-3.376a.368.368,0,0,0-.369.366V310a.368.368,0,0,0,.369.366h8.071a.366.366,0,0,0,.366-.366v-1.667a.377.377,0,0,0-.371-.371Z" transform="translate(-485.056 -306.992)"/><g transform="translate(2.563)"><path class="a" d="M526.768,311.341a.486.486,0,0,1-.486-.486v-3.377a.486.486,0,0,1,.972,0v3.377A.486.486,0,0,1,526.768,311.341Z" transform="translate(-526.282 -306.992)"/><g transform="translate(2.326)"><path class="a" d="M564.186,311.341a.486.486,0,0,1-.486-.486v-3.377a.486.486,0,0,1,.972,0v3.377A.486.486,0,0,1,564.186,311.341Z" transform="translate(-563.7 -306.992)"/></g><g transform="translate(4.653)"><path class="a" d="M601.611,311.341a.486.486,0,0,1-.486-.486v-3.377a.486.486,0,0,1,.972,0v3.377A.486.486,0,0,1,601.611,311.341Z" transform="translate(-601.125 -306.992)"/></g></g></g><g transform="translate(175.655 233.474)"><g transform="translate(0)"><path class="a" d="M454.166,257.017h-8.072a1.34,1.34,0,0,1-1.34-1.337v-1.672a1.34,1.34,0,0,1,1.34-1.337h8.066a1.345,1.345,0,0,1,1.343,1.343v1.667A1.339,1.339,0,0,1,454.166,257.017Zm-8.072-3.376a.368.368,0,0,0-.369.366v1.672a.368.368,0,0,0,.369.366h8.072a.366.366,0,0,0,.366-.366v-1.667a.377.377,0,0,0-.372-.372Z" transform="translate(-444.754 -252.67)"/></g><g transform="translate(2.563)"><path class="a" d="M486.466,257.019a.486.486,0,0,1-.486-.486v-3.377a.486.486,0,1,1,.972,0v3.377A.486.486,0,0,1,486.466,257.019Z" transform="translate(-485.98 -252.67)"/><g transform="translate(2.327)"><path class="a" d="M523.891,257.019a.486.486,0,0,1-.486-.486v-3.377a.486.486,0,0,1,.972,0v3.377A.486.486,0,0,1,523.891,257.019Z" transform="translate(-523.405 -252.67)"/></g><g transform="translate(4.653)"><path class="a" d="M561.309,257.019a.486.486,0,0,1-.486-.486v-3.377a.486.486,0,0,1,.972,0v3.377A.486.486,0,0,1,561.309,257.019Z" transform="translate(-560.823 -252.67)"/></g></g></g><g transform="translate(164.446 235.579)"><g transform="translate(0 0)"><path class="a" d="M273.862,290.872H265.79a1.341,1.341,0,0,1-1.34-1.338v-1.672a1.341,1.341,0,0,1,1.34-1.338h8.066a1.345,1.345,0,0,1,1.343,1.343v1.667A1.339,1.339,0,0,1,273.862,290.872ZM265.79,287.5a.368.368,0,0,0-.369.366v1.672a.368.368,0,0,0,.369.366h8.071a.366.366,0,0,0,.366-.366v-1.667a.377.377,0,0,0-.372-.371Z" transform="translate(-264.45 -286.524)"/></g><g transform="translate(2.563 0)"><path class="a" d="M306.162,290.873a.486.486,0,0,1-.486-.486V287.01a.486.486,0,0,1,.972,0v3.377A.486.486,0,0,1,306.162,290.873Z" transform="translate(-305.676 -286.524)"/><g transform="translate(2.326)"><path class="a" d="M343.579,290.873a.486.486,0,0,1-.486-.486V287.01a.486.486,0,0,1,.972,0v3.377A.486.486,0,0,1,343.579,290.873Z" transform="translate(-343.093 -286.524)"/></g><g transform="translate(4.653)"><path class="a" d="M381,290.873a.486.486,0,0,1-.486-.486V287.01a.486.486,0,0,1,.972,0v3.377A.486.486,0,0,1,381,290.873Z" transform="translate(-380.519 -286.524)"/></g></g></g><g transform="translate(161.94 232.202)"><g transform="translate(0)"><path class="a" d="M233.559,236.55h-8.071a1.341,1.341,0,0,1-1.341-1.338V233.54a1.341,1.341,0,0,1,1.341-1.338h8.066a1.345,1.345,0,0,1,1.343,1.343v1.667A1.339,1.339,0,0,1,233.559,236.55Zm-8.071-3.376a.368.368,0,0,0-.369.366v1.672a.368.368,0,0,0,.369.366h8.071a.366.366,0,0,0,.366-.366v-1.667a.377.377,0,0,0-.372-.372Z" transform="translate(-224.147 -232.202)"/></g><g transform="translate(2.563)"><path class="a" d="M265.859,236.551a.486.486,0,0,1-.486-.486v-3.377a.486.486,0,0,1,.972,0v3.377A.486.486,0,0,1,265.859,236.551Z" transform="translate(-265.373 -232.202)"/><g transform="translate(2.327)"><path class="a" d="M303.284,236.551a.486.486,0,0,1-.486-.486v-3.377a.486.486,0,0,1,.972,0v3.377A.486.486,0,0,1,303.284,236.551Z" transform="translate(-302.798 -232.202)"/></g><g transform="translate(4.653)"><path class="a" d="M340.71,236.551a.486.486,0,0,1-.486-.486v-3.377a.486.486,0,1,1,.972,0v3.377A.486.486,0,0,1,340.71,236.551Z" transform="translate(-340.224 -232.202)"/></g></g></g></g></svg>