<svg id="Layer_1" data-name="Layer 1" xmlns="http://www.w3.org/2000/svg" viewBox="0 0 48 32.99"><defs><style>.cls-1{fill:#fff;}</style></defs><g id="_378" data-name=" 378"><g id="Group_258" data-name="Group 258"><g id="Group_256" data-name="Group 256"><g id="Group_253" data-name="Group 253"><path id="Path_538" data-name="Path 538" class="cls-1" d="M20.87,33.77a.75.75,0,0,1-.07-1.5l8.87-.88A1.6,1.6,0,0,0,31,29.59a1.73,1.73,0,0,0-.58-1.14,1.46,1.46,0,0,0-1.09-.37l-4.89.49a11,11,0,0,1-6.3-1.27,9.47,9.47,0,0,0-5.45-1.09l-2.8.27A.75.75,0,1,1,9.74,25l2.81-.28A11,11,0,0,1,18.85,26a9.47,9.47,0,0,0,5.45,1.09l4.89-.48a2.87,2.87,0,0,1,2.22.73,3.23,3.23,0,0,1,1.09,2.12,3.1,3.1,0,0,1-2.69,3.44l-8.87.88Z" transform="translate(-1 -10.35)"/></g><g id="Group_254" data-name="Group 254"><path id="Path_539" data-name="Path 539" class="cls-1" d="M23.28,43a10.7,10.7,0,0,1-4.45-1l-1.6-.73a9.3,9.3,0,0,0-4.74-.79l-1.19.12a.75.75,0,0,1-.15-1.5h0L12.34,39a10.73,10.73,0,0,1,5.5.93l1.61.73a9.26,9.26,0,0,0,7.49.08l18.3-9.43a2.14,2.14,0,0,0,1.18-1.27,2.44,2.44,0,0,0-.12-1.93,2,2,0,0,0-2.69-1l-12.2,5a.75.75,0,1,1-.57-1.39l12.16-5a3.52,3.52,0,0,1,4.64,1.69,3.94,3.94,0,0,1,.19,3.12,3.58,3.58,0,0,1-1.95,2.12l-18.3,9.43A10.61,10.61,0,0,1,23.28,43Z" transform="translate(-1 -10.35)"/></g><g id="Group_255" data-name="Group 255"><path id="Path_540" data-name="Path 540" class="cls-1" d="M4.06,43.34A.75.75,0,0,1,4,41.84l5.13-.51a1.48,1.48,0,0,0,1.34-1.62L9.09,25.94A1.5,1.5,0,0,0,7.47,24.6l-5.68.48a.75.75,0,0,1-.13-1.5l5.67-.47a3,3,0,0,1,3.25,2.68h0L12,39.56a3,3,0,0,1-2.68,3.27l-5.13.51Z" transform="translate(-1 -10.35)"/></g></g><g id="Group_257" data-name="Group 257"><path id="Path_541" data-name="Path 541" class="cls-1" d="M5.88,37.76a.8.8,0,1,1,.8-.8A.83.83,0,0,1,5.88,37.76Z" transform="translate(-1 -10.35)"/></g></g><g id="Group_264" data-name="Group 264"><g id="Group_259" data-name="Group 259"><path id="Path_542" data-name="Path 542" class="cls-1" d="M46.93,24.25H34.47a2.07,2.07,0,0,1-2.07-2.06V19.6a2.07,2.07,0,0,1,2.07-2.06H46.93A2.07,2.07,0,0,1,49,19.61v2.57a2.07,2.07,0,0,1-2.07,2.07ZM34.46,19a.57.57,0,0,0-.57.56v2.58a.58.58,0,0,0,.57.57H46.93a.56.56,0,0,0,.56-.57V19.61a.57.57,0,0,0-.57-.57Z" transform="translate(-1 -10.35)"/></g><g id="Group_263" data-name="Group 263"><g id="Group_260" data-name="Group 260"><path id="Path_543" data-name="Path 543" class="cls-1" d="M37.1,24.26a.76.76,0,0,1-.75-.75h0V18.29a.75.75,0,1,1,1.5,0v5.22A.75.75,0,0,1,37.1,24.26Z" transform="translate(-1 -10.35)"/></g><g id="Group_261" data-name="Group 261"><path id="Path_544" data-name="Path 544" class="cls-1" d="M40.69,24.26a.76.76,0,0,1-.75-.75h0V18.29a.76.76,0,0,1,.76-.75.75.75,0,0,1,.74.75v5.22A.75.75,0,0,1,40.69,24.26Z" transform="translate(-1 -10.35)"/></g><g id="Group_262" data-name="Group 262"><path id="Path_545" data-name="Path 545" class="cls-1" d="M44.29,24.26a.75.75,0,0,1-.75-.75h0V18.29a.75.75,0,0,1,1.5,0v5.22A.76.76,0,0,1,44.29,24.26Z" transform="translate(-1 -10.35)"/></g></g></g><g id="Group_270" data-name="Group 270"><g id="Group_265" data-name="Group 265"><path id="Path_546" data-name="Path 546" class="cls-1" d="M43.06,19H30.59A2.08,2.08,0,0,1,28.52,17V14.39a2.08,2.08,0,0,1,2.07-2.07H43.05a2.08,2.08,0,0,1,2.07,2.08V17A2.07,2.07,0,0,1,43.06,19ZM30.59,13.82a.57.57,0,0,0-.57.57V17a.56.56,0,0,0,.57.56H43.06a.56.56,0,0,0,.56-.56V14.39a.57.57,0,0,0-.57-.57Z" transform="translate(-1 -10.35)"/></g><g id="Group_269" data-name="Group 269"><g id="Group_266" data-name="Group 266"><path id="Path_547" data-name="Path 547" class="cls-1" d="M33.23,19a.76.76,0,0,1-.75-.75V13.07a.75.75,0,0,1,1.5,0h0v5.22A.75.75,0,0,1,33.23,19Z" transform="translate(-1 -10.35)"/></g><g id="Group_267" data-name="Group 267"><path id="Path_548" data-name="Path 548" class="cls-1" d="M36.83,19a.75.75,0,0,1-.75-.75h0V13.07a.74.74,0,0,1,.75-.74.75.75,0,0,1,.75.74v5.22A.76.76,0,0,1,36.83,19Z" transform="translate(-1 -10.35)"/></g><g id="Group_268" data-name="Group 268"><path id="Path_549" data-name="Path 549" class="cls-1" d="M40.42,19a.75.75,0,0,1-.75-.75h0V13.07a.75.75,0,0,1,1.5,0v5.22A.76.76,0,0,1,40.42,19Z" transform="translate(-1 -10.35)"/></g></g></g><g id="Group_276" data-name="Group 276"><g id="Group_271" data-name="Group 271"><path id="Path_550" data-name="Path 550" class="cls-1" d="M25.75,22.29H13.28a2.08,2.08,0,0,1-2.07-2.07V17.64a2.08,2.08,0,0,1,2.07-2.07H25.74a2.08,2.08,0,0,1,2.07,2.08v2.57A2.07,2.07,0,0,1,25.75,22.29ZM13.28,17.08a.57.57,0,0,0-.57.57v2.58a.57.57,0,0,0,.57.56H25.75a.56.56,0,0,0,.56-.56V17.65a.58.58,0,0,0-.57-.57Z" transform="translate(-1 -10.35)"/></g><g id="Group_275" data-name="Group 275"><g id="Group_272" data-name="Group 272"><path id="Path_551" data-name="Path 551" class="cls-1" d="M15.92,22.29a.76.76,0,0,1-.75-.75V16.32a.75.75,0,0,1,.76-.74.74.74,0,0,1,.74.74v5.22A.75.75,0,0,1,15.92,22.29Z" transform="translate(-1 -10.35)"/></g><g id="Group_273" data-name="Group 273"><path id="Path_552" data-name="Path 552" class="cls-1" d="M19.51,22.29a.76.76,0,0,1-.75-.75V16.32a.76.76,0,0,1,.76-.74.74.74,0,0,1,.74.74v5.22A.75.75,0,0,1,19.51,22.29Z" transform="translate(-1 -10.35)"/></g><g id="Group_274" data-name="Group 274"><path id="Path_553" data-name="Path 553" class="cls-1" d="M23.1,22.29a.76.76,0,0,1-.75-.75V16.32a.75.75,0,0,1,1.5,0v5.22A.76.76,0,0,1,23.1,22.29Z" transform="translate(-1 -10.35)"/></g></g></g><g id="Group_282" data-name="Group 282"><g id="Group_277" data-name="Group 277"><path id="Path_554" data-name="Path 554" class="cls-1" d="M21.88,17.07H9.41A2.07,2.07,0,0,1,7.34,15V12.42a2.07,2.07,0,0,1,2.07-2.06H21.87a2.07,2.07,0,0,1,2.07,2.07V15A2.06,2.06,0,0,1,21.88,17.07ZM9.41,11.86a.57.57,0,0,0-.57.56V15a.57.57,0,0,0,.57.56H21.88a.56.56,0,0,0,.56-.56V12.43a.58.58,0,0,0-.57-.57Z" transform="translate(-1 -10.35)"/></g><g id="Group_281" data-name="Group 281"><g id="Group_278" data-name="Group 278"><path id="Path_555" data-name="Path 555" class="cls-1" d="M12.05,17.07a.75.75,0,0,1-.75-.75V11.11a.75.75,0,1,1,1.5,0v5.21A.74.74,0,0,1,12.05,17.07Z" transform="translate(-1 -10.35)"/></g><g id="Group_279" data-name="Group 279"><path id="Path_556" data-name="Path 556" class="cls-1" d="M15.65,17.07a.75.75,0,0,1-.76-.75V11.11a.76.76,0,0,1,1.51,0v5.21A.75.75,0,0,1,15.65,17.07Z" transform="translate(-1 -10.35)"/></g><g id="Group_280" data-name="Group 280"><path id="Path_557" data-name="Path 557" class="cls-1" d="M19.24,17.07a.74.74,0,0,1-.75-.75V11.11a.75.75,0,0,1,.74-.76.76.76,0,0,1,.76.75h0v5.21A.75.75,0,0,1,19.24,17.07Z" transform="translate(-1 -10.35)"/></g></g></g></g></svg>