<svg id="Layer_1" data-name="Layer 1" xmlns="http://www.w3.org/2000/svg" viewBox="0 0 48 37.89"><defs><style>.cls-1{fill:none;}.cls-2{fill:#295b84;}.cls-3{fill:#fff;}</style></defs><g id="Group_103" data-name="Group 103"><path id="Path_84" data-name="Path 84" class="cls-1" d="M28.39,34.88Z" transform="translate(-1 -5)"/><path id="Path_85" data-name="Path 85" class="cls-2" d="M37.34,8.38a1.85,1.85,0,0,0-1.85-1.84H4.39A1.85,1.85,0,0,0,2.54,8.38v2.93h34.8Z" transform="translate(-1 -5)"/><path id="Path_86" data-name="Path 86" class="cls-3" d="M37.43,30.35a2,2,0,0,0,2.1,3.47A2,2,0,0,0,40.21,31h0A2,2,0,0,0,37.43,30.35Z" transform="translate(-1 -5)"/><path id="Path_87" data-name="Path 87" class="cls-1" d="M47.91,32a2.74,2.74,0,0,0,.53-1,2.63,2.63,0,0,0-.23-2.14l-.85-1.48a3.7,3.7,0,0,0-1.58-1.05,5,5,0,0,1-2-1.53,3.86,3.86,0,0,0-1.44-1.28L41,23.15l-.31-.08-.14,0h-.08a.92.92,0,0,1-.37,0h0a.94.94,0,0,1-.32-.11.73.73,0,0,1-.39-.65V19.82H2.54V33a1.91,1.91,0,0,0,2,1.85H27.57a.77.77,0,0,1,.79.76h0A2.64,2.64,0,0,0,28.72,37l.84,1.47a3,3,0,0,0,1.91,1.4,3.42,3.42,0,0,0,1,.07,2.77,2.77,0,0,0,.34,1,3,3,0,0,0,1.77,1.36l1.7.47.14,0,.11,0h0a3.24,3.24,0,0,0,1.35-.05,3,3,0,0,0,1.33-.72l.2-.22a2.92,2.92,0,0,0,1.15.55,3.13,3.13,0,0,0,1.49,0,2.9,2.9,0,0,0,.64-.24l1.56-.8a2.75,2.75,0,0,0,.69-.48,2.64,2.64,0,0,0,.45-.55,2.5,2.5,0,0,0,.3-.64,2.64,2.64,0,0,0,.11-1.08,3.73,3.73,0,0,0,.46-.09,3,3,0,0,0,1.33-.72,2.85,2.85,0,0,0,.74-1.19L48.88,35A2.73,2.73,0,0,0,47.91,32ZM13.65,30a1.12,1.12,0,0,1-1.14,1.08H7.7A1.12,1.12,0,0,1,6.56,30V27.05A1.12,1.12,0,0,1,7.7,26h4.81a1.12,1.12,0,0,1,1.14,1.08Zm33.68,4.59-.5,1.61a1.37,1.37,0,0,1-.7.81,1.45,1.45,0,0,1-.68.16,1.4,1.4,0,0,1-.41-.06l-.72-.2h0l0,0a8.14,8.14,0,0,1-.54.63.06.06,0,0,0,0,.06l.36.63a1.33,1.33,0,0,1,.12,1,1.4,1.4,0,0,1-.7.81l-1.56.8a1.51,1.51,0,0,1-1.4,0,1.41,1.41,0,0,1-.52-.48l0-.06-.36-.62h0l0,0h0a6,6,0,0,1-.85.09.07.07,0,0,0,0,0l-.22.68a1.43,1.43,0,0,1-1.37,1,1.4,1.4,0,0,1-.41-.06L35,40.93a1.57,1.57,0,0,1-.3-.12,1.37,1.37,0,0,1-.2-.13,1.53,1.53,0,0,1-.32-.35A1.27,1.27,0,0,1,34,39.24l.21-.68a0,0,0,0,0,0-.05v0a6.36,6.36,0,0,1-.66-.5h-.07l-.66.33a1.51,1.51,0,0,1-1.4,0,1.37,1.37,0,0,1-.2-.13,1.3,1.3,0,0,1-.31-.35l0-.06L30,36.31a1.31,1.31,0,0,1-.11-1,1.38,1.38,0,0,1,.69-.81l.67-.34s0,0,0,0c0-.27-.07-.53-.09-.8v0l0,0h0l-.72-.2a1.57,1.57,0,0,1-.3-.12,1.5,1.5,0,0,1-.52-.48,1.27,1.27,0,0,1-.14-1.09l.5-1.61a1.34,1.34,0,0,1,.7-.81,1.49,1.49,0,0,1,1.09-.1l.72.2h0l.05,0a5.25,5.25,0,0,1,.53-.62,0,0,0,0,0,0-.07l-.35-.63a1.31,1.31,0,0,1,.5-1.8l.08,0,1.56-.8a1.51,1.51,0,0,1,1.4,0,1.38,1.38,0,0,1,.51.48l0,.06.35.62h0l0,0h0a6,6,0,0,1,.84-.09.07.07,0,0,0,.06,0l.21-.68a1.37,1.37,0,0,1,.7-.81,1.45,1.45,0,0,1,.68-.16,1.4,1.4,0,0,1,.41.06l1.7.47a1.69,1.69,0,0,1,.31.13,1.41,1.41,0,0,1,.52.48,1.3,1.3,0,0,1,.14,1.09l-.21.68a0,0,0,0,0,0,.05v0a6.36,6.36,0,0,1,.66.5h.07L44,27.6a1.54,1.54,0,0,1,1.4,0,1.47,1.47,0,0,1,.51.48h0l0,.06.84,1.48a1.28,1.28,0,0,1,.12,1,1.43,1.43,0,0,1-.7.81l-.66.34a0,0,0,0,0,0,.06,7,7,0,0,1,.08.79v0l0,0h0l.72.2a1.66,1.66,0,0,1,.31.12,1.39,1.39,0,0,1,.51.48,1.27,1.27,0,0,1,.15,1.07Z" transform="translate(-1 -5)"/><path id="Path_88" data-name="Path 88" class="cls-1" d="M46.13,34.19h0l-.68-.2a2.08,2.08,0,0,1-.3-.13,1.38,1.38,0,0,1-.5-.49,1.41,1.41,0,0,1-.2-.66,4.81,4.81,0,0,0-.07-.64,1.4,1.4,0,0,1,.72-1.45l.62-.34a0,0,0,0,0,0,0s0,0,0,0l-.79-1.48h0l-.63.34a1.4,1.4,0,0,1-1.61-.19,4.72,4.72,0,0,0-.5-.41,1.49,1.49,0,0,1-.38-.41A1.44,1.44,0,0,1,41.66,27l.2-.68s0,0,0,0h0l-1.61-.47h0l-.2.68a1.4,1.4,0,0,1-1.27,1c-.22,0-.43,0-.64.06a1.4,1.4,0,0,1-.92-.15,1.33,1.33,0,0,1-.5-.5l0-.06-.33-.62h0L34.83,27s0,0,0,0,0,0,0,0l.34.63a1.41,1.41,0,0,1-.2,1.61,5,5,0,0,0-.41.5A1.4,1.4,0,0,1,33,30.3l-.68-.2h0l-.48,1.61v0h0l.68.2a1.38,1.38,0,0,1,1,1.27c0,.22,0,.43.07.64a1.4,1.4,0,0,1-.72,1.46l-.62.34s0,0,0,0l.8,1.49h0l.62-.34a1.38,1.38,0,0,1,1.55.14l.06,0a6.4,6.4,0,0,0,.5.41,1.35,1.35,0,0,1,.38.41A1.37,1.37,0,0,1,36.3,39l-.2.68v0h0l1.61.48h0a0,0,0,0,0,0,0l.2-.68a1.39,1.39,0,0,1,1.28-1c.21,0,.42,0,.64-.07l.22,0a1.45,1.45,0,0,1,1.2.68l0,.06.34.63h0l1.48-.8h0v0l-.34-.63a1.41,1.41,0,0,1,.2-1.61c.14-.16.28-.32.41-.5A1.38,1.38,0,0,1,45,35.63l.68.2h0l.48-1.61v0Zm-3.93-.44a3.36,3.36,0,1,1-.39-2.52,3.33,3.33,0,0,1,.39,2.52Z" transform="translate(-1 -5)"/><path id="Path_89" data-name="Path 89" class="cls-3" d="M46.79,33a1.26,1.26,0,0,0-.29-.12l-.68-.2h0l0,0v0a7,7,0,0,0-.08-.8.06.06,0,0,1,0-.06l.63-.34a1.36,1.36,0,0,0,.55-1.84h0l-.8-1.48,0-.06h0a1.35,1.35,0,0,0-1.81-.49l-.63.34h-.06a7.79,7.79,0,0,0-.63-.51h0a0,0,0,0,1,0-.05l.2-.68a1.36,1.36,0,0,0-.62-1.57,1.78,1.78,0,0,0-.29-.12l-1.61-.48a1.32,1.32,0,0,0-.39-.06,1.37,1.37,0,0,0-1.31,1l-.2.68s0,0,0,0a7.22,7.22,0,0,0-.8.08h0l0,0h0l-.34-.63,0-.06A1.35,1.35,0,0,0,35.64,25l-1.48.8a1.35,1.35,0,0,0-.54,1.84l.33.63a0,0,0,0,1,0,.06,6,6,0,0,0-.5.63l-.05,0h0l-.68-.21a1.67,1.67,0,0,0-.39-.05,1.35,1.35,0,0,0-1.3,1l-.48,1.61A1.36,1.36,0,0,0,31.44,33h0l.68.2h0l0,0v0a7,7,0,0,0,.08.79.06.06,0,0,1,0,.06l-.63.34A1.36,1.36,0,0,0,31,36.31l.8,1.47,0,.06a1.43,1.43,0,0,0,.3.35l.19.13a1.35,1.35,0,0,0,1.32,0l.63-.34h0a0,0,0,0,1,0,0h0a6,6,0,0,0,.63.5v0a0,0,0,0,1,0,.05l-.2.68a1.37,1.37,0,0,0,.62,1.57,1.48,1.48,0,0,0,.29.12l1.61.48A1.36,1.36,0,0,0,39,40.49h0l.21-.68a0,0,0,0,1,.05,0,5.31,5.31,0,0,0,.79-.09h0l0,0h0l.33.62,0,.06a1.35,1.35,0,0,0,1.81.49l1.48-.79a1.38,1.38,0,0,0,.55-1.85L44,37.62a0,0,0,0,1,0-.07,7.14,7.14,0,0,0,.5-.62.06.06,0,0,1,0,0h0l.68.2a1.36,1.36,0,0,0,1.69-.92h0l.48-1.61A1.35,1.35,0,0,0,46.79,33Zm-.65,1.19-.48,1.61h0l-.68-.2a1.41,1.41,0,0,0-1.54.52,3.89,3.89,0,0,1-.41.5,1.39,1.39,0,0,0-.19,1.61l.34.63h0s0,0,0,0l-1.48.79h0l-.34-.63,0,0a1.33,1.33,0,0,0-.5-.5,1.46,1.46,0,0,0-.92-.16,4.5,4.5,0,0,1-.63.07,1.4,1.4,0,0,0-1.28,1l-.2.68s0,0,0,0h0l-1.61-.47h0v0l.2-.68a1.44,1.44,0,0,0-.14-1.13,1.49,1.49,0,0,0-.38-.41,4.72,4.72,0,0,1-.5-.41l-.06,0-.18-.13a1.42,1.42,0,0,0-1.37,0l-.62.34h0l-.8-1.48a0,0,0,0,1,0,0h0l.62-.34a1.39,1.39,0,0,0,.72-1.46c0-.21-.06-.42-.07-.63a1.38,1.38,0,0,0-.7-1.15l-.29-.13-.69-.2h0l.48-1.62h0l.68.2a1.38,1.38,0,0,0,1.53-.52,6.4,6.4,0,0,1,.41-.5,1.39,1.39,0,0,0,.19-1.61l-.33-.62s0,0,0,0a0,0,0,0,1,0,0l1.48-.8h0l.33.63,0,.06a1.38,1.38,0,0,0,1.19.67h.23a4.5,4.5,0,0,1,.63-.07,1.4,1.4,0,0,0,1.28-1l.2-.68a0,0,0,0,1,0,0h0l1.61.47h0v0l-.2.68a1.4,1.4,0,0,0,.14,1.13,1.49,1.49,0,0,0,.38.41,6.25,6.25,0,0,1,.5.4,1.41,1.41,0,0,0,1.61.2l.62-.34h0l.8,1.48v0h0l-.62.34a1.38,1.38,0,0,0-.72,1.45c0,.21.06.43.07.64a1.38,1.38,0,0,0,1,1.27l.69.21h0Z" transform="translate(-1 -5)"/><g id="Group_102" data-name="Group 102"><g id="Group_101" data-name="Group 101"><path id="Path_90" data-name="Path 90" class="cls-2" d="M39.76,28.92a3.34,3.34,0,1,0,2.05,1.51A3.28,3.28,0,0,0,39.76,28.92Zm.25,5a2,2,0,1,1,.68-2.78A2,2,0,0,1,40,33.89Z" transform="translate(-1 -5)"/></g></g><path id="Path_91" data-name="Path 91" class="cls-3" d="M35.49,5H4.38A3.39,3.39,0,0,0,1,8.38V29.63A3.38,3.38,0,0,0,4.38,33H26.21a.75.75,0,0,0,.75-.75h0a.75.75,0,0,0-.73-.77H4.38a1.84,1.84,0,0,1-1.84-1.85V16.48H37.33V19a.77.77,0,0,0,.68.75h0a.76.76,0,0,0,.84-.67V8.38A3.38,3.38,0,0,0,35.49,5ZM2.54,11.31V8.38A1.85,1.85,0,0,1,4.39,6.54h31.1a1.85,1.85,0,0,1,1.85,1.84v2.93Z" transform="translate(-1 -5)"/><path id="Rectangle_171" data-name="Rectangle 171" class="cls-3" d="M8.89,24.63h1.59A2.55,2.55,0,0,1,13,27.18h0a2.55,2.55,0,0,1-2.55,2.55H8.89a2.55,2.55,0,0,1-2.55-2.55h0A2.55,2.55,0,0,1,8.89,24.63Z" transform="translate(-1 -5)"/></g></svg>