<svg id="Layer_1" data-name="Layer 1" xmlns="http://www.w3.org/2000/svg" viewBox="0 0 47.85 48"><defs><style>.cls-1{fill:#fff;}</style></defs><g id="Group_95" data-name="Group 95"><path id="Path_42" data-name="Path 42" class="cls-1" d="M46.69,1H3.46A2.31,2.31,0,0,0,1.15,3.31V34.19A2.3,2.3,0,0,0,3.46,36.5H24.3a12.35,12.35,0,1,0,24.7.3V3.31A2.32,2.32,0,0,0,46.69,1ZM3.46,2.54H46.69a.78.78,0,0,1,.77.77V7.17H2.69V3.31a.78.78,0,0,1,.77-.77ZM35.88,36.19l-7.39,7.38a10.78,10.78,0,0,1,7.39-17.83Zm-6.3,8.47,7.07-7.06,7.07,7.06a10.75,10.75,0,0,1-14.13,0Zm15.23-1.09-7.39-7.38V25.74a10.78,10.78,0,0,1,7.39,17.83ZM36.65,24.16A12.36,12.36,0,0,0,24.4,35H3.46a.77.77,0,0,1-.77-.77V8.72H47.46V30.54a12.37,12.37,0,0,0-10.81-6.39Z" transform="translate(-1.15 -1)"/><path id="Path_43" data-name="Path 43" class="cls-1" d="M28.93,36.51a7.75,7.75,0,0,1,5.62-7.43l-.42-1.49a9.3,9.3,0,0,0-6.74,8.92Z" transform="translate(-1.15 -1)"/><path id="Path_44" data-name="Path 44" class="cls-1" d="M27.54,38.19A9.77,9.77,0,0,0,28,39.87l1.44-.56a7.47,7.47,0,0,1-.4-1.4Z" transform="translate(-1.15 -1)"/><path id="Path_45" data-name="Path 45" class="cls-1" d="M44.05,34.3l1.48-.44a8.88,8.88,0,0,0-.63-1.57l-1.37.7A7.77,7.77,0,0,1,44.05,34.3Z" transform="translate(-1.15 -1)"/><path id="Path_46" data-name="Path 46" class="cls-1" d="M44.37,36.51c0,.19,0,.38,0,.56l1.54.12c0-.23,0-.46,0-.68a8.54,8.54,0,0,0,0-1l-1.54.18a7.7,7.7,0,0,1,0,.83Z" transform="translate(-1.15 -1)"/><path id="Path_47" data-name="Path 47" class="cls-1" d="M43.65,39.77l1.4.66a8.86,8.86,0,0,0,.57-1.59l-1.49-.39a7.42,7.42,0,0,1-.48,1.32Z" transform="translate(-1.15 -1)"/><path id="Path_48" data-name="Path 48" class="cls-1" d="M7.32,4.09H8.87V5.63H7.32Z" transform="translate(-1.15 -1)"/><path id="Path_49" data-name="Path 49" class="cls-1" d="M4.23,4.09H5.78V5.63H4.23Z" transform="translate(-1.15 -1)"/><path id="Path_50" data-name="Path 50" class="cls-1" d="M10.41,4.09H12V5.63H10.41Z" transform="translate(-1.15 -1)"/><path id="Path_51" data-name="Path 51" class="cls-1" d="M17.36,10.26H6.55a2.33,2.33,0,0,0-2.32,2.32v6.17a2.33,2.33,0,0,0,2.32,2.32H17.36a2.32,2.32,0,0,0,2.31-2.32V12.58A2.32,2.32,0,0,0,17.36,10.26Zm.77,8.49a.77.77,0,0,1-.77.77H6.55a.76.76,0,0,1-.77-.77V12.58a.76.76,0,0,1,.77-.77H17.36a.77.77,0,0,1,.77.77Z" transform="translate(-1.15 -1)"/><path id="Path_52" data-name="Path 52" class="cls-1" d="M17.36,22.61H6.55a2.33,2.33,0,0,0-2.32,2.32V31.1a2.33,2.33,0,0,0,2.32,2.32H17.36a2.33,2.33,0,0,0,2.31-2.32V24.93A2.32,2.32,0,0,0,17.36,22.61Zm.77,8.49a.77.77,0,0,1-.77.77H6.55a.76.76,0,0,1-.77-.77V24.93a.78.78,0,0,1,.77-.78H17.36a.79.79,0,0,1,.77.78Z" transform="translate(-1.15 -1)"/><path id="Path_53" data-name="Path 53" class="cls-1" d="M12.73,16.12,10.41,13.8,6.78,17.43l1.09,1.1L10.41,16l2.32,2.32,4.4-4.41L16,12.8Z" transform="translate(-1.15 -1)"/><path id="Path_54" data-name="Path 54" class="cls-1" d="M15,25.7H13.5v3.09H12V27.24H10.41v1.55H8.87V25.7H7.32v4.63h9.27V28.79H15Z" transform="translate(-1.15 -1)"/><path id="Path_55" data-name="Path 55" class="cls-1" d="M22.76,10.26H24.3v1.55H22.76Z" transform="translate(-1.15 -1)"/><path id="Path_56" data-name="Path 56" class="cls-1" d="M25.85,10.26H45.91v1.55H25.85Z" transform="translate(-1.15 -1)"/><path id="Path_57" data-name="Path 57" class="cls-1" d="M22.76,13.35H45.91v1.54H22.76Z" transform="translate(-1.15 -1)"/><path id="Path_58" data-name="Path 58" class="cls-1" d="M22.76,16.44h4.63V18H22.76Z" transform="translate(-1.15 -1)"/><path id="Path_59" data-name="Path 59" class="cls-1" d="M28.93,16.44h17V18h-17Z" transform="translate(-1.15 -1)"/><path id="Path_60" data-name="Path 60" class="cls-1" d="M22.76,19.52H36.65v1.55H22.76Z" transform="translate(-1.15 -1)"/><path id="Path_61" data-name="Path 61" class="cls-1" d="M38.2,19.52h1.54v1.55H38.2Z" transform="translate(-1.15 -1)"/><path id="Path_62" data-name="Path 62" class="cls-1" d="M41.28,19.52h1.55v1.55H41.28Z" transform="translate(-1.15 -1)"/><path id="Path_63" data-name="Path 63" class="cls-1" d="M44.37,19.52h1.55v1.55H44.37Z" transform="translate(-1.15 -1)"/></g></svg>