<svg xmlns="http://www.w3.org/2000/svg" width="27.557" height="27.557" viewBox="0 0 27.557 27.557"><defs><style>.a{fill:#fff;}</style></defs><g transform="translate(-8 -8)"><path class="a" d="M34.224,8H9.333A1.335,1.335,0,0,0,8,9.333V27.112a1.335,1.335,0,0,0,1.333,1.333h12a7.112,7.112,0,1,0,14.223,0V9.333A1.335,1.335,0,0,0,34.224,8Zm-24.89.889h24.89a.445.445,0,0,1,.444.444v2.222H8.889V9.333A.445.445,0,0,1,9.333,8.889ZM28,28.262l-4.253,4.253A6.208,6.208,0,0,1,28,22.246Zm-3.624,4.881,4.069-4.069,4.069,4.069a6.189,6.189,0,0,1-8.137,0Zm8.766-.628L28.89,28.262V22.246a6.208,6.208,0,0,1,4.253,10.269Zm-4.7-11.18a7.118,7.118,0,0,0-7.05,6.223H9.333a.445.445,0,0,1-.444-.444V12.445H34.668V25.01A7.115,7.115,0,0,0,28.446,21.334Z"/><path class="a" d="M280.889,288.741a4.46,4.46,0,0,1,3.232-4.278l-.242-.856A5.353,5.353,0,0,0,280,288.741Z" transform="translate(-256.888 -260.295)"/><path class="a" d="M281.584,390.705a5.293,5.293,0,0,0,.276.97l.828-.324a4.44,4.44,0,0,1-.23-.808Z" transform="translate(-258.384 -361.29)"/><path class="a" d="M447.58,333.513l.852-.253a5.3,5.3,0,0,0-.36-.9l-.792.4A4.4,4.4,0,0,1,447.58,333.513Z" transform="translate(-414.874 -306.339)"/><path class="a" d="M455.569,366.216q0,.165-.012.327l.887.065c.009-.129.014-.26.014-.392a5.39,5.39,0,0,0-.031-.576l-.884.1a4.635,4.635,0,0,1,.025.48Z" transform="translate(-422.679 -337.77)"/><path class="a" d="M448.5,396.982l.805.377a5.342,5.342,0,0,0,.329-.912l-.861-.224a4.4,4.4,0,0,1-.274.758Z" transform="translate(-416.022 -366.655)"/><path class="a" d="M72,40h.889v.889H72Z" transform="translate(-60.444 -30.222)"/><path class="a" d="M40,40h.889v.889H40Z" transform="translate(-30.222 -30.222)"/><path class="a" d="M104,40h.889v.889H104Z" transform="translate(-90.666 -30.222)"/><path class="a" d="M47.556,104H41.333A1.335,1.335,0,0,0,40,105.333v3.556a1.335,1.335,0,0,0,1.333,1.333h6.223a1.335,1.335,0,0,0,1.333-1.333v-3.556A1.335,1.335,0,0,0,47.556,104ZM48,108.889a.445.445,0,0,1-.444.444H41.333a.445.445,0,0,1-.444-.444v-3.556a.445.445,0,0,1,.444-.444h6.223a.445.445,0,0,1,.444.444Z" transform="translate(-30.222 -90.666)"/><path class="a" d="M47.556,232H41.333A1.335,1.335,0,0,0,40,233.333v3.556a1.335,1.335,0,0,0,1.333,1.333h6.223a1.335,1.335,0,0,0,1.333-1.333v-3.556A1.335,1.335,0,0,0,47.556,232ZM48,236.889a.445.445,0,0,1-.444.444H41.333a.445.445,0,0,1-.444-.444v-3.556a.445.445,0,0,1,.444-.444h6.223a.445.445,0,0,1,.444.444Z" transform="translate(-30.222 -211.555)"/><path class="a" d="M69.77,132.252l-1.333-1.333-2.092,2.092.628.628,1.464-1.464,1.333,1.333,2.537-2.537-.628-.628Z" transform="translate(-55.102 -115.547)"/><path class="a" d="M76.445,264h-.889v1.778h-.889v-.889h-.889v.889h-.889V264H72v2.667h5.334v-.889h-.889Z" transform="translate(-60.444 -241.777)"/><path class="a" d="M232,104h.889v.889H232Z" transform="translate(-211.555 -90.666)"/><path class="a" d="M264,104h11.556v.889H264Z" transform="translate(-241.777 -90.666)"/><path class="a" d="M232,136h13.334v.889H232Z" transform="translate(-211.555 -120.888)"/><path class="a" d="M232,168h2.667v.889H232Z" transform="translate(-211.555 -151.111)"/><path class="a" d="M296,168h9.778v.889H296Z" transform="translate(-271.999 -151.111)"/><path class="a" d="M232,200h8v.889h-8Z" transform="translate(-211.555 -181.333)"/><path class="a" d="M392,200h.889v.889H392Z" transform="translate(-362.665 -181.333)"/><path class="a" d="M424,200h.889v.889H424Z" transform="translate(-392.887 -181.333)"/><path class="a" d="M456,200h.889v.889H456Z" transform="translate(-423.109 -181.333)"/></g></svg>