<svg id="Layer_1" data-name="Layer 1" xmlns="http://www.w3.org/2000/svg" viewBox="0 0 48 48"><defs><style>.cls-1{fill:#fff;}</style></defs><g id="Group_96" data-name="Group 96"><path id="Path_64" data-name="Path 64" class="cls-1" d="M44.2,27.4V25.8A.8.8,0,0,0,45,25h0V20.2a.8.8,0,0,0-.8-.8H39.88l-.15-.61a14.59,14.59,0,0,0-1.63-3.91l-.32-.53,3.07-3.08a.81.81,0,0,0,0-1.12L37.44,6.76a.81.81,0,0,0-1.12,0L33.25,9.83l-.54-.32A14.72,14.72,0,0,0,28.8,7.88l-.6-.15V3.4a.8.8,0,0,0-.8-.8H22.6a.8.8,0,0,0-.8.8h0V7.72l-.61.15a14.52,14.52,0,0,0-3.9,1.63l-.54.32L13.68,6.76a.79.79,0,0,0-1.12,0l-3.4,3.39a.81.81,0,0,0,0,1.13h0l3.07,3.07-.32.54a14.45,14.45,0,0,0-1.63,3.91l-.15.6H5.81a.8.8,0,0,0-.8.8H5V25a.8.8,0,0,0,.8.8h0v1.6A2.39,2.39,0,0,1,3.41,25V20.2a2.39,2.39,0,0,1,2.4-2.4H8.9a16.53,16.53,0,0,1,1.33-3.19L8,12.41A2.39,2.39,0,0,1,8,9H8l3.4-3.4a2.45,2.45,0,0,1,3.39,0L17,7.83A16.09,16.09,0,0,1,20.2,6.5V3.4A2.4,2.4,0,0,1,22.6,1h4.8a2.39,2.39,0,0,1,2.4,2.4h0V6.49A16,16,0,0,1,33,7.83l2.2-2.2a2.43,2.43,0,0,1,3.38,0L42,9a2.39,2.39,0,0,1,0,3.38h0l-2.2,2.2a16.47,16.47,0,0,1,1.34,3.19H44.2a2.4,2.4,0,0,1,2.4,2.4h0V25A2.4,2.4,0,0,1,44.2,27.4Z" transform="translate(-1 -1)"/><path id="Path_65" data-name="Path 65" class="cls-1" d="M36.2,22.6H34.6a9.6,9.6,0,0,0-19.2,0H13.8a11.2,11.2,0,0,1,22.4,0Z" transform="translate(-1 -1)"/><path id="Path_66" data-name="Path 66" class="cls-1" d="M25,29a4.8,4.8,0,1,1,4.8-4.8A4.8,4.8,0,0,1,25,29Zm0-8a3.19,3.19,0,1,0,3.2,3.19A3.19,3.19,0,0,0,25,21Z" transform="translate(-1 -1)"/><path id="Path_67" data-name="Path 67" class="cls-1" d="M38.6,32.19a4.8,4.8,0,1,1,4.8-4.79,4.79,4.79,0,0,1-4.8,4.79Zm0-8a3.19,3.19,0,1,0,3.19,3.19A3.19,3.19,0,0,0,38.6,24.2Z" transform="translate(-1 -1)"/><path id="Path_68" data-name="Path 68" class="cls-1" d="M11.41,32.19a4.8,4.8,0,1,1,4.79-4.8,4.79,4.79,0,0,1-4.79,4.8Zm0-8a3.19,3.19,0,1,0,3.19,3.19,3.19,3.19,0,0,0-3.19-3.19Z" transform="translate(-1 -1)"/><path id="Path_69" data-name="Path 69" class="cls-1" d="M45.85,34.25A7,7,0,0,0,41.8,33H35.4a6.41,6.41,0,0,0-1.16.1,7.15,7.15,0,0,0-2-2,2.92,2.92,0,0,0-.37-.24,7,7,0,0,0-3.71-1H21.8a7.12,7.12,0,0,0-6,3.3A6.6,6.6,0,0,0,14.6,33H8.2a7.07,7.07,0,0,0-4,1.25A7.19,7.19,0,0,0,1,40.2v3.19a5.6,5.6,0,0,0,3.26,5.08A5.4,5.4,0,0,0,6.6,49h8v-1.6H7.41v-8.8H5.81v8.72A3.79,3.79,0,0,1,4.93,47a4,4,0,0,1-2.32-3.63V40.2a5.59,5.59,0,0,1,2.45-4.63,5.53,5.53,0,0,1,3.15-1H14.6l.42,0A7.45,7.45,0,0,0,14.6,37v8a4,4,0,0,0,4,4H21V36.2H19.4V47.4h-.8A2.41,2.41,0,0,1,16.2,45h0V37a5.6,5.6,0,0,1,5.6-5.6h6.4a5.58,5.58,0,0,1,2.92.82l.23.15a5.63,5.63,0,0,1,1.79,2A5.49,5.49,0,0,1,33.8,37v8a2.39,2.39,0,0,1-2.4,2.4h-.8V36.2H29V49h2.4a4,4,0,0,0,4-4V37A7.07,7.07,0,0,0,35,34.63c.14,0,.27,0,.41,0h6.4a5.6,5.6,0,0,1,5.6,5.6v3.19A4,4,0,0,1,45.06,47a3.76,3.76,0,0,1-.86.28V38.59H42.6v8.8H35.4V49h8a5.38,5.38,0,0,0,2.33-.51A5.6,5.6,0,0,0,49,43.39V40.2A7.2,7.2,0,0,0,45.85,34.25Z" transform="translate(-1 -1)"/><path id="Path_70" data-name="Path 70" class="cls-1" d="M21.8,47.39h6.4V49H21.8Z" transform="translate(-1 -1)"/></g></svg>