<svg id="Layer_1" data-name="Layer 1" xmlns="http://www.w3.org/2000/svg" viewBox="0 0 47.98 48"><defs><style>.cls-1{fill:#fff;}</style></defs><g id="User_Setting" data-name="User Setting"><g id="Outline"><path id="Path_529" data-name="Path 529" class="cls-1" d="M19,31.24v-2A10.32,10.32,0,0,0,32.8,24.41a8.29,8.29,0,0,0,.41-1A3.42,3.42,0,0,0,36,20.89l.43-1.71a2.56,2.56,0,0,0-1.6-3l.21-1a11.47,11.47,0,0,0,.19-1.29h0c0-.36.05-.73.05-1.09a11.56,11.56,0,0,0-.91-4.5A11.79,11.79,0,0,0,23.51,1h0a11.85,11.85,0,0,0-4.44.86.75.75,0,0,0-.39,1,.74.74,0,0,0,1,.4A10.29,10.29,0,0,1,33,8.91a10.51,10.51,0,0,1,.67,2.59A7.82,7.82,0,0,0,30.38,10l-.29,0-2.87,1.91a6.66,6.66,0,0,1-7.41,0L16.93,10l-.29,0a7.87,7.87,0,0,0-3.32,1.49,10.17,10.17,0,0,1,2-4.86.75.75,0,0,0-1.2-.9h0a11.65,11.65,0,0,0-2.33,7c0,.36,0,.71.05,1.07h0c0,.44.11.87.19,1.3l.22,1a2.56,2.56,0,0,0-1.61,3L11,20.89a3.42,3.42,0,0,0,2.78,2.55,10.27,10.27,0,0,0,3.7,4.87v2.92a.76.76,0,0,1-.61.74L7.18,33.74A7.5,7.5,0,0,0,1,41.12v7.11a.75.75,0,0,0,1.5,0V41.12a6,6,0,0,1,4.92-5.91l8.67-1.57A7.49,7.49,0,0,0,23.52,40a.75.75,0,1,0,0-1.5,6,6,0,0,1-5.94-5.15A2.26,2.26,0,0,0,19,31.24Zm-3.93-8.72L14.92,22h-.56a1.93,1.93,0,0,1-1.88-1.47l-.42-1.71a.75.75,0,0,1,0-.26,1.06,1.06,0,0,1,1.07-1.06H14l-.54-2.67a8,8,0,0,1-.15-1,5,5,0,0,1,3.3-2.31L19,13.12a8.18,8.18,0,0,0,9.07,0l2.37-1.57a5,5,0,0,1,3.3,2.31c0,.32-.08.64-.15,1L33,17.49h.91A1.06,1.06,0,0,1,35,18.56a1.07,1.07,0,0,1,0,.25l-.42,1.71A2,2,0,0,1,32.64,22H32.1l-.17.53a8.8,8.8,0,0,1-8.43,6.22h0A8.78,8.78,0,0,1,15.08,22.52Z" transform="translate(-1.02 -1)"/><path id="Path_530" data-name="Path 530" class="cls-1" d="M7.77,42.23A.75.75,0,0,0,7,43H7v5.25a.75.75,0,0,0,1.5,0h0V43a.76.76,0,0,0-.75-.75Z" transform="translate(-1.02 -1)"/><path id="Path_531" data-name="Path 531" class="cls-1" d="M16.77,4.8A.75.75,0,1,0,16,4.05a.7.7,0,0,0,.16.46A.75.75,0,0,0,16.77,4.8Z" transform="translate(-1.02 -1)"/><path id="Path_532" data-name="Path 532" class="cls-1" d="M49,39.63V36l-2.86-.92-.51-1.22L47,31.21l-2.54-2.55L41.78,30l-1.22-.5-.91-2.85h-3.6l-.92,2.86-1.22.5-2.68-1.37-2.55,2.55,1.37,2.68-.5,1.22L26.69,36v3.6l2.86.92.5,1.22-1.37,2.68L31.23,47l2.68-1.37,1.22.51L36.05,49h3.6l.92-2.86,1.22-.51L44.47,47,47,44.46l-1.37-2.68.5-1.22Zm-3.82,4.53-1,1L41.85,44l-2.5,1-.8,2.48H37.14L36.34,45l-2.49-1-2.33,1.2-1-1,1.19-2.33-1-2.5-2.49-.8V37.12l2.49-.8,1-2.49L30.52,31.5l1-1,2.33,1.19,2.49-1,.8-2.49h1.41l.8,2.49,2.5,1,2.33-1.19,1,1L44,33.83l1,2.49,2.49.8v1.41l-2.49.8-1,2.5Z" transform="translate(-1.02 -1)"/><path id="Path_533" data-name="Path 533" class="cls-1" d="M39.45,33.57a.71.71,0,0,0-.28-.06A.75.75,0,0,0,38.86,35h0A3,3,0,1,1,35,36.69a.76.76,0,0,0-.45-1,.75.75,0,0,0-1,.44h0a4.5,4.5,0,1,0,5.91-2.59Z" transform="translate(-1.02 -1)"/><path id="Path_534" data-name="Path 534" class="cls-1" d="M36.25,35.06a.8.8,0,0,0,.3-.06h0A.75.75,0,0,0,36,33.61l0,0h0a.75.75,0,0,0-.35,1,.74.74,0,0,0,.68.43Z" transform="translate(-1.02 -1)"/></g></g></svg>