<svg xmlns="http://www.w3.org/2000/svg" width="31.557" height="31.557" viewBox="0 0 31.557 31.557"><defs><style>.a{fill:#fff;}</style></defs><g transform="translate(-19.969 -18.97)"><path class="a" d="M76.746,36.327V35.275a.526.526,0,0,0,.526-.526V31.593a.526.526,0,0,0-.526-.526h-2.84l-.1-.4a9.717,9.717,0,0,0-1.073-2.57l-.21-.352,2.017-2.02a.521.521,0,0,0,0-.736L72.3,22.757a.534.534,0,0,0-.737,0l-2.02,2.02-.352-.21a9.742,9.742,0,0,0-2.573-1.073l-.395-.1V20.548a.526.526,0,0,0-.526-.526H62.545a.526.526,0,0,0-.526.526v2.84l-.4.1a9.741,9.741,0,0,0-2.57,1.072l-.352.211-2.02-2.016a.533.533,0,0,0-.739,0l-2.234,2.234a.522.522,0,0,0,0,.74l2.02,2.02-.21.352a9.719,9.719,0,0,0-1.073,2.57l-.1.4H51.5a.526.526,0,0,0-.526.526v3.156a.526.526,0,0,0,.526.526v1.052a1.578,1.578,0,0,1-1.578-1.578V31.593A1.578,1.578,0,0,1,51.5,30.015h2.035a10.742,10.742,0,0,1,.875-2.095l-1.446-1.446a1.572,1.572,0,0,1,0-2.227L55.2,22.012a1.611,1.611,0,0,1,2.227,0l1.446,1.446a10.745,10.745,0,0,1,2.095-.874V20.548a1.578,1.578,0,0,1,1.578-1.578H65.7a1.578,1.578,0,0,1,1.578,1.578v2.035a10.743,10.743,0,0,1,2.095.875l1.446-1.446a1.611,1.611,0,0,1,2.228,0l2.235,2.235a1.574,1.574,0,0,1,0,2.227L73.836,27.92a10.779,10.779,0,0,1,.875,2.1h2.035a1.578,1.578,0,0,1,1.578,1.578v3.156A1.578,1.578,0,0,1,76.746,36.327Z" transform="translate(-28.375)"/><path class="a" d="M194.446,156.13h-1.052a6.311,6.311,0,0,0-12.623,0h-1.052a7.363,7.363,0,0,1,14.727,0Z" transform="translate(-151.335 -122.96)"/><path class="a" d="M262.75,254.922a3.156,3.156,0,1,1,3.156-3.156A3.156,3.156,0,0,1,262.75,254.922Zm0-5.26a2.1,2.1,0,1,0,2.1,2.1A2.1,2.1,0,0,0,262.75,249.663Z" transform="translate(-227.002 -217.544)"/><path class="a" d="M432.484,294.859a3.156,3.156,0,1,1,3.156-3.156A3.156,3.156,0,0,1,432.484,294.859Zm0-5.26a2.1,2.1,0,1,0,2.1,2.1A2.1,2.1,0,0,0,432.484,289.6Z" transform="translate(-387.795 -255.377)"/><path class="a" d="M93.015,294.859A3.156,3.156,0,1,1,96.17,291.7,3.156,3.156,0,0,1,93.015,294.859Zm0-5.26a2.1,2.1,0,1,0,2.1,2.1A2.1,2.1,0,0,0,93.015,289.6Z" transform="translate(-66.208 -255.377)"/><path class="a" d="M49.457,381.335a4.681,4.681,0,0,0-2.664-.823H42.585a4.706,4.706,0,0,0-.763.069,4.721,4.721,0,0,0-1.288-1.336,2.045,2.045,0,0,0-.242-.158,4.7,4.7,0,0,0-2.44-.679H33.644a4.681,4.681,0,0,0-3.969,2.173,4.726,4.726,0,0,0-.765-.069H24.7a4.681,4.681,0,0,0-2.663.823,4.734,4.734,0,0,0-2.071,3.911v2.1a3.685,3.685,0,0,0,2.142,3.342,3.566,3.566,0,0,0,1.54.34h5.26v-1.052H24.177v-5.785H23.125v5.733a2.467,2.467,0,0,1-.573-.19,2.634,2.634,0,0,1-1.531-2.387v-2.1a3.685,3.685,0,0,1,1.613-3.043,3.638,3.638,0,0,1,2.069-.638H28.91c.093,0,.182.01.272.016a4.732,4.732,0,0,0-.272,1.562v5.26a2.633,2.633,0,0,0,2.63,2.63h1.578v-8.415H32.066v7.363H31.54a1.578,1.578,0,0,1-1.578-1.578v-5.26a3.682,3.682,0,0,1,3.682-3.682h4.208a3.674,3.674,0,0,1,1.917.541,1.3,1.3,0,0,1,.153.1,3.725,3.725,0,0,1,1.179,1.315,3.673,3.673,0,0,1,.432,1.727v5.26a1.578,1.578,0,0,1-1.578,1.578h-.526v-7.363H38.377v8.415h1.578a2.633,2.633,0,0,0,2.63-2.63v-5.26a4.744,4.744,0,0,0-.272-1.562c.091-.006.18-.016.272-.016h4.208a3.64,3.64,0,0,1,2.071.639,3.687,3.687,0,0,1,1.611,3.042v2.1a2.633,2.633,0,0,1-1.54,2.391,2.416,2.416,0,0,1-.564.186v-5.733H47.319v5.785H42.585v1.052h5.26a3.558,3.558,0,0,0,1.531-.336,3.686,3.686,0,0,0,2.151-3.346v-2.1A4.734,4.734,0,0,0,49.457,381.335Z" transform="translate(0 -340.503)"/><path class="a" d="M279.563,598.064h4.208v1.052h-4.208Z" transform="translate(-245.919 -548.589)"/></g></svg>