<svg id="Layer_1" data-name="Layer 1" xmlns="http://www.w3.org/2000/svg" viewBox="0 0 48 48"><defs><style>.cls-1{fill:#fff;}</style></defs><g id="Group_97" data-name="Group 97"><path id="Path_71" data-name="Path 71" class="cls-1" d="M47.45,6.42V8H42.31L34,1.18a.77.77,0,0,0-.5-.18H10.3a3.1,3.1,0,1,0,0,6.19h.07a3.88,3.88,0,0,0,3.79,3.1H18v5.42a3.09,3.09,0,0,0,1.11,2.35,8.51,8.51,0,1,0,12.43.75H47.45v1.54H49V6.42Zm-29,2.32H14.16A2.29,2.29,0,0,1,12,7.19h8ZM18,24.23a7,7,0,0,1,6.19-6.93v1.62A3.09,3.09,0,0,0,25,25a1.55,1.55,0,1,1-1.55,1.55H21.9a3.11,3.11,0,0,0,2.32,3v1.61A7,7,0,0,1,18,24.22Zm7.74-8.48c-.25,0-.51,0-.78,0s-.52,0-.77,0V11.34l3.46-4.15h3.18l1.87,1.87v3.55H28.87a3.1,3.1,0,0,0-3.1,3.1v0Zm0,15.4V29.53A3.09,3.09,0,0,0,25,23.45a1.55,1.55,0,1,1,1.55-1.55h1.55a3.09,3.09,0,0,0-2.34-3V17.3a7,7,0,0,1,0,13.85Zm4.11-13.89a8.5,8.5,0,0,0-2.52-1.21,1.54,1.54,0,0,1,1.17-1.85,1.27,1.27,0,0,1,.34,0h4.64a.78.78,0,0,0,.78-.77V8.74a.74.74,0,0,0-.23-.54L31.75,5.87a.8.8,0,0,0-.55-.22H27.32a.78.78,0,0,0-.6.28l-3.87,4.64a.83.83,0,0,0-.18.5v4.64a1.27,1.27,0,0,1,0,.34,8.72,8.72,0,0,0-2.22,1,1.54,1.54,0,0,1-.84-1.35V9.84L22.44,7a.77.77,0,0,0-.54-1.32H10.29a1.55,1.55,0,0,1,0-3.1h23l8.3,6.79a.74.74,0,0,0,.49.18h5.42v7.74Z" transform="translate(-1 -1)"/><path id="Path_72" data-name="Path 72" class="cls-1" d="M40.48,38.16H22.6a2.4,2.4,0,0,0-.48-.94l-4.27-5a.78.78,0,0,0-.59-.27H8.74v-.78A.77.77,0,0,0,8,30.42H1.77a.78.78,0,0,0-.77.77V46.68a.78.78,0,0,0,.77.77H8a.77.77,0,0,0,.77-.77V45.9h5.19l4.45,3a.78.78,0,0,0,.43.13L19,49l24.78-5.42a.79.79,0,0,0,.61-.75V42A3.88,3.88,0,0,0,40.48,38.16ZM7.19,45.9H2.55V32H7.19Zm35.62-3.72L19,47.4l-4.37-2.92a.83.83,0,0,0-.43-.13H8.74V33.51H16.9L21,38.23a.77.77,0,0,1,.18.5v1a.76.76,0,0,1-.77.77h-.91a.82.82,0,0,1-.55-.22l-3.41-3.42-1.1,1.09,3.42,3.42a2.32,2.32,0,0,0,1.65.68h.9a2.33,2.33,0,0,0,2.33-2.32H40.48A2.33,2.33,0,0,1,42.81,42Z" transform="translate(-1 -1)"/><path id="Path_73" data-name="Path 73" class="cls-1" d="M44.6,32.78A4.16,4.16,0,0,1,42,30.17a.77.77,0,0,0-1-.48.76.76,0,0,0-.49.48,4.12,4.12,0,0,1-2.6,2.61.77.77,0,0,0,0,1.47,4.12,4.12,0,0,1,2.6,2.61.8.8,0,0,0,1,.49.8.8,0,0,0,.48-.49,4.16,4.16,0,0,1,2.61-2.61.77.77,0,0,0,0-1.47Zm-3.34,2.13a5.78,5.78,0,0,0-1.4-1.39,5.82,5.82,0,0,0,1.4-1.4,6,6,0,0,0,1.39,1.4A5.73,5.73,0,0,0,41.26,34.91Z" transform="translate(-1 -1)"/><path id="Path_74" data-name="Path 74" class="cls-1" d="M5.4,17.22A4.16,4.16,0,0,1,8,19.83a.77.77,0,0,0,1,.48.76.76,0,0,0,.49-.48,4.12,4.12,0,0,1,2.6-2.61.77.77,0,0,0,0-1.47,4.12,4.12,0,0,1-2.6-2.61.8.8,0,0,0-1-.49.8.8,0,0,0-.48.49A4.16,4.16,0,0,1,5.4,15.75a.77.77,0,0,0,0,1.47Zm3.34-2.13a5.78,5.78,0,0,0,1.4,1.39,5.82,5.82,0,0,0-1.4,1.4,6,6,0,0,0-1.39-1.4,5.73,5.73,0,0,0,1.39-1.39Z" transform="translate(-1 -1)"/></g></svg>