<svg id="Layer_1" data-name="Layer 1" xmlns="http://www.w3.org/2000/svg" viewBox="0 0 48.82 48"><defs><style>.cls-1{fill:#fff;}</style></defs><g id="Group_144" data-name="Group 144"><g id="Group_139" data-name="Group 139"><g id="Group_138" data-name="Group 138"><path id="Path_319" data-name="Path 319" class="cls-1" d="M48.07,30.75H44.86a.8.8,0,0,0-.81.8H36a.81.81,0,0,0-.57.23l-4.53,4.53L15,33.55a2.63,2.63,0,0,0-1.78,4.86L30.73,48.64a2.61,2.61,0,0,0,2.5.08l8.6-4.3h2.22a.8.8,0,0,0,.8.81h3.22a.8.8,0,0,0,.81-.8h0V31.56a.82.82,0,0,0-.8-.81Zm-4,12.06H41.64a.74.74,0,0,0-.36.09l-8.77,4.38a1,1,0,0,1-1,0L14,37a1,1,0,0,1-.37-1.4,1,1,0,0,1,1.06-.49l14.83,2.58-.65.65a3.08,3.08,0,0,0,4.35,4.36l4.16-4.16-1.13-1.14-4.16,4.16a1.48,1.48,0,0,1-2.08,0,1.43,1.43,0,0,1-.43-1,1.4,1.4,0,0,1,.43-1l6.33-6.34h7.71Zm3.22.81H45.66V32.36h1.61Z" transform="translate(-0.06 -1)"/></g></g><g id="Group_141" data-name="Group 141"><g id="Group_140" data-name="Group 140"><path id="Path_320" data-name="Path 320" class="cls-1" d="M28.77,13.06a4.83,4.83,0,1,0,4.83,4.83h0A4.84,4.84,0,0,0,28.77,13.06Zm0,8A3.22,3.22,0,1,1,32,17.89,3.22,3.22,0,0,1,28.77,21.1Z" transform="translate(-0.06 -1)"/></g></g><g id="Group_143" data-name="Group 143"><g id="Group_142" data-name="Group 142"><path id="Path_321" data-name="Path 321" class="cls-1" d="M44.05,1H13.49a.8.8,0,0,0-.8.8h0V8.23H6.26a.8.8,0,0,0-.57.24L.06,14.1l1.13,1.14,5.4-5.39h6.1v4.81h-4v1.61H19.12a1.61,1.61,0,0,1,0,3.22H13.49a.85.85,0,0,0-.31.06.87.87,0,0,0-.26.18l-2.41,2.41,1.14,1.14,1-1.05v4.49H.63v1.61H44.05a.8.8,0,0,0,.8-.8h0V1.8a.8.8,0,0,0-.8-.8ZM14.3,9h2.31a3.23,3.23,0,0,1-2.31,2.31Zm0,17.69V24.42a3.25,3.25,0,0,1,2.31,2.31Zm29,0H40.94a3.22,3.22,0,0,1,2.31-2.31Zm0-3.95a4.84,4.84,0,0,0-4,3.95h-21a4.85,4.85,0,0,0-3.95-3.95V21.1h4.82a3.22,3.22,0,0,0,0-6.44H14.3V13a4.85,4.85,0,0,0,3.95-4h21a4.84,4.84,0,0,0,4,4Zm0-11.43A3.2,3.2,0,0,1,40.94,9h2.31Zm0-3.92H14.3V5.83h29Zm0-3.21H14.3V2.61h29Z" transform="translate(-0.06 -1)"/></g></g></g></svg>