<svg id="Layer_1" data-name="Layer 1" xmlns="http://www.w3.org/2000/svg" viewBox="0 0 47.01 47"><defs><style>.cls-1{fill:#fff;}</style></defs><g id="Group_252" data-name="Group 252"><path id="Path_535" data-name="Path 535" class="cls-1" d="M44.22,27.53V23a5.31,5.31,0,0,0-5.3-5.31H34.37V13.08a3.72,3.72,0,0,0-1.84-3.21,3.79,3.79,0,0,0-3.76-.08l-1.23.61V7.93a3.83,3.83,0,0,0-2.26-3.57,3.7,3.7,0,0,0-4,.6L6.79,17.67H6.31A5.31,5.31,0,0,0,1,23V42.69A5.3,5.3,0,0,0,6.31,48H38.92a5.3,5.3,0,0,0,5.3-5.31V38.14A3.78,3.78,0,0,0,48,34.35v-3A3.79,3.79,0,0,0,44.22,27.53ZM29.47,11.13a2.29,2.29,0,0,1,2.29,0,2.19,2.19,0,0,1,1.09,1.9v4.59H16.36Zm-7.18-5a2.16,2.16,0,0,1,2.36-.36A2.36,2.36,0,0,1,26,7.93v3.23L13,17.67H9.09ZM42.71,42.69a3.8,3.8,0,0,1-3.79,3.79H6.31a3.8,3.8,0,0,1-3.79-3.79V23a3.8,3.8,0,0,1,3.79-3.79H38.92A3.8,3.8,0,0,1,42.71,23v4.55H35.12c-3.79,0-3.79,4-3.79,5.3s0,5.31,3.79,5.31h7.59Zm3.79-8.34a2.29,2.29,0,0,1-2.28,2.28H35.13c-1.37,0-2.28-.65-2.28-3.8S33.76,29,35.13,29h9.09a2.29,2.29,0,0,1,2.28,2.28Z" transform="translate(-1.01 -1)"/><path id="Path_536" data-name="Path 536" class="cls-1" d="M37.4,29.8a3,3,0,1,0,3,3h0A3,3,0,0,0,37.4,29.8Zm0,4.55a1.52,1.52,0,1,1,1.52-1.52h0A1.52,1.52,0,0,1,37.4,34.35Z" transform="translate(-1.01 -1)"/><path id="Path_537" data-name="Path 537" class="cls-1" d="M37.48,13l-.47.28a.75.75,0,0,0-.26,1,.82.82,0,0,0,.19.22l3,2.27a.75.75,0,0,0,.88,0L41,16.7a10.66,10.66,0,0,0,4.73-8.13h1A1.3,1.3,0,0,0,48,7.28a1.24,1.24,0,0,0-.34-.86L44.21,1.76A1.88,1.88,0,0,0,42.7,1h0a1.89,1.89,0,0,0-1.52.76L37.74,6.4a1.3,1.3,0,0,0,.1,1.84,1.28,1.28,0,0,0,.87.33h1A4.75,4.75,0,0,1,37.48,13Zm3.71-5.14a.74.74,0,0,0,0-.25l0,0h0a.79.79,0,0,0-.34-.38h0a.75.75,0,0,0-.13-.06,1,1,0,0,0-.24,0H39.14l3.26-4.4a.37.37,0,0,1,.29-.14.37.37,0,0,1,.3.14l3.26,4.4H45a.76.76,0,0,0-.76.75,9.14,9.14,0,0,1-3.77,7.41l-1.72-1.29a6.22,6.22,0,0,0,2.45-6.12Z" transform="translate(-1.01 -1)"/></g></svg>