<?xml version="1.0" encoding="utf-8"?>
<!-- Generator: Adobe Illustrator 25.0.0, SVG Export Plug-In . SVG Version: 6.00 Build 0)  -->
<svg version="1.1" id="Layer_1" xmlns="http://www.w3.org/2000/svg" xmlns:xlink="http://www.w3.org/1999/xlink" x="0px" y="0px"
	 viewBox="0 0 32 32" style="enable-background:new 0 0 32 32;" xml:space="preserve">
<style type="text/css">
	.st0{fill:#FFFFFF;}
</style>
<path class="st0" d="M18.1,6c-0.8,0.3-1.4,1.2-1.4,2.1v4.7l1.4,1.8h-1.4v3.2h-1.3v-3.2H14l1.4-1.8V9.1L12,10.5
	c-0.8,0.3-1.4,1.2-1.4,2.1v14.1l3.3-1.4c0.8-0.3,1.4-1.2,1.4-2.1v-3.4h1.3v9l3.3-1.4c0.8-0.3,1.4-1.2,1.4-2.1v-9.7v-0.2V4.6L18.1,6z
	"/>
<g>
	<path class="st0" d="M16,31C7.7,31,1,24.3,1,16C1,7.7,7.7,1,16,1s15,6.7,15,15C31,24.3,24.3,31,16,31z M16,1.9
		C8.2,1.9,1.9,8.2,1.9,16S8.2,30.1,16,30.1S30.1,23.8,30.1,16S23.8,1.9,16,1.9z"/>
</g>
</svg>
