<svg id="Layer_1" data-name="Layer 1" xmlns="http://www.w3.org/2000/svg" viewBox="0 0 47.76 37.69"><defs><style>.cls-1{fill:#fff;}</style></defs><g id="Group_234" data-name="Group 234"><g id="Group_105" data-name="Group 105"><path id="Path_98" data-name="Path 98" class="cls-1" d="M22.32,40.82a.94.94,0,1,0,.66.28A1,1,0,0,0,22.32,40.82Z" transform="translate(-1.24 -5)"/><path id="Path_99" data-name="Path 99" class="cls-1" d="M49,13.42a8.42,8.42,0,0,0-16.84,0h0a4.87,4.87,0,0,0,0,.54H3.81a2.57,2.57,0,0,0-2.57,2.57V40.12a2.57,2.57,0,0,0,2.57,2.57H18.12a.94.94,0,0,0,0-1.87H4.42L15.57,29.67l6.05,6.06a.94.94,0,0,0,1.32,0L29,29.64,40.22,40.83H26.52a.93.93,0,1,0,0,1.86H40.83a2.58,2.58,0,0,0,2.57-2.57V21.36A8.45,8.45,0,0,0,49,13.42ZM3.1,39.51V17.22L14.25,28.36Zm19.19-5.75L4.36,15.83H32.51a8.46,8.46,0,0,0,3.23,4.47Zm19.24,5.75L30.35,28.32l7.09-7.09a8.39,8.39,0,0,0,3.13.61,7.73,7.73,0,0,0,1-.06ZM40.58,20a6.55,6.55,0,1,1,6.55-6.55A6.55,6.55,0,0,1,40.58,20Z" transform="translate(-1.24 -5)"/><path id="Path_100" data-name="Path 100" class="cls-1" d="M40.58,9.51H39.3a.93.93,0,0,0,0,1.86h.35v5a.93.93,0,0,0,1.86,0v-6a.92.92,0,0,0-.93-.93Z" transform="translate(-1.24 -5)"/></g></g></svg>