<svg id="Layer_1" data-name="Layer 1" xmlns="http://www.w3.org/2000/svg" viewBox="0 0 48 48"><defs><style>.cls-1{fill:#fff;}</style></defs><g id="Group_240" data-name="Group 240"><g id="Group_239" data-name="Group 239"><path id="Path_523" data-name="Path 523" class="cls-1" d="M28.11,37.27a.94.94,0,1,0,.27.66A1,1,0,0,0,28.11,37.27Z" transform="translate(-1.29 -1)"/></g></g><g id="Group_242" data-name="Group 242"><g id="Group_241" data-name="Group 241"><path id="Path_524" data-name="Path 524" class="cls-1" d="M32.32,11.25h0a.94.94,0,1,0,0,1.87h0a.94.94,0,1,0,0-1.87Z" transform="translate(-1.29 -1)"/></g></g><g id="Group_244" data-name="Group 244"><g id="Group_243" data-name="Group 243"><path id="Path_525" data-name="Path 525" class="cls-1" d="M43.49,11.25H36a.94.94,0,0,0,0,1.87h7.5a.94.94,0,0,0,0-1.87Z" transform="translate(-1.29 -1)"/></g></g><g id="Group_246" data-name="Group 246"><g id="Group_245" data-name="Group 245"><path id="Path_526" data-name="Path 526" class="cls-1" d="M48.35,7H37V3.17A2.17,2.17,0,0,0,34.84,1H21.55a2.17,2.17,0,0,0-2.17,2.17V7H8a.93.93,0,0,0-.93.94v8.83a4.66,4.66,0,0,0,1.4,3.34v4.23a.94.94,0,0,0,1.88,0v-3.1a4.75,4.75,0,0,0,1.4.21h3.57a3.84,3.84,0,1,0,7.68,0H33.36a3.84,3.84,0,1,0,7.68,0H44.6A4.82,4.82,0,0,0,46,21.23V36.06a.94.94,0,0,1-.94.93H31.44a.94.94,0,0,0,0,1.88H45.07a2.81,2.81,0,0,0,2.81-2.81v-16l0,0a4.65,4.65,0,0,0,1.38-3.32V7.94A.94.94,0,0,0,48.35,7ZM21.26,3.17a.3.3,0,0,1,.29-.3H34.84a.31.31,0,0,1,.3.3V7H21.26Zm-.09,18.29a2,2,0,0,1-3.94,0h0v-3.1h3.94Zm18,0a2,2,0,1,1-3.93,0h0v-3.1h3.93Zm8.25-4.69a2.8,2.8,0,0,1-2.81,2.8H41V17.7a1.22,1.22,0,0,0-1.22-1.22H34.58a1.22,1.22,0,0,0-1.22,1.22h0v1.87H23V17.7a1.22,1.22,0,0,0-1.22-1.22H16.58a1.22,1.22,0,0,0-1.22,1.22h0v1.87H11.79A2.81,2.81,0,0,1,9,16.76V8.87H47.41Z" transform="translate(-1.29 -1)"/></g></g><g id="Group_248" data-name="Group 248"><g id="Group_247" data-name="Group 247"><path id="Path_527" data-name="Path 527" class="cls-1" d="M12.73,32.12a5.44,5.44,0,1,0,5.44,5.44A5.45,5.45,0,0,0,12.73,32.12Zm0,9a3.56,3.56,0,1,1,3.56-3.56h0A3.56,3.56,0,0,1,12.73,41.12Z" transform="translate(-1.29 -1)"/></g></g><g id="Group_250" data-name="Group 250"><g id="Group_249" data-name="Group 249"><path id="Path_528" data-name="Path 528" class="cls-1" d="M24.16,35.68a.93.93,0,0,0-.79-.92l-1.29-.21-.62-1.48L22.23,32a.94.94,0,0,0-.09-1.21l-2.65-2.64a.93.93,0,0,0-1.21-.1l-1.06.77-1.49-.62-.21-1.29a.93.93,0,0,0-.92-.79H10.85a.93.93,0,0,0-.92.79L9.72,28.2l-1.49.62-1.06-.77a.93.93,0,0,0-1.21.1L3.31,30.8A.94.94,0,0,0,3.22,32L4,33.07l-.62,1.49-1.29.2a.94.94,0,0,0-.79.93v3.75a.93.93,0,0,0,.79.92l1.3.21L4,42.06l-.76,1.06a.93.93,0,0,0,.09,1.21L6,47a.93.93,0,0,0,1.21.1l1.06-.77,1.49.62.2,1.29a.94.94,0,0,0,.93.79H14.6a.94.94,0,0,0,.93-.79l.21-1.29,1.48-.62,1.06.77A.94.94,0,0,0,19.5,47l2.64-2.64a.94.94,0,0,0,.1-1.22l-.77-1.06.61-1.49,1.3-.2a1,1,0,0,0,.79-.93Zm-2.89,3.11a1,1,0,0,0-.72.57l-1,2.45a1,1,0,0,0,.11.91l.61.84-1.52,1.51-.83-.6a1,1,0,0,0-.91-.11l-2.46,1a1,1,0,0,0-.57.72l-.16,1H11.66l-.16-1a1,1,0,0,0-.57-.72l-2.46-1a1,1,0,0,0-.91.11l-.83.61L5.21,43.56l.61-.83a1,1,0,0,0,.11-.91l-1-2.46a1,1,0,0,0-.72-.57l-1-.16V36.49l1-.16a1,1,0,0,0,.72-.57l1-2.46a1,1,0,0,0-.11-.91l-.61-.83L6.73,30l.83.61a1,1,0,0,0,.91.11l2.46-1a.93.93,0,0,0,.56-.72l.17-1H13.8L14,29a1,1,0,0,0,.57.72l2.46,1a1,1,0,0,0,.91-.11l.83-.61,1.52,1.52-.61.83a1,1,0,0,0-.11.91l1,2.46a.94.94,0,0,0,.72.56l1,.17v2.14Z" transform="translate(-1.29 -1)"/></g></g></svg>