<svg xmlns="http://www.w3.org/2000/svg" width="32.042" height="32.042" viewBox="0 0 32.042 32.042"><defs><style>.a{fill:#fff;}</style></defs><g transform="translate(16.834 24.031)"><path class="a" d="M270.067,384.183a.625.625,0,1,0,.183.442A.63.63,0,0,0,270.067,384.183Z" transform="translate(-268.999 -384)"/></g><g transform="translate(20.08 6.842)"><path class="a" d="M321.5,109.327h-.008a.626.626,0,1,0,0,1.252h.008a.626.626,0,0,0,0-1.252Z" transform="translate(-320.866 -109.327)"/></g><g transform="translate(22.545 6.842)"><path class="a" d="M365.877,109.326h-5a.626.626,0,1,0,0,1.252h5a.626.626,0,0,0,0-1.252Z" transform="translate(-360.253 -109.326)"/></g><g transform="translate(3.88)"><path class="a" d="M89.535,4.005h-7.57V1.451A1.453,1.453,0,0,0,80.514,0H71.646a1.453,1.453,0,0,0-1.451,1.451V4.005h-7.57A.626.626,0,0,0,62,4.631v5.895a3.119,3.119,0,0,0,.939,2.232v2.825a.626.626,0,0,0,1.252,0V13.511a3.118,3.118,0,0,0,.939.144h2.378v0a2.566,2.566,0,1,0,5.132,0v-.008h6.884v.008a2.566,2.566,0,1,0,5.132,0v-.008l2.376,0h0a3.136,3.136,0,0,0,.939-.143v9.9a.627.627,0,0,1-.626.626h-9.1a.626.626,0,0,0,0,1.252h9.1a1.88,1.88,0,0,0,1.877-1.877V12.758l.022-.021a3.108,3.108,0,0,0,.917-2.213V4.631A.626.626,0,0,0,89.535,4.005ZM71.446,1.451a.2.2,0,0,1,.2-.2h8.868a.2.2,0,0,1,.2.2V4.005H71.446Zm-.06,12.206a1.314,1.314,0,1,1-2.628,0V11.588h2.628Zm12.016,0a1.314,1.314,0,1,1-2.628,0V11.588H83.4Zm5.507-3.132A1.877,1.877,0,0,1,87.032,12.4h0l-2.378,0V11.15a.814.814,0,0,0-.814-.814h-3.5a.814.814,0,0,0-.814.814V12.4H72.638V11.15a.814.814,0,0,0-.814-.814h-3.5a.814.814,0,0,0-.814.814V12.4H65.128a1.88,1.88,0,0,1-1.877-1.877V5.257H88.909Z" transform="translate(-61.999)"/></g><g transform="translate(4.005 20.777)"><path class="a" d="M67.629,332a3.63,3.63,0,1,0,3.63,3.63A3.634,3.634,0,0,0,67.629,332Zm0,6.008a2.378,2.378,0,1,1,2.378-2.378A2.381,2.381,0,0,1,67.629,338.008Z" transform="translate(-63.999 -332)"/></g><g transform="translate(0 16.772)"><path class="a" d="M15.269,274.384a.626.626,0,0,0-.528-.618l-.863-.137-.412-.993.513-.708a.626.626,0,0,0-.064-.81l-1.767-1.766a.626.626,0,0,0-.81-.064l-.707.513-.994-.411-.137-.863A.626.626,0,0,0,8.881,268h-2.5a.626.626,0,0,0-.618.528l-.137.863-.993.412-.708-.513a.626.626,0,0,0-.81.064l-1.766,1.767a.626.626,0,0,0-.064.81l.513.707-.411.994-.863.137A.626.626,0,0,0,0,274.39v2.5a.626.626,0,0,0,.528.618l.863.137.412.993-.513.708a.626.626,0,0,0,.064.81l1.767,1.766a.626.626,0,0,0,.81.064l.707-.513.994.411.137.863a.626.626,0,0,0,.618.527h2.5a.626.626,0,0,0,.618-.528l.137-.863.993-.412.708.513a.626.626,0,0,0,.81-.064l1.766-1.767a.626.626,0,0,0,.064-.81l-.513-.707.411-.994.863-.137a.626.626,0,0,0,.527-.618Zm-1.932,2.073a.626.626,0,0,0-.48.379l-.679,1.641a.626.626,0,0,0,.072.607l.405.558-1.011,1.011-.559-.405a.626.626,0,0,0-.607-.071l-1.64.68a.626.626,0,0,0-.378.48l-.108.682H6.922l-.108-.681a.626.626,0,0,0-.379-.48l-1.641-.679a.626.626,0,0,0-.607.072l-.558.405-1.011-1.011.405-.559a.626.626,0,0,0,.072-.607l-.68-1.64a.626.626,0,0,0-.48-.378l-.682-.108v-1.43l.681-.108a.626.626,0,0,0,.48-.379l.679-1.641a.626.626,0,0,0-.072-.607l-.405-.558,1.011-1.011.559.405a.626.626,0,0,0,.607.072l1.64-.68a.626.626,0,0,0,.378-.48l.108-.682h1.43l.108.681a.626.626,0,0,0,.379.48l1.641.679a.626.626,0,0,0,.607-.072l.558-.405,1.011,1.011-.405.559a.626.626,0,0,0-.071.607l.68,1.64a.626.626,0,0,0,.48.378l.682.108v1.43Z" transform="translate(0 -268.001)"/></g></svg>