<svg id="Layer_1" data-name="Layer 1" xmlns="http://www.w3.org/2000/svg" viewBox="0 0 48 35.23"><defs><style>.cls-1{fill:#bf900f;}</style></defs><g id="Group_179" data-name="Group 179"><g id="Group_178" data-name="Group 178"><path id="Path_434" data-name="Path 434" class="cls-1" d="M43.33,27.64a13.82,13.82,0,0,0-4.82-.82.7.7,0,0,0-.71.7.71.71,0,0,0,.71.71,11.91,11.91,0,0,1,4.19.67.71.71,0,0,0,.92-.39.69.69,0,0,0-.29-.86Z" transform="translate(-1 -11.79)"/></g></g><g id="Group_181" data-name="Group 181"><g id="Group_180" data-name="Group 180"><path id="Path_435" data-name="Path 435" class="cls-1" d="M46.84,37.65l-2.91-.83a.29.29,0,0,1-.21-.28v-1a5,5,0,0,0,.67-.55A5.12,5.12,0,0,0,46,31.28V29.94l.29-.56a4.57,4.57,0,0,0,.46-2V23.77a.7.7,0,0,0-.7-.71H39.26a4.46,4.46,0,0,0-4.46,4.46v.05a3.64,3.64,0,0,0,.39,1.65l.36.72v1.15a5.51,5.51,0,0,0,2.25,4.44v1c0,.16,0,.23-.58.39l-1.41.41-4.1-1.49a.68.68,0,0,0-.19-.54l-1.31-1.37V31.62l.41-.35a8.31,8.31,0,0,0,2.6-6V23.42A8.19,8.19,0,0,0,34,20V12.49a.7.7,0,0,0-.71-.7H22.74A6.72,6.72,0,0,0,16,18.5V20a8.19,8.19,0,0,0,.75,3.41V25a8.58,8.58,0,0,0,3,6.56v2.36L18.48,35.3a.68.68,0,0,0-.19.54L14,37.42a3.59,3.59,0,0,0-.87.45l-.67-.34a5.34,5.34,0,0,0,2.69-2.18.68.68,0,0,0,0-.62,12.46,12.46,0,0,1-.62-4.37c0-.49,0-1-.06-1.38a6.11,6.11,0,0,0-6-5.91A6.12,6.12,0,0,0,2.5,29c0,.42,0,.89-.06,1.38a12.71,12.71,0,0,1-.61,4.37.68.68,0,0,0,0,.62,5.34,5.34,0,0,0,2.69,2.18l-1.88.94A2.94,2.94,0,0,0,1,41.12v5.19a.71.71,0,0,0,1.41,0h0V41.12a1.54,1.54,0,0,1,.86-1.39l2.35-1.17.82.77a2.94,2.94,0,0,0,4.07,0l.81-.77.77.38a3.7,3.7,0,0,0-.57,2v5.41a.7.7,0,0,0,.71.7.7.7,0,0,0,.7-.7h0V40.9a2.31,2.31,0,0,1,1.52-2.16L19,37.08l1.89,2.85a1.49,1.49,0,0,0,1.07.64h.15a1.45,1.45,0,0,0,1-.42L24.3,39v7.32a.71.71,0,1,0,1.41,0h0V39l1.16,1.16a1.45,1.45,0,0,0,1,.42H28a1.49,1.49,0,0,0,1.07-.64L31,37.08l4.56,1.66a2.3,2.3,0,0,1,1.52,2.16v5.41a.71.71,0,1,0,1.41,0V40.9a3.68,3.68,0,0,0-1-2.57l.17,0a4.67,4.67,0,0,0,.66-.23l1.79,1.79v6.47a.71.71,0,0,0,.71.71.7.7,0,0,0,.7-.71V39.84l1.78-1.78.3.12,2.91.83a1.55,1.55,0,0,1,1.12,1.49v5.81a.71.71,0,1,0,1.41,0V40.5A3,3,0,0,0,46.84,37.65ZM5.51,36.41A5,5,0,0,1,3.25,35a7.48,7.48,0,0,0,.4-1.68,5.34,5.34,0,0,0,1.86,2.29Zm4,1.9a1.55,1.55,0,0,1-2.14,0l-.66-.62A1.25,1.25,0,0,0,6.91,37v-.75a5.32,5.32,0,0,0,3.11,0V37a1.49,1.49,0,0,0,.17.68ZM8.47,35.09a3.82,3.82,0,0,1-3.81-3.81.69.69,0,0,0-.69-.7H3.84c0-.06,0-.12,0-.18,0-.49,0-.94.06-1.33A5.16,5.16,0,0,1,5.33,25.8a4.36,4.36,0,0,1,6.17-.1l.1.1A5.23,5.23,0,0,1,13,29.08c0,.39,0,.84.05,1.33v.12A6.32,6.32,0,0,0,9.62,28a8.74,8.74,0,0,0-2.68-.43.69.69,0,0,0-.48.22L5.19,29.1a.71.71,0,0,0-.05,1,.7.7,0,0,0,1,0,.46.46,0,0,0,.07-.07L7.26,29c.91.05,3.83.39,5,2.89A3.81,3.81,0,0,1,8.47,35.09Zm2.95,1.32v-.84a5.16,5.16,0,0,0,1.86-2.29,7.35,7.35,0,0,0,.4,1.68A5,5,0,0,1,11.42,36.41ZM18.19,25V23.27a.82.82,0,0,0-.07-.31A6.71,6.71,0,0,1,17.44,20V18.5a5.3,5.3,0,0,1,5.31-5.3h9.81V20A6.71,6.71,0,0,1,31.88,23a.82.82,0,0,0-.07.31v2a6.76,6.76,0,0,1-2.15,5q-.27.24-.54.45h0a6.76,6.76,0,0,1-4.57,1.36,7,7,0,0,1-6.35-7Zm4,14.14,0,0a.05.05,0,0,1,0,0l-2.19-3.28.71-.74,3.32,2.27ZM25,36.44l-3.81-2.6V32.53a8.12,8.12,0,0,0,3.26.94H25a8,8,0,0,0,3.8-.93v1.29Zm2.93,2.71a.05.05,0,0,1,0,0l0,0L26.1,37.39l3.31-2.27.71.74Zm12.83-.6L39.17,37a2,2,0,0,0,0-.42v-.3a5.08,5.08,0,0,0,1.4.25h.16a5.17,5.17,0,0,0,1.55-.24v.29a1.48,1.48,0,0,0,0,.41ZM43.42,34a3.77,3.77,0,0,1-2.77,1.07,3.92,3.92,0,0,1-3.69-4V29.78a.72.72,0,0,0-.08-.32l-.43-.86a2.32,2.32,0,0,1-.24-1v-.05a3,3,0,0,1,3-3.05h6.06v2.92A3.13,3.13,0,0,1,45,28.76l-.36.7a.71.71,0,0,0-.07.32v1.5A3.79,3.79,0,0,1,43.41,34Z" transform="translate(-1 -11.79)"/></g></g><g id="Group_183" data-name="Group 183"><g id="Group_182" data-name="Group 182"><path id="Path_436" data-name="Path 436" class="cls-1" d="M45.27,41.1a.7.7,0,0,0-.7.7v4.51a.71.71,0,1,0,1.41,0h0V41.8A.7.7,0,0,0,45.27,41.1Z" transform="translate(-1 -11.79)"/></g></g><g id="Group_185" data-name="Group 185"><g id="Group_184" data-name="Group 184"><path id="Path_437" data-name="Path 437" class="cls-1" d="M4.71,42a.7.7,0,0,0-.71.7v3.58a.71.71,0,0,0,.71.71.7.7,0,0,0,.7-.71h0V42.73A.7.7,0,0,0,4.71,42Z" transform="translate(-1 -11.79)"/></g></g><g id="Group_187" data-name="Group 187"><g id="Group_186" data-name="Group 186"><path id="Path_438" data-name="Path 438" class="cls-1" d="M30.76,20.26c-2.66-2.66-8.22-2.15-10.49-1.81A1.45,1.45,0,0,0,19,19.89v1.62a.7.7,0,0,0,.71.7.7.7,0,0,0,.7-.7V19.89a0,0,0,0,1,0,0,22.53,22.53,0,0,1,4.57-.23c2.19.15,3.77.7,4.71,1.64a.72.72,0,0,0,1,.07.71.71,0,0,0,.06-1l-.06-.06Z" transform="translate(-1 -11.79)"/></g></g><g id="Group_189" data-name="Group 189"><g id="Group_188" data-name="Group 188"><path id="Path_439" data-name="Path 439" class="cls-1" d="M16.73,42.6a.7.7,0,0,0-.7.71v3a.7.7,0,0,0,.7.71.71.71,0,0,0,.71-.71h0v-3a.71.71,0,0,0-.71-.71Z" transform="translate(-1 -11.79)"/></g></g><g id="Group_191" data-name="Group 191"><g id="Group_190" data-name="Group 190"><path id="Path_440" data-name="Path 440" class="cls-1" d="M33.26,42.6a.7.7,0,0,0-.7.71v3a.71.71,0,0,0,1.41,0v-3A.71.71,0,0,0,33.26,42.6Z" transform="translate(-1 -11.79)"/></g></g></svg>