<svg id="Layer_1" data-name="Layer 1" xmlns="http://www.w3.org/2000/svg" viewBox="0 0 39.85 48.19"><defs><style>.cls-1{fill:#3f97e3;}</style></defs><g id="Group_320" data-name="Group 320"><g id="Group_319" data-name="Group 319"><path id="Path_613" data-name="Path 613" class="cls-1" d="M40.3,20.05h-18a5.43,5.43,0,1,0-8.2,0H9.85a4.72,4.72,0,0,0-4.7,4.7V30.3A.94.94,0,0,0,7,30.35v-5.6a2.84,2.84,0,0,1,2.82-2.82H36.17A2.84,2.84,0,0,1,39,24.75v5.08H29.21a4.7,4.7,0,0,0,0,9.4H39V44.3a2.83,2.83,0,0,1-2.82,2.82H9.85A2.82,2.82,0,0,1,7,44.3V38.75a.92.92,0,0,0-1-.91.94.94,0,0,0-.92.91V44.3A4.71,4.71,0,0,0,9.85,49H40.3A4.69,4.69,0,0,0,45,44.3V24.75A4.71,4.71,0,0,0,40.3,20.05ZM18.24,12.94a3.56,3.56,0,1,1-3.56,3.55h0A3.57,3.57,0,0,1,18.24,12.94Zm21.68,9h.38a2.83,2.83,0,0,1,2.82,2.82v5.08H40.87V24.75A4.67,4.67,0,0,0,39.92,21.93ZM26.39,34.53a2.82,2.82,0,0,1,2.82-2.82H43.12v5.64H29.21A2.82,2.82,0,0,1,26.39,34.53ZM40.3,47.12h-.38a4.69,4.69,0,0,0,.94-2.82V39.23h2.26V44.3a2.82,2.82,0,0,1-2.82,2.82Z" transform="translate(-5.15 -0.81)"/><path id="Path_614" data-name="Path 614" class="cls-1" d="M29,33.59a.94.94,0,1,0,.94.94.92.92,0,0,0-.94-.94Z" transform="translate(-5.15 -0.81)"/><path id="Path_615" data-name="Path 615" class="cls-1" d="M31.91,13.72a5.44,5.44,0,1,0-5.43-5.44h0A5.44,5.44,0,0,0,31.91,13.72Zm0-9a3.56,3.56,0,1,1-3.55,3.55h0A3.55,3.55,0,0,1,31.91,4.73Z" transform="translate(-5.15 -0.81)"/><path id="Path_616" data-name="Path 616" class="cls-1" d="M22.74,10.05a.94.94,0,0,0,.94-.94V1.72a.94.94,0,0,0-1.88,0V9.11A.94.94,0,0,0,22.74,10.05Z" transform="translate(-5.15 -0.81)"/><path id="Path_617" data-name="Path 617" class="cls-1" d="M18.22,6.8a.94.94,0,0,0,.94-.94V1.73a.94.94,0,0,0-1.87,0V5.86A.94.94,0,0,0,18.22,6.8Z" transform="translate(-5.15 -0.81)"/><path id="Path_618" data-name="Path 618" class="cls-1" d="M6.09,35.46a.94.94,0,1,0-.66-.27A1,1,0,0,0,6.09,35.46Z" transform="translate(-5.15 -0.81)"/></g></g></svg>