<svg id="Layer_1" data-name="Layer 1" xmlns="http://www.w3.org/2000/svg" viewBox="0 0 48.01 48"><defs><style>.cls-1{fill:#2eafbc;}</style></defs><g id="Group_306" data-name="Group 306"><g id="Group_301" data-name="Group 301"><g id="Group_300" data-name="Group 300"><path id="Path_604" data-name="Path 604" class="cls-1" d="M8.89,43.65a.93.93,0,1,0,.28.66A1,1,0,0,0,8.89,43.65Z" transform="translate(-0.92 -1)"/></g></g><g id="Group_303" data-name="Group 303"><g id="Group_302" data-name="Group 302"><path id="Path_605" data-name="Path 605" class="cls-1" d="M44.94,18.15a.94.94,0,1,0-1.32,1.33.94.94,0,0,0,1.59-.67A1,1,0,0,0,44.94,18.15Z" transform="translate(-0.92 -1)"/></g></g><g id="Group_305" data-name="Group 305"><g id="Group_304" data-name="Group 304"><path id="Path_606" data-name="Path 606" class="cls-1" d="M48.64,1.27A.94.94,0,0,0,48,1H24.92a1,1,0,0,0-1,.94V4.62L15.09,7a.94.94,0,0,0-.66,1.15L19,25.34l-4,4a2.81,2.81,0,0,0-2.32-1.22h-9A2.81,2.81,0,0,0,.92,30.91V46.19A2.81,2.81,0,0,0,3.73,49h9a2.81,2.81,0,0,0,2.73-2.14l1.12,1A4.71,4.71,0,0,0,19.68,49H48a1,1,0,0,0,1-.94V1.94A1,1,0,0,0,48.64,1.27Zm-35,44.92a1,1,0,0,1-.95.94h-9a.94.94,0,0,1-.94-.94V30.91A1,1,0,0,1,3.73,30H7.29V40.77a.95.95,0,0,0,1.88,0V30h3.56a.94.94,0,0,1,.94.94V46.19ZM16.48,8.57l7.5-2V10l-.63.17a.94.94,0,0,0-.66,1.15,2.52,2.52,0,0,1-1.78,3.09.94.94,0,0,0-.66,1.15L23.9,29.13H22l-1-3.8a1,1,0,0,0-.15-.33ZM24,14.33v7.92l-1.71-6.34A4.4,4.4,0,0,0,24,14.33Zm13.47,32.8H19.68a2.79,2.79,0,0,1-1.87-.71l-2.27-2v-13l4.1-4.09.74,2.9a.94.94,0,0,0,.91.71H39.72a1.31,1.31,0,0,1,0,2.62H30.27a.94.94,0,0,0-.19,1.88H42.65a1.31,1.31,0,1,1,0,2.62H30.27A.94.94,0,0,0,30.08,40H40.65a1.31,1.31,0,1,1,0,2.62H30.27a.94.94,0,0,0-.19,1.88h7.37a1.31,1.31,0,0,1,0,2.62h0Zm9.59,0H40.36a3.25,3.25,0,0,0,0-2.63h.29a3.18,3.18,0,0,0,2.85-4.61A3.19,3.19,0,0,0,45.72,36a3.11,3.11,0,0,0-.51-1V23a.95.95,0,0,0-1.88,0V33.7a3.08,3.08,0,0,0-.68-.07h0A3.18,3.18,0,0,0,41,29.41a3.12,3.12,0,0,0-1.31-.28H38.21a4.48,4.48,0,1,0-3.53,0H29.56V11.3a4.41,4.41,0,0,0,3.36-3.36h7a4.41,4.41,0,0,0,3.36,3.36v2.91a1,1,0,0,0,.85,1,.94.94,0,0,0,1-.85.6.6,0,0,0,0-.19V10.46a.94.94,0,0,0-.94-.94A2.52,2.52,0,0,1,41.75,7a.94.94,0,0,0-.94-.94H32.08a.94.94,0,0,0-.94.94,2.54,2.54,0,0,1-2.52,2.53.94.94,0,0,0-.94.94V29.13H25.85V2.88H47ZM36.45,27.61A2.61,2.61,0,1,1,39.06,25h0A2.61,2.61,0,0,1,36.45,27.61Z" transform="translate(-0.92 -1)"/></g></g></g></svg>