<svg id="Layer_1" data-name="Layer 1" xmlns="http://www.w3.org/2000/svg" viewBox="0 0 47 47"><defs><style>.cls-1{fill:#5a36cc;}</style></defs><g id="Group_317" data-name="Group 317"><g id="Group_309" data-name="Group 309"><g id="Group_308" data-name="Group 308"><path id="Path_609" data-name="Path 609" class="cls-1" d="M17.19,37a1.09,1.09,0,0,0-.05-.17.51.51,0,0,0-.09-.16.85.85,0,0,0-.25-.25.83.83,0,0,0-.16-.09l-.17,0a1.09,1.09,0,0,0-.36,0l-.17,0a.83.83,0,0,0-.16.09.91.91,0,0,0-.34.41,1.09,1.09,0,0,0,0,.17.73.73,0,0,0,0,.36.84.84,0,0,0,0,.17.51.51,0,0,0,.09.16.88.88,0,0,0,.25.26l.16.08a.85.85,0,0,0,.17.06,1.09,1.09,0,0,0,.36,0,.85.85,0,0,0,.17-.06l.16-.08a.88.88,0,0,0,.25-.26.51.51,0,0,0,.09-.16.84.84,0,0,0,.05-.17.73.73,0,0,0,0-.36Z" transform="translate(-1.35 -1)"/></g></g><g id="Group_311" data-name="Group 311"><g id="Group_310" data-name="Group 310"><path id="Path_610" data-name="Path 610" class="cls-1" d="M43.58,37.26v0c-.85-2-2.83-2.71-5.18-1.91L32,37.09a4.21,4.21,0,0,0-2.6-2.56h0l-7-2.38a7.24,7.24,0,0,0-5.85-2.69,7.34,7.34,0,0,0-5.73,3.44H2.27a.92.92,0,0,0-.92.91V45.38a.92.92,0,0,0,.92.92H7.73a.92.92,0,0,0,.92-.92v-.79h2.56a.92.92,0,0,0,.91-.92h0v-.26a6.48,6.48,0,0,1,3.36,1.2A56,56,0,0,0,21,47.43h0A8.1,8.1,0,0,0,24,48a7.45,7.45,0,0,0,3-.65l14.13-5.06.08,0C42.59,41.63,44.6,39.88,43.58,37.26ZM6.81,44.46H3.19V34.72H6.81Zm3.48-1.71H8.65v-8h1.63ZM40.5,40.57,26.37,45.63h0l0,0a6,6,0,0,1-4.57.08A54.62,54.62,0,0,1,16.39,43a8.28,8.28,0,0,0-4.27-1.45V34.17a5.67,5.67,0,0,1,4.38-2.89A5.31,5.31,0,0,1,21,33.39a.94.94,0,0,0,.49.39l7.3,2.48a2,2,0,0,1,1.49,2.43,1.78,1.78,0,0,1-2.19,1.23l-8.23-2.6a.92.92,0,0,0-.61,1.73l.06,0,8.24,2.61h0A3.62,3.62,0,0,0,32,39.19L32.1,39,39,37.06c1-.34,2.3-.46,2.88.88.6,1.57-1,2.43-1.37,2.63Z" transform="translate(-1.35 -1)"/></g></g><g id="Group_313" data-name="Group 313"><g id="Group_312" data-name="Group 312"><path id="Path_611" data-name="Path 611" class="cls-1" d="M34.31,13.07a1.09,1.09,0,0,0-.05-.17,1,1,0,0,0-.2-.3l-.14-.11-.16-.09a.87.87,0,0,0-.53-.05l-.17.05-.16.09a.85.85,0,0,0-.25.25.65.65,0,0,0-.09.16,1.09,1.09,0,0,0-.05.17.73.73,0,0,0,0,.36,1.21,1.21,0,0,0,.05.18.6.6,0,0,0,.09.15.88.88,0,0,0,.25.26.8.8,0,0,0,.16.08.85.85,0,0,0,.17.06h.36a.85.85,0,0,0,.17-.06.8.8,0,0,0,.16-.08,1.07,1.07,0,0,0,.26-.26,1.09,1.09,0,0,0,.08-.15.61.61,0,0,0,.05-.18.73.73,0,0,0,0-.36Z" transform="translate(-1.35 -1)"/></g></g><g id="Group_315" data-name="Group 315"><g id="Group_314" data-name="Group 314"><path id="Path_612" data-name="Path 612" class="cls-1" d="M47.43,4.11H42a.92.92,0,0,0-.91.92v.79H38.5a.92.92,0,0,0-.92.92V7a6.51,6.51,0,0,1-3.35-1.2A57.32,57.32,0,0,0,28.71,3h0a7.78,7.78,0,0,0-6,.09L19,4.38,15.87,1.27a.92.92,0,0,0-1.3,0h0L4.35,11.49a.91.91,0,0,0,0,1.29h0L21.82,30.26a1,1,0,0,0,1.3,0l9.33-9.33q.36,0,.75,0a7.37,7.37,0,0,0,5.74-3.44h8.49a.92.92,0,0,0,.92-.92V5a.92.92,0,0,0-.92-.92ZM15.22,3.22l2.09,2.09a4,4,0,0,1-4.18,0Zm-6.83,11L6.3,12.14l2.09-2.09a4,4,0,0,1,0,4.18ZM22.47,28.31l-2.1-2.09a4,4,0,0,1,4.19,0Zm3.41-3.41a5.79,5.79,0,0,0-6.82,0L9.71,15.56a5.84,5.84,0,0,0,0-6.83l2.09-2.1a5.84,5.84,0,0,0,6.83,0l2,2a3.59,3.59,0,0,0-2.73,2,5.23,5.23,0,1,0,6,6.47L27,18.15a5.87,5.87,0,0,0,1,4.65Zm-5.58-9h0l1.83.62a3.4,3.4,0,1,1-4.61-3.88A4.07,4.07,0,0,0,20.3,15.87Zm9,5.61a4.06,4.06,0,0,1-.58-1.91,7.39,7.39,0,0,0,1.61.88Zm8.28-5.24a5.68,5.68,0,0,1-4.38,2.88,6.16,6.16,0,0,1-1-.07h0a5.25,5.25,0,0,1-3.4-1.86L28.74,17a1,1,0,0,0-.51-.42l-7.29-2.47a2.07,2.07,0,0,1-1.5-2.43h0a1.78,1.78,0,0,1,2.19-1.23l8.23,2.6a.92.92,0,1,0,.61-1.73l-.06,0L23.87,9.27l-.05-.06h0L20.43,5.83l2.91-1h.05l0,0A6,6,0,0,1,28,4.68a54.24,54.24,0,0,1,5.32,2.71,8.28,8.28,0,0,0,4.27,1.45Zm3.48-.56H39.42v-8h1.64Zm5.46,0H42.89V6h3.62Z" transform="translate(-1.35 -1)"/></g></g></g></svg>