<svg id="Layer_1" data-name="Layer 1" xmlns="http://www.w3.org/2000/svg" viewBox="0 0 47.56 47.57"><defs><style>.cls-1{fill:#c3971e;}</style></defs><g id="Group_318" data-name="Group 318"><path id="Path_607" data-name="Path 607" class="cls-1" d="M40.64,35.71l-2-1.21a4.07,4.07,0,0,0-2-.57h-3a7.15,7.15,0,0,0-1.84.24l-9.16,2.46a3.19,3.19,0,0,0-2.15,2l-8.06-4.35A3.16,3.16,0,0,0,7.6,37a3.15,3.15,0,0,0,1.56,2.74L23.6,48.41a4,4,0,0,0,2.08.59H36.85a3.87,3.87,0,0,0,1.46-.28l2.32-.92V49h7.93V33.14H40.63ZM37.72,47.24a2.32,2.32,0,0,1-.87.17H25.68a2.36,2.36,0,0,1-1.26-.36L10,38.4A1.58,1.58,0,0,1,9.18,37a1.62,1.62,0,0,1,.21-.8,1.65,1.65,0,0,1,.68-.63,1.42,1.42,0,0,1,.4-.12l.3,0a1.62,1.62,0,0,1,.78.2l8.73,4.72c0,.05,0,.1,0,.15a3.19,3.19,0,0,0,3.07,2.34,8.36,8.36,0,0,0,1.31-.23l8.23-2.2-.41-1.54-8.21,2.2c-.36.08-.82.18-.92.19a1.58,1.58,0,0,1-1.53-1.17,1.6,1.6,0,0,1-.05-.29v-.26A1.6,1.6,0,0,1,23,38.16l9.15-2.45a5.35,5.35,0,0,1,1.43-.19h3a2.39,2.39,0,0,1,1.22.34l2.84,1.7V46.1Zm4.5-12.51H47V47.41H42.22Z" transform="translate(-1 -1.43)"/><path id="Path_608" data-name="Path 608" class="cls-1" d="M33.7,7.77,29.45,3.52A7.15,7.15,0,0,0,24.4,1.43h-10a4,4,0,0,0-1.77.42l-1.78.89A2.41,2.41,0,0,1,9.73,3L8.92,3V1.43H1V18.87H8.92V16.5h1.35l.48.31a8.78,8.78,0,0,0,4.52,1.46V28.39H48.56V7.77ZM7.34,17.29H2.58V3H7.34Zm4.29-1.8-.88-.58H8.92V4.55l.76,0a3.94,3.94,0,0,0,1.91-.41l1.78-.89A2.3,2.3,0,0,1,14.43,3h10a5.5,5.5,0,0,1,3.92,1.62l3.13,3.13H24.91L23,5.85,21.87,7l5.6,5.6a1.59,1.59,0,1,1-2.19,2.31l-.06-.06-4.67-4.67-.56.47a4.19,4.19,0,0,1-5.34.08l-.46-.37-1,1.23.46.38a5.87,5.87,0,0,0,1.62.91v3.83a7.16,7.16,0,0,1-3.64-1.19Zm11.28-.74,1.2,1.2a3.2,3.2,0,0,0,4.48,0,4,4,0,1,0,.45-.58,3.14,3.14,0,0,0,.26-2.84H39.91a4.77,4.77,0,0,0,3.9,3.9v3.3a4.76,4.76,0,0,0-3.9,3.9h-16A4.76,4.76,0,0,0,20,19.73v-3.3a4.75,4.75,0,0,0,2.88-1.68Zm6.63,3.33a2.38,2.38,0,1,1,2.37,2.38,2.38,2.38,0,0,1-2.37-2.38ZM47,26.8H16.85V13.18a5.84,5.84,0,0,0,3.57-.91l1.35,1.35a3.15,3.15,0,0,1-2.54,1.29h-.79v6.34h.79a3.17,3.17,0,0,1,3.17,3.17v.79h19v-.79a3.17,3.17,0,0,1,3.17-3.17h.79V14.91H44.6a3.17,3.17,0,0,1-3.17-3.17v-.8H28.08L26.5,9.36H47Z" transform="translate(-1 -1.43)"/></g></svg>