<svg id="Layer_1" data-name="Layer 1" xmlns="http://www.w3.org/2000/svg" viewBox="0 0 48 32.79"><defs><style>.cls-1{fill:#5a36cc;}</style></defs><g id="Group_321" data-name="Group 321"><path id="Path_620" data-name="Path 620" class="cls-1" d="M46.75,23.1h-.7V18.76a4.55,4.55,0,0,0-4.55-4.55H8.34a4.55,4.55,0,0,0-4.56,4.55V31.11A9.27,9.27,0,0,0,16.25,44.82H41.5a4.56,4.56,0,0,0,4.55-4.55V35.92h.7A2.25,2.25,0,0,0,49,33.68V25.35A2.26,2.26,0,0,0,46.75,23.1ZM10.32,44.75a7.06,7.06,0,1,1,7.06-7.06h0a7.06,7.06,0,0,1-7.06,7.05Zm33.5-4.48A2.32,2.32,0,0,1,41.5,42.6H18.19A9.28,9.28,0,0,0,6,29.47V18.76a2.34,2.34,0,0,1,2.34-2.33H41.5a2.34,2.34,0,0,1,2.33,2.33V23.1H32.21A2.24,2.24,0,0,0,30,25.35v8.33a2.24,2.24,0,0,0,2.24,2.24H43.83Zm3-6.59,0,0h0l-14.56,0,0-8.35,14.56,0Z" transform="translate(-1 -14.21)"/><path id="Path_621" data-name="Path 621" class="cls-1" d="M36.65,32.58a3.07,3.07,0,1,0-3.06-3.07A3.07,3.07,0,0,0,36.65,32.58Zm0-3.91a.84.84,0,1,1,0,1.68.84.84,0,1,1,0-1.68Z" transform="translate(-1 -14.21)"/><path id="Path_622" data-name="Path 622" class="cls-1" d="M13,36.57H11.44v-3a1.12,1.12,0,1,0-2.23-.19v4.33a1.12,1.12,0,0,0,1.12,1.12H13a1.12,1.12,0,1,0,.19-2.23H13Z" transform="translate(-1 -14.21)"/></g></svg>