<svg id="Layer_1" data-name="Layer 1" xmlns="http://www.w3.org/2000/svg" viewBox="0 0 48 48"><defs><style>.cls-1{fill:#2eafbc;}</style></defs><g id="Outline"><path id="Path_619" data-name="Path 619" class="cls-1" d="M11.05,10.09l0,8a.79.79,0,0,1-.79.8.82.82,0,0,1-.5-.17L9,18.15A17.45,17.45,0,0,0,10.69,35l-1.31.91A19.05,19.05,0,0,1,8,16.55.8.8,0,0,1,9,16.19l.13.08.27.21,0-5.33L4.32,12.62l.81.61a.79.79,0,0,1,.22,1,21.19,21.19,0,0,0-1.38,3l-1.5-.55a23.68,23.68,0,0,1,1.15-2.64L2.08,12.93a.8.8,0,0,1-.17-1.12.85.85,0,0,1,.43-.29L10,9.31a.8.8,0,0,1,1,.54.91.91,0,0,1,0,.23ZM3.55,35.76,5,35A22.2,22.2,0,0,1,2.83,21.87a22.66,22.66,0,0,1,.55-2.7l-1.55-.42a26.14,26.14,0,0,0-.59,2.9A23.9,23.9,0,0,0,3.55,35.76ZM21.17,17.89a8.25,8.25,0,0,0-1.45.88l1,1.28a7.16,7.16,0,0,1,1.18-.72Zm-5,8.71h1.6v-.79A7.26,7.26,0,0,1,19.66,21l-1.18-1.07a8.77,8.77,0,0,0-2.28,5.9ZM46.59,48.2V41H45v6.4H37V37.8h.79V36.2H36.4a12.32,12.32,0,0,0-11.84,0h-6a3.21,3.21,0,0,0-3.2,3.21,3.32,3.32,0,0,0,.11.83L12.4,38.81a1.39,1.39,0,0,1,.23-.31l1.74-1.73a.81.81,0,0,0,.23-.57V25.8a10.43,10.43,0,0,1,7.62-10,.8.8,0,0,0,.56-1,.72.72,0,0,0-.09-.2l-1.89-3.2h8.4l-1.89,3.2a.8.8,0,0,0,.27,1.09.84.84,0,0,0,.2.08,10.43,10.43,0,0,1,7.62,10v8.8H37V25.8a12,12,0,0,0-7.81-11.24L31.29,11A.79.79,0,0,0,31,9.92a.88.88,0,0,0-.42-.11H19.4a.79.79,0,0,0-.8.78.92.92,0,0,0,.11.43l2.1,3.54A12,12,0,0,0,13,25.81V35.87l-1.5,1.5a3.09,3.09,0,0,0-.56.78l-2.7-1.24a3.45,3.45,0,0,0-4.43,1.48,3.6,3.6,0,0,0,1.48,4.85l9.33,4.66A10.39,10.39,0,0,0,19.27,49H30.6V47.4H19.27a8.81,8.81,0,0,1-3.94-.93L6,41.81a2,2,0,0,1-.79-2.66,1.84,1.84,0,0,1,2.35-.79l9.1,4.17a.75.75,0,0,0,.33.07h8.8V41H18.6a1.6,1.6,0,0,1,0-3.2h6.13a.79.79,0,0,0,.38-.09l.21-.12a10.74,10.74,0,0,1,10.08-.11V47.4H32.2V49H45.8a.79.79,0,0,0,.79-.79Zm-4.79-4a1.6,1.6,0,1,0-1.6,1.6h0A1.6,1.6,0,0,0,41.8,44.2Zm-16-21.59V25.8a3.2,3.2,0,0,1,0,6.4v1.6H24.2V32.2A3.2,3.2,0,0,1,21,29h1.6a1.6,1.6,0,0,0,1.6,1.6V27.4a3.2,3.2,0,1,1,0-6.39v-1.6h1.6V21a3.2,3.2,0,0,1,3.2,3.2H27.4a1.6,1.6,0,0,0-1.6-1.6Zm-1.6,0a1.6,1.6,0,0,0,0,3.19Zm1.6,4.79v3.2a1.6,1.6,0,0,0,0-3.2ZM28.13,2.83A22.4,22.4,0,0,1,47.06,21.14l1.58-.27a24,24,0,0,0-37.3-15.6.8.8,0,0,0-.21,1.09l2.66,4.2a.81.81,0,0,0,1.1.25h0l0,0A17.44,17.44,0,0,1,41,31.87l-.78-.59a.79.79,0,0,0-1.11.14.81.81,0,0,0-.17.49l0,8a.81.81,0,0,0,.79.81.59.59,0,0,0,.23,0l7.69-2.2a.8.8,0,0,0,.27-1.41l-1.52-1.15A24.22,24.22,0,0,0,49,23.35l-1.6.11a22.11,22.11,0,0,1-.17,4.67,22.37,22.37,0,0,1-2.53,7.63.79.79,0,0,0,.22,1l.79.6-5.12,1.47,0-5.33.29.22A.81.81,0,0,0,42,33.6a1,1,0,0,0,.08-.14A19,19,0,0,0,14.7,9L12.89,6.17A22.32,22.32,0,0,1,28.13,2.83Z" transform="translate(-1 -1)"/></g></svg>